<svg id="Capa_1" enable-background="new 0 0 512 512" height="512" viewBox="0 0 512 512" width="512" xmlns="http://www.w3.org/2000/svg"><g><path d="m506.541 257.622h-29.447c-7.277 0-13.703-4.857-15.565-11.892-9.267-35.005-29.988-65.351-57.909-86.785-.754-.579-1.2-1.469-1.2-2.419v-43.462c0-3.376-2.733-6.132-6.108-6.134-16.138-.011-30.603 9.948-36.353 25.025-.587 1.539-2.278 2.321-3.842 1.804-15.974-5.286-33.053-8.147-50.799-8.147h-8.507c-12.922 30.283-142.071 30.952-155.32 1.437-79.608 10.584-141.784 78.368-141.49 160.735.208 58.053 31.029 108.891 77.163 137.213 5.118 3.142 8.227 8.724 8.227 14.73v60.539c0 2.259 1.831 4.089 4.089 4.089h49.897c1.642 0 3.125-.982 3.765-2.494l17.05-40.235c2.026-7.579 8.892-12.851 16.737-12.851h113.04c7.845 0 14.711 5.272 16.736 12.851l17.05 40.235c.641 1.512 2.123 2.494 3.765 2.494h49.898c2.258 0 4.089-1.831 4.089-4.089v-60.539c0-6.032 3.15-11.611 8.289-14.769 12.994-7.985 24.772-17.757 34.991-28.974 15.233-16.72 36.585-26.551 59.203-26.551h10.519c2.533 0 4.733-1.742 5.313-4.207l.611-2.595c7.687-32.637 11.567-66.054 11.565-99.584.002-3.001-2.456-5.425-5.457-5.425z" fill="#eab1b7"/><path d="m197.943 151.366h-67.617c-1.523 0-2.758 1.235-2.758 2.758v20.238c0 1.523 1.235 2.758 2.758 2.758h88.51c-23.872.001-5.492-9.87-20.893-25.754z" fill="#e28086"/><path d="m305.966 151.366h-58.083c-15.402 15.883-5.176 25.755-29.048 25.755h87.131c1.523 0 2.758-1.235 2.758-2.758v-20.238c0-1.524-1.234-2.759-2.758-2.759z" fill="#e28086"/><path d="m506.541 257.622h-29.447c-2.298 0-4.51-.485-6.521-1.369-.917 28.886-4.715 57.62-11.346 85.773l-.611 2.596c-.58 2.465-2.78 4.207-5.313 4.207h-10.52c-22.309 0-43.672 9.32-58.607 25.893-30.234 33.551-74.336 54.364-123.255 53.421l-133.51-.122c-20.288.862-39.793-2.021-57.881-8.012 2.494 1.732 5.038 3.395 7.632 4.987 5.118 3.142 8.227 8.724 8.227 14.73v60.54c0 2.259 1.831 4.089 4.089 4.089h49.897c1.642 0 3.125-.982 3.765-2.494l17.05-40.234c2.026-7.579 8.892-12.851 16.737-12.851h113.04c7.845 0 14.711 5.272 16.736 12.851l17.05 40.235c.641 1.512 2.123 2.493 3.765 2.493h49.898c2.258 0 4.089-1.83 4.089-4.089v-60.539c0-6.032 3.15-11.611 8.289-14.77 12.994-7.985 24.772-17.757 34.991-28.973 15.233-16.72 36.585-26.551 59.203-26.551h10.519c2.533 0 4.733-1.742 5.313-4.207l.611-2.596c7.687-32.636 11.567-66.054 11.565-99.583.004-3.001-2.455-5.425-5.455-5.425z" fill="#e4989d"/><circle cx="218.836" cy="92.383" fill="#ffd064" r="84.738"/><path d="m234.68 9.124c17.011 15.498 27.686 37.83 27.686 62.655 0 46.8-37.939 84.738-84.738 84.738-5.415 0-10.712-.508-15.845-1.479 15.057 13.719 35.078 22.083 57.052 22.083 46.8 0 84.738-37.938 84.738-84.738.001-41.384-29.666-75.839-68.893-83.259z" fill="#ffc250"/><circle cx="218.836" cy="92.383" fill="#ebb044" r="58.226"/><path d="m210.302 149.988c2.785.409 5.634.621 8.533.621 32.157 0 58.226-26.069 58.226-58.226 0-16.183-6.602-30.824-17.26-41.377 1.675 6.647 2.565 13.606 2.565 20.774 0 35.218-21.485 65.418-52.064 78.208z" fill="#e49824"/><path d="m227.589 120.716h-17.506c-2.315 0-4.191-1.876-4.191-4.191v-48.285c0-2.315 1.876-4.191 4.191-4.191h17.506c2.315 0 4.191 1.876 4.191 4.191v48.285c-.001 2.315-1.877 4.191-4.191 4.191z" fill="#ffd064"/><g fill="#e4989d"><path d="m403.62 158.946c-.754-.579-1.2-1.469-1.2-2.42v38.514c0 4.268 3.459 7.726 7.726 7.726s7.726-3.459 7.726-7.726v-23.776c-4.504-4.374-9.263-8.489-14.252-12.318z"/><path d="m327.202 196.16c.906.345 1.837.509 2.753.509 3.112 0 6.045-1.894 7.22-4.975l22.784-59.739c-.587 1.539-2.278 2.321-3.842 1.804-3.955-1.308-7.977-2.468-12.06-3.473l-21.32 55.901c-1.521 3.988.478 8.452 4.465 9.973z"/></g></g></svg>