<?xml version="1.0" encoding="UTF-8"?>
<svg xmlns="http://www.w3.org/2000/svg" xmlns:xlink="http://www.w3.org/1999/xlink" width="150px" height="150px" viewBox="0 0 150 150" version="1.1">
<g id="surface1">
<path style=" stroke:none;fill-rule:nonzero;fill:rgb(91.764706%,69.411765%,71.764706%);fill-opacity:1;" d="M 148.398438 75.476562 L 139.773438 75.476562 C 137.640625 75.476562 135.757812 74.054688 135.210938 71.992188 C 132.5 61.734375 126.429688 52.84375 118.25 46.566406 C 118.027344 46.398438 117.898438 46.132812 117.898438 45.859375 L 117.898438 33.125 C 117.898438 32.132812 117.09375 31.328125 116.109375 31.328125 C 111.378906 31.324219 107.140625 34.242188 105.457031 38.65625 C 105.285156 39.109375 104.789062 39.335938 104.332031 39.1875 C 99.648438 37.640625 94.648438 36.800781 89.449219 36.800781 L 86.957031 36.800781 C 83.171875 45.671875 45.335938 45.867188 41.453125 37.21875 C 18.128906 40.320312 -0.0859375 60.179688 0 84.3125 C 0.0625 101.320312 9.089844 116.210938 22.609375 124.511719 C 24.105469 125.429688 25.015625 127.066406 25.015625 128.828125 L 25.015625 146.5625 C 25.015625 147.226562 25.554688 147.757812 26.214844 147.757812 L 40.835938 147.757812 C 41.3125 147.757812 41.75 147.472656 41.9375 147.03125 L 46.929688 135.242188 C 47.523438 133.023438 49.539062 131.476562 51.835938 131.476562 L 84.953125 131.476562 C 87.25 131.476562 89.261719 133.023438 89.855469 135.242188 L 94.851562 147.03125 C 95.039062 147.472656 95.472656 147.757812 95.953125 147.757812 L 110.570312 147.757812 C 111.234375 147.757812 111.769531 147.226562 111.769531 146.5625 L 111.769531 128.828125 C 111.769531 127.058594 112.695312 125.421875 114.195312 124.5 C 118.003906 122.160156 121.453125 119.296875 124.449219 116.011719 C 128.914062 111.113281 135.167969 108.234375 141.792969 108.234375 L 144.875 108.234375 C 145.617188 108.234375 146.261719 107.722656 146.429688 107 L 146.609375 106.242188 C 148.863281 96.679688 150 86.890625 150 77.0625 C 150 76.1875 149.28125 75.476562 148.398438 75.476562 Z M 148.398438 75.476562 "/>
<path style=" stroke:none;fill-rule:nonzero;fill:rgb(88.627451%,50.196078%,52.54902%);fill-opacity:1;" d="M 57.992188 44.34375 L 38.179688 44.34375 C 37.734375 44.34375 37.375 44.707031 37.375 45.15625 L 37.375 51.082031 C 37.375 51.53125 37.734375 51.890625 38.179688 51.890625 L 64.109375 51.890625 C 57.117188 51.890625 62.503906 49 57.992188 44.34375 Z M 57.992188 44.34375 "/>
<path style=" stroke:none;fill-rule:nonzero;fill:rgb(88.627451%,50.196078%,52.54902%);fill-opacity:1;" d="M 89.640625 44.34375 L 72.621094 44.34375 C 68.109375 49 71.105469 51.890625 64.109375 51.890625 L 89.640625 51.890625 C 90.085938 51.890625 90.445312 51.53125 90.445312 51.082031 L 90.445312 45.15625 C 90.445312 44.707031 90.085938 44.34375 89.640625 44.34375 Z M 89.640625 44.34375 "/>
<path style=" stroke:none;fill-rule:nonzero;fill:rgb(89.411765%,59.607843%,61.568627%);fill-opacity:1;" d="M 148.398438 75.476562 L 139.773438 75.476562 C 139.101562 75.476562 138.453125 75.335938 137.863281 75.074219 C 137.59375 83.539062 136.484375 91.953125 134.539062 100.203125 L 134.359375 100.960938 C 134.1875 101.6875 133.546875 102.195312 132.804688 102.195312 L 129.71875 102.195312 C 123.1875 102.195312 116.929688 104.925781 112.550781 109.78125 C 103.695312 119.609375 90.773438 125.710938 76.441406 125.429688 L 37.328125 125.398438 C 31.382812 125.648438 25.671875 124.804688 20.371094 123.046875 C 21.101562 123.554688 21.84375 124.046875 22.605469 124.507812 C 24.105469 125.429688 25.015625 127.066406 25.015625 128.828125 L 25.015625 146.5625 C 25.015625 147.226562 25.554688 147.757812 26.214844 147.757812 L 40.832031 147.757812 C 41.3125 147.757812 41.75 147.472656 41.9375 147.03125 L 46.929688 135.242188 C 47.523438 133.023438 49.535156 131.476562 51.835938 131.476562 L 84.953125 131.476562 C 87.25 131.476562 89.261719 133.023438 89.851562 135.242188 L 94.851562 147.03125 C 95.039062 147.472656 95.46875 147.757812 95.953125 147.757812 L 110.570312 147.757812 C 111.234375 147.757812 111.769531 147.226562 111.769531 146.5625 L 111.769531 128.828125 C 111.769531 127.058594 112.691406 125.421875 114.195312 124.5 C 118.003906 122.160156 121.453125 119.296875 124.449219 116.011719 C 128.914062 111.113281 135.167969 108.234375 141.792969 108.234375 L 144.875 108.234375 C 145.617188 108.234375 146.261719 107.722656 146.429688 107 L 146.609375 106.242188 C 148.863281 96.679688 150 86.886719 150 77.0625 C 150 76.1875 149.28125 75.476562 148.398438 75.476562 Z M 148.398438 75.476562 "/>
<path style=" stroke:none;fill-rule:nonzero;fill:rgb(100%,81.568627%,39.215686%);fill-opacity:1;" d="M 88.9375 27.0625 C 88.9375 40.773438 77.820312 51.890625 64.109375 51.890625 C 50.398438 51.890625 39.289062 40.773438 39.289062 27.0625 C 39.289062 13.355469 50.398438 2.242188 64.109375 2.242188 C 77.820312 2.242188 88.9375 13.355469 88.9375 27.0625 Z M 88.9375 27.0625 "/>
<path style=" stroke:none;fill-rule:nonzero;fill:rgb(100%,76.078431%,31.372549%);fill-opacity:1;" d="M 68.753906 2.671875 C 73.738281 7.210938 76.867188 13.757812 76.867188 21.03125 C 76.867188 34.742188 65.75 45.855469 52.039062 45.855469 C 50.453125 45.855469 48.898438 45.703125 47.398438 45.421875 C 51.808594 49.441406 57.671875 51.890625 64.109375 51.890625 C 77.820312 51.890625 88.9375 40.773438 88.9375 27.0625 C 88.9375 14.941406 80.246094 4.847656 68.753906 2.671875 Z M 68.753906 2.671875 "/>
<path style=" stroke:none;fill-rule:nonzero;fill:rgb(92.156863%,69.019608%,26.666667%);fill-opacity:1;" d="M 81.171875 27.0625 C 81.171875 36.484375 73.53125 44.125 64.109375 44.125 C 54.691406 44.125 47.054688 36.484375 47.054688 27.0625 C 47.054688 17.644531 54.691406 10.007812 64.109375 10.007812 C 73.53125 10.007812 81.171875 17.644531 81.171875 27.0625 Z M 81.171875 27.0625 "/>
<path style=" stroke:none;fill-rule:nonzero;fill:rgb(89.411765%,59.607843%,14.117647%);fill-opacity:1;" d="M 61.609375 43.941406 C 62.429688 44.0625 63.261719 44.125 64.109375 44.125 C 73.53125 44.125 81.171875 36.484375 81.171875 27.0625 C 81.171875 22.324219 79.234375 18.035156 76.113281 14.945312 C 76.601562 16.890625 76.867188 18.929688 76.867188 21.03125 C 76.867188 31.347656 70.570312 40.195312 61.609375 43.941406 Z M 61.609375 43.941406 "/>
<path style=" stroke:none;fill-rule:nonzero;fill:rgb(100%,81.568627%,39.215686%);fill-opacity:1;" d="M 66.675781 35.367188 L 61.546875 35.367188 C 60.867188 35.367188 60.320312 34.816406 60.320312 34.140625 L 60.320312 19.992188 C 60.320312 19.3125 60.867188 18.765625 61.546875 18.765625 L 66.675781 18.765625 C 67.355469 18.765625 67.90625 19.3125 67.90625 19.992188 L 67.90625 34.140625 C 67.90625 34.816406 67.351562 35.367188 66.675781 35.367188 Z M 66.675781 35.367188 "/>
<path style=" stroke:none;fill-rule:nonzero;fill:rgb(89.411765%,59.607843%,61.568627%);fill-opacity:1;" d="M 118.25 46.566406 C 118.027344 46.398438 117.898438 46.136719 117.898438 45.859375 L 117.898438 57.140625 C 117.898438 58.390625 118.910156 59.40625 120.160156 59.40625 C 121.410156 59.40625 122.421875 58.390625 122.421875 57.140625 L 122.421875 50.175781 C 121.101562 48.894531 119.710938 47.6875 118.25 46.566406 Z M 118.25 46.566406 "/>
<path style=" stroke:none;fill-rule:nonzero;fill:rgb(89.411765%,59.607843%,61.568627%);fill-opacity:1;" d="M 95.859375 57.46875 C 96.125 57.570312 96.398438 57.617188 96.664062 57.617188 C 97.578125 57.617188 98.4375 57.0625 98.78125 56.160156 L 105.457031 38.65625 C 105.285156 39.109375 104.789062 39.335938 104.332031 39.1875 C 103.171875 38.804688 101.992188 38.464844 100.796875 38.171875 L 94.554688 54.546875 C 94.105469 55.714844 94.691406 57.023438 95.859375 57.46875 Z M 95.859375 57.46875 "/>
</g>
</svg>
