<?xml version="1.0" encoding="UTF-8"?>
<svg xmlns="http://www.w3.org/2000/svg" xmlns:xlink="http://www.w3.org/1999/xlink" width="150px" height="150px" viewBox="0 0 150 150" version="1.1">
<g id="surface1">
<path style=" stroke:none;fill-rule:nonzero;fill:rgb(40%,82.745098%,81.568627%);fill-opacity:1;" d="M 141.734375 111.5 C 135.988281 121.4375 123.578125 126.453125 106.800781 125.621094 C 91.132812 124.84375 73.175781 119.042969 56.246094 109.285156 C 39.3125 99.527344 25.300781 86.910156 16.792969 73.757812 C 7.679688 59.667969 5.828125 46.4375 11.578125 36.5 C 17.324219 26.5625 29.734375 21.550781 46.511719 22.378906 C 62.179688 23.15625 80.136719 28.957031 97.070312 38.714844 C 114 48.472656 128.011719 61.089844 136.519531 74.246094 C 145.632812 88.332031 147.484375 101.5625 141.734375 111.5 Z M 19.664062 41.160156 C 15.8125 47.820312 17.625 57.859375 24.636719 68.703125 C 32.355469 80.636719 45.238281 92.183594 60.914062 101.214844 C 76.585938 110.246094 93.046875 115.609375 107.261719 116.3125 C 120.179688 116.953125 129.796875 113.5 133.648438 106.839844 C 137.5 100.179688 135.6875 90.144531 128.675781 79.300781 C 120.957031 67.363281 108.074219 55.816406 92.398438 46.785156 C 76.726562 37.753906 60.265625 32.390625 46.046875 31.6875 C 33.132812 31.046875 23.515625 34.5 19.664062 41.160156 Z M 19.664062 41.160156 "/>
<path style=" stroke:none;fill-rule:nonzero;fill:rgb(49.019608%,88.627451%,88.627451%);fill-opacity:1;" d="M 16.792969 74.246094 C 25.300781 61.089844 39.3125 48.472656 56.246094 38.714844 C 73.175781 28.957031 91.132812 23.15625 106.800781 22.378906 C 123.578125 21.550781 135.988281 26.5625 141.734375 36.5 C 147.484375 46.4375 145.632812 59.667969 136.519531 73.753906 C 128.011719 86.910156 114 99.527344 97.070312 109.285156 C 80.136719 119.042969 62.179688 124.84375 46.511719 125.621094 C 29.734375 126.453125 17.324219 121.4375 11.578125 111.5 C 5.828125 101.5625 7.679688 88.332031 16.792969 74.246094 Z M 107.261719 31.6875 C 93.046875 32.390625 76.585938 37.753906 60.914062 46.785156 C 45.238281 55.816406 32.355469 67.363281 24.636719 79.300781 C 17.625 90.144531 15.8125 100.179688 19.664062 106.839844 C 23.515625 113.5 33.132812 116.953125 46.046875 116.3125 C 60.265625 115.609375 76.726562 110.246094 92.398438 101.214844 C 108.074219 92.183594 120.957031 80.636719 128.675781 68.703125 C 135.6875 57.859375 137.5 47.820312 133.648438 41.160156 C 129.796875 34.5 120.179688 31.046875 107.261719 31.6875 Z M 107.261719 31.6875 "/>
<path style=" stroke:none;fill-rule:nonzero;fill:rgb(62.745098%,94.117647%,94.901961%);fill-opacity:1;" d="M 76.488281 149.707031 C 64.992188 149.707031 54.4375 141.492188 46.769531 126.570312 C 39.609375 112.640625 35.664062 94.222656 35.664062 74.707031 C 35.664062 55.191406 39.609375 36.773438 46.769531 22.84375 C 54.4375 7.921875 64.992188 -0.292969 76.488281 -0.292969 C 87.984375 -0.292969 98.539062 7.921875 106.207031 22.84375 C 113.367188 36.773438 117.3125 55.191406 117.3125 74.707031 C 117.3125 94.222656 113.367188 112.640625 106.207031 126.570312 C 98.539062 141.492188 87.984375 149.707031 76.488281 149.707031 Z M 76.488281 9.027344 C 68.78125 9.027344 60.980469 15.613281 55.074219 27.09375 C 48.578125 39.734375 45 56.644531 45 74.707031 C 45 92.769531 48.578125 109.679688 55.074219 122.320312 C 60.980469 133.800781 68.78125 140.386719 76.488281 140.386719 C 84.191406 140.386719 91.996094 133.800781 97.898438 122.320312 C 104.398438 109.679688 107.972656 92.769531 107.972656 74.707031 C 107.972656 56.644531 104.398438 39.734375 97.898438 27.09375 C 91.996094 15.613281 84.191406 9.027344 76.488281 9.027344 Z M 76.488281 9.027344 "/>
<path style=" stroke:none;fill-rule:nonzero;fill:rgb(100%,57.254902%,62.352941%);fill-opacity:1;" d="M 95.601562 74.707031 C 95.601562 85.242188 87.042969 93.78125 76.488281 93.78125 C 65.933594 93.78125 57.375 85.242188 57.375 74.707031 C 57.375 64.171875 65.933594 55.632812 76.488281 55.632812 C 87.042969 55.632812 95.601562 64.171875 95.601562 74.707031 Z M 95.601562 74.707031 "/>
<path style=" stroke:none;fill-rule:nonzero;fill:rgb(100%,45.098039%,49.019608%);fill-opacity:1;" d="M 75.023438 74.707031 C 75.023438 67.351562 79.207031 60.96875 85.320312 57.785156 C 82.679688 56.410156 79.671875 55.632812 76.488281 55.632812 C 65.933594 55.632812 57.375 64.171875 57.375 74.707031 C 57.375 85.242188 65.933594 93.78125 76.488281 93.78125 C 79.671875 93.78125 82.679688 93.003906 85.320312 91.628906 C 79.207031 88.445312 75.023438 82.0625 75.023438 74.707031 Z M 75.023438 74.707031 "/>
<path style=" stroke:none;fill-rule:nonzero;fill:rgb(38.823529%,57.254902%,83.921569%);fill-opacity:1;" d="M 137.003906 31.011719 C 137.003906 35.042969 133.730469 38.3125 129.691406 38.3125 C 125.652344 38.3125 122.378906 35.042969 122.378906 31.011719 C 122.378906 26.984375 125.652344 23.714844 129.691406 23.714844 C 133.730469 23.714844 137.003906 26.984375 137.003906 31.011719 Z M 137.003906 31.011719 "/>
<path style=" stroke:none;fill-rule:nonzero;fill:rgb(30.980392%,48.627451%,74.901961%);fill-opacity:1;" d="M 19.761719 48.234375 C 19.761719 52.265625 16.488281 55.53125 12.449219 55.53125 C 8.410156 55.53125 5.136719 52.265625 5.136719 48.234375 C 5.136719 44.203125 8.410156 40.9375 12.449219 40.9375 C 16.488281 40.9375 19.761719 44.203125 19.761719 48.234375 Z M 19.761719 48.234375 "/>
<path style=" stroke:none;fill-rule:nonzero;fill:rgb(47.058824%,63.921569%,93.72549%);fill-opacity:1;" d="M 67.65625 138.53125 C 67.65625 142.558594 64.382812 145.828125 60.34375 145.828125 C 56.304688 145.828125 53.03125 142.558594 53.03125 138.53125 C 53.03125 134.5 56.304688 131.230469 60.34375 131.230469 C 64.382812 131.230469 67.65625 134.5 67.65625 138.53125 Z M 67.65625 138.53125 "/>
</g>
</svg>
