<?xml version="1.0" encoding="UTF-8"?>
<svg xmlns="http://www.w3.org/2000/svg" xmlns:xlink="http://www.w3.org/1999/xlink" width="150px" height="150px" viewBox="0 0 150 150" version="1.1">
<g id="surface1">
<path style=" stroke:none;fill-rule:nonzero;fill:rgb(100%,32.941176%,57.254902%);fill-opacity:1;" d="M 143.601562 29.179688 C 140.992188 29.179688 138.742188 30.914062 137.75 33.40625 C 136.757812 30.914062 134.511719 29.179688 131.898438 29.179688 C 128.367188 29.179688 125.5 32.351562 125.5 36.273438 C 125.5 45.242188 137.75 50.195312 137.75 50.195312 C 137.75 50.195312 149.878906 45.175781 150 36.273438 C 150.054688 32.351562 147.132812 29.179688 143.601562 29.179688 Z M 143.601562 29.179688 "/>
<path style=" stroke:none;fill-rule:nonzero;fill:rgb(100%,56.862745%,75.686275%);fill-opacity:1;" d="M 127.226562 0 C 125.566406 0 124.136719 1.105469 123.507812 2.691406 C 122.875 1.105469 121.445312 0 119.78125 0 C 117.539062 0 115.714844 2.019531 115.714844 4.511719 C 115.714844 10.21875 123.507812 13.367188 123.507812 13.367188 C 123.507812 13.367188 131.21875 10.171875 131.296875 4.511719 C 131.328125 2.023438 129.476562 0 127.226562 0 Z M 127.226562 0 "/>
<path style=" stroke:none;fill-rule:nonzero;fill:rgb(100%,56.862745%,75.686275%);fill-opacity:1;" d="M 120.4375 54.773438 C 118.773438 54.773438 117.347656 55.882812 116.714844 57.46875 C 116.085938 55.882812 114.65625 54.773438 112.992188 54.773438 C 110.746094 54.773438 108.925781 56.796875 108.925781 59.289062 C 108.925781 64.992188 116.714844 68.144531 116.714844 68.144531 C 116.714844 68.144531 124.429688 64.953125 124.507812 59.289062 C 124.539062 56.796875 122.6875 54.773438 120.4375 54.773438 Z M 120.4375 54.773438 "/>
<path style=" stroke:none;fill-rule:nonzero;fill:rgb(100%,94.117647%,79.215686%);fill-opacity:1;" d="M 89.765625 34.078125 C 96.851562 33.773438 102.351562 27.921875 102.054688 21.007812 C 101.75 14.085938 95.761719 8.726562 88.675781 9.03125 C 88.214844 9.050781 87.761719 9.09375 87.316406 9.160156 C 87.445312 8.550781 87.515625 7.921875 87.484375 7.269531 C 87.304688 3.074219 83.671875 -0.175781 79.371094 0.0078125 C 75.085938 0.191406 71.757812 3.722656 71.921875 7.902344 C 70.421875 6.054688 68.078125 4.910156 65.484375 5.023438 C 61.335938 5.195312 58.089844 8.515625 58.03125 12.515625 C 56.34375 11.828125 54.476562 11.476562 52.523438 11.5625 C 51.449219 11.609375 50.414062 11.78125 49.425781 12.070312 C 48.984375 8.125 45.484375 5.140625 41.359375 5.316406 C 38.8125 5.425781 36.609375 6.726562 35.269531 8.632812 C 32.859375 6.527344 29.636719 5.296875 26.144531 5.449219 C 19.058594 5.75 13.554688 11.605469 13.859375 18.523438 C 13.882812 19.125 13.957031 19.71875 14.070312 20.300781 C 12.789062 19.539062 11.273438 19.125 9.664062 19.191406 C 5.367188 19.375 2.03125 22.925781 2.210938 27.121094 C 2.394531 31.3125 6.027344 34.566406 10.328125 34.382812 Z M 89.765625 34.078125 "/>
<path style=" stroke:none;fill-rule:nonzero;fill:rgb(100%,32.941176%,57.254902%);fill-opacity:1;" d="M 80.09375 131.40625 L 24.171875 131.40625 C 20.894531 131.40625 18.128906 128.988281 17.71875 125.761719 L 6.914062 41.003906 L 97.351562 41.003906 L 86.554688 125.761719 C 86.140625 128.988281 83.375 131.40625 80.09375 131.40625 Z M 80.09375 131.40625 "/>
<path style=" stroke:none;fill-rule:nonzero;fill:rgb(98.039216%,24.313725%,50.980392%);fill-opacity:1;" d="M 85.28125 41.003906 L 74.480469 125.761719 C 74.070312 128.988281 71.304688 131.40625 68.023438 131.40625 L 80.097656 131.40625 C 83.375 131.40625 86.140625 128.988281 86.554688 125.761719 L 97.351562 41.003906 Z M 85.28125 41.003906 "/>
<path style=" stroke:none;fill-rule:nonzero;fill:rgb(100%,56.862745%,75.686275%);fill-opacity:1;" d="M 65.734375 131.40625 L 38.539062 131.40625 L 29.898438 41.003906 L 74.375 41.003906 Z M 65.734375 131.40625 "/>
<path style=" stroke:none;fill-rule:nonzero;fill:rgb(87.843137%,93.72549%,100%);fill-opacity:1;" d="M 98.84375 41.042969 L 5.429688 41.042969 C 2.429688 41.042969 0 38.613281 0 35.617188 C 0 32.617188 2.429688 30.1875 5.429688 30.1875 L 98.84375 30.1875 C 101.839844 30.1875 104.269531 32.617188 104.269531 35.617188 C 104.269531 38.613281 101.839844 41.042969 98.84375 41.042969 Z M 98.84375 41.042969 "/>
<path style=" stroke:none;fill-rule:nonzero;fill:rgb(83.137255%,90.980392%,100%);fill-opacity:1;" d="M 98.84375 30.1875 L 86.769531 30.1875 C 89.765625 30.1875 92.195312 32.617188 92.195312 35.617188 C 92.195312 38.613281 89.765625 41.042969 86.769531 41.042969 L 98.84375 41.042969 C 101.839844 41.042969 104.269531 38.613281 104.269531 35.617188 C 104.269531 32.617188 101.839844 30.1875 98.84375 30.1875 Z M 98.84375 30.1875 "/>
<path style=" stroke:none;fill-rule:nonzero;fill:rgb(100%,100%,100%);fill-opacity:1;" d="M 63.695312 62.523438 C 58.53125 62.523438 54.09375 65.960938 52.132812 70.882812 C 50.171875 65.960938 45.734375 62.523438 40.574219 62.523438 C 33.59375 62.523438 27.9375 68.796875 27.9375 76.539062 C 27.9375 94.253906 52.132812 104.039062 52.132812 104.039062 C 52.132812 104.039062 76.089844 94.125 76.328125 76.539062 C 76.433594 68.800781 70.671875 62.523438 63.695312 62.523438 Z M 63.695312 62.523438 "/>
<path style=" stroke:none;fill-rule:nonzero;fill:rgb(32.941176%,46.27451%,54.117647%);fill-opacity:1;" d="M 55.492188 145.617188 L 106.925781 145.617188 L 106.925781 125.523438 L 55.492188 125.523438 C 53.929688 125.523438 52.664062 126.792969 52.664062 128.355469 L 52.664062 142.785156 C 52.664062 144.347656 53.929688 145.617188 55.492188 145.617188 Z M 55.492188 145.617188 "/>
<path style=" stroke:none;fill-rule:nonzero;fill:rgb(22.352941%,35.294118%,43.137255%);fill-opacity:1;" d="M 76.816406 125.523438 L 81.34375 125.523438 L 81.34375 145.617188 L 76.816406 145.617188 Z M 76.816406 125.523438 "/>
<path style=" stroke:none;fill-rule:nonzero;fill:rgb(22.352941%,35.294118%,43.137255%);fill-opacity:1;" d="M 63.609375 125.523438 L 68.132812 125.523438 L 68.132812 145.617188 L 63.609375 145.617188 Z M 63.609375 125.523438 "/>
<path style=" stroke:none;fill-rule:nonzero;fill:rgb(87.843137%,93.72549%,100%);fill-opacity:1;" d="M 80.90625 115.03125 C 80.90625 134.34375 96.371094 150 115.453125 150 C 134.53125 150 150 134.34375 150 115.03125 C 150 95.71875 134.53125 80.066406 115.453125 80.066406 C 96.371094 80.066406 80.90625 95.722656 80.90625 115.03125 Z M 106.34375 115.03125 C 106.34375 109.949219 110.429688 105.8125 115.453125 105.8125 C 120.476562 105.8125 124.5625 109.949219 124.5625 115.03125 C 124.5625 120.117188 120.476562 124.25 115.453125 124.25 C 110.429688 124.25 106.34375 120.117188 106.34375 115.03125 Z M 106.34375 115.03125 "/>
<path style=" stroke:none;fill-rule:nonzero;fill:rgb(83.137255%,90.980392%,100%);fill-opacity:1;" d="M 115.453125 80.066406 C 113.390625 80.066406 111.375 80.25 109.414062 80.601562 C 125.617188 83.492188 137.929688 97.804688 137.929688 115.03125 C 137.929688 132.261719 125.617188 146.578125 109.414062 149.46875 C 111.375 149.816406 113.390625 150 115.453125 150 C 134.53125 150 150 134.34375 150 115.03125 C 150 95.722656 134.53125 80.066406 115.453125 80.066406 Z M 115.453125 80.066406 "/>
<path style=" stroke:none;fill-rule:nonzero;fill:rgb(100%,100%,100%);fill-opacity:1;" d="M 120.011719 92.953125 C 120.011719 90.382812 117.949219 88.292969 115.40625 88.292969 C 112.859375 88.292969 110.796875 90.382812 110.796875 92.953125 C 110.796875 95.53125 112.859375 97.617188 115.40625 97.617188 C 117.949219 97.617188 120.011719 95.53125 120.011719 92.953125 Z M 120.011719 92.953125 "/>
<path style=" stroke:none;fill-rule:nonzero;fill:rgb(100%,100%,100%);fill-opacity:1;" d="M 135.453125 99.390625 C 135.453125 96.8125 133.390625 94.726562 130.84375 94.726562 C 128.296875 94.726562 126.234375 96.8125 126.234375 99.390625 C 126.234375 101.960938 128.296875 104.050781 130.84375 104.050781 C 133.390625 104.050781 135.453125 101.960938 135.453125 99.390625 Z M 135.453125 99.390625 "/>
<path style=" stroke:none;fill-rule:nonzero;fill:rgb(100%,100%,100%);fill-opacity:1;" d="M 141.875 114.984375 C 141.875 112.410156 139.8125 110.324219 137.265625 110.324219 C 134.71875 110.324219 132.65625 112.410156 132.65625 114.984375 C 132.65625 117.5625 134.71875 119.648438 137.265625 119.648438 C 139.8125 119.648438 141.875 117.5625 141.875 114.984375 Z M 141.875 114.984375 "/>
<path style=" stroke:none;fill-rule:nonzero;fill:rgb(100%,100%,100%);fill-opacity:1;" d="M 135.515625 130.609375 C 135.515625 128.039062 133.453125 125.949219 130.910156 125.949219 C 128.367188 125.949219 126.304688 128.039062 126.304688 130.609375 C 126.304688 133.1875 128.367188 135.273438 130.910156 135.273438 C 133.453125 135.273438 135.515625 133.1875 135.515625 130.609375 Z M 135.515625 130.609375 "/>
<path style=" stroke:none;fill-rule:nonzero;fill:rgb(100%,100%,100%);fill-opacity:1;" d="M 120.105469 137.109375 C 120.105469 134.539062 118.042969 132.449219 115.5 132.449219 C 112.953125 132.449219 110.890625 134.539062 110.890625 137.109375 C 110.890625 139.6875 112.953125 141.773438 115.5 141.773438 C 118.042969 141.773438 120.105469 139.6875 120.105469 137.109375 Z M 120.105469 137.109375 "/>
<path style=" stroke:none;fill-rule:nonzero;fill:rgb(100%,100%,100%);fill-opacity:1;" d="M 104.667969 130.679688 C 104.667969 128.101562 102.605469 126.015625 100.0625 126.015625 C 97.515625 126.015625 95.453125 128.101562 95.453125 130.679688 C 95.453125 133.253906 97.515625 135.34375 100.0625 135.34375 C 102.605469 135.34375 104.667969 133.253906 104.667969 130.679688 Z M 104.667969 130.679688 "/>
<path style=" stroke:none;fill-rule:nonzero;fill:rgb(100%,100%,100%);fill-opacity:1;" d="M 98.246094 115.078125 C 98.246094 112.507812 96.179688 110.417969 93.640625 110.417969 C 91.09375 110.417969 89.03125 112.507812 89.03125 115.078125 C 89.03125 117.65625 91.09375 119.742188 93.640625 119.742188 C 96.179688 119.742188 98.246094 117.65625 98.246094 115.078125 Z M 98.246094 115.078125 "/>
<path style=" stroke:none;fill-rule:nonzero;fill:rgb(100%,100%,100%);fill-opacity:1;" d="M 104.601562 99.453125 C 104.601562 96.882812 102.539062 94.792969 99.992188 94.792969 C 97.449219 94.792969 95.386719 96.882812 95.386719 99.453125 C 95.386719 102.03125 97.449219 104.117188 99.992188 104.117188 C 102.539062 104.117188 104.601562 102.03125 104.601562 99.453125 Z M 104.601562 99.453125 "/>
</g>
</svg>
