<svg id="Layer_1" enable-background="new 0 0 512 512" height="512" viewBox="0 0 512 512" width="512" xmlns="http://www.w3.org/2000/svg"><g><g><path d="m490.166 99.592c-8.921 0-16.591 5.936-19.978 14.441-3.387-8.505-11.057-14.441-19.978-14.441-12.057 0-21.832 10.843-21.832 24.218 0 30.615 41.81 47.522 41.81 47.522s41.398-17.135 41.81-47.522c.181-13.374-9.775-24.218-21.832-24.218z" fill="#ff5492"/><path d="m434.275 0c-5.674 0-10.552 3.776-12.707 9.185-2.154-5.409-7.033-9.185-12.707-9.185-7.669 0-13.886 6.896-13.886 15.403 0 19.472 26.593 30.225 26.593 30.225s26.331-10.899 26.593-30.225c.115-8.506-6.217-15.403-13.886-15.403z" fill="#ff91c1"/><path d="m411.097 186.969c-5.674 0-10.552 3.776-12.707 9.185-2.154-5.41-7.033-9.185-12.707-9.185-7.669 0-13.886 6.896-13.886 15.403 0 19.472 26.593 30.225 26.593 30.225s26.331-10.899 26.593-30.225c.115-8.506-6.217-15.403-13.886-15.403z" fill="#ff91c1"/><g><g><g><g><path d="m306.4 116.321c24.19-1.036 42.967-21.014 41.939-44.622-1.028-23.609-21.471-41.908-45.661-40.872-1.571.067-3.117.218-4.638.441.448-2.079.671-4.235.575-6.455-.623-14.318-13.021-25.416-27.692-24.788-14.63.626-25.99 12.679-25.434 26.946-5.109-6.3-13.119-10.214-21.978-9.834-14.16.606-25.228 11.922-25.423 25.583-5.767-2.356-12.142-3.544-18.805-3.259-3.667.157-7.208.756-10.576 1.73-1.513-13.459-13.46-23.646-27.526-23.044-8.704.373-16.227 4.806-20.797 11.327-8.225-7.197-19.226-11.385-31.142-10.875-24.19 1.036-42.967 21.014-41.939 44.622.09 2.069.338 4.094.715 6.072-4.358-2.608-9.534-4.019-15.029-3.784-14.673.629-26.06 12.745-25.437 27.063s13.021 25.416 27.692 24.788z" fill="#fff0ca"/><g><g><path d="m273.396 448.534h-190.886c-11.19 0-20.632-8.255-22.035-19.265l-36.872-289.311h308.7l-36.871 289.311c-1.403 11.009-10.846 19.265-22.036 19.265z" fill="#ff5492"/><path d="m291.096 139.958-36.871 289.311c-1.403 11.009-10.846 19.265-22.035 19.265h41.207c11.19 0 20.632-8.255 22.035-19.265l36.871-289.311z" fill="#fa3e82"/><path d="m224.364 448.534h-92.821l-29.495-308.576h151.811z" fill="#ff91c1"/></g><path d="m337.382 140.094h-318.858c-10.23 0-18.524-8.294-18.524-18.525v-.002c0-10.231 8.294-18.524 18.524-18.524h318.858c10.231 0 18.524 8.294 18.524 18.524v.002c.001 10.231-8.293 18.525-18.524 18.525z" fill="#e0efff"/><path d="m337.382 103.043h-41.207c10.231 0 18.524 8.294 18.524 18.525v.002c0 10.231-8.294 18.524-18.524 18.524h41.207c10.231 0 18.524-8.294 18.524-18.524v-.002c.001-10.231-8.293-18.525-18.524-18.525z" fill="#d4e8ff"/></g></g></g><path d="m217.411 213.418c-17.62 0-32.77 11.725-39.46 28.524-6.691-16.799-21.84-28.524-39.46-28.524-23.815 0-43.122 21.416-43.122 47.834 0 60.47 82.582 93.864 82.582 93.864s81.768-33.845 82.582-93.864c.358-26.415-19.306-47.834-43.122-47.834z" fill="#fff"/></g><g><g><path d="m189.415 497.031h175.557v-68.569h-175.557c-5.333 0-9.657 4.324-9.657 9.657v49.255c.001 5.333 4.324 9.657 9.657 9.657z" fill="#54768a"/><g fill="#395a6e"><path d="m262.2 428.462h15.453v68.569h-15.453z"/><path d="m217.116 428.462h15.453v68.569h-15.453z"/></g><g><path d="m276.152 392.647c0 65.917 52.796 119.353 117.924 119.353s117.924-53.436 117.924-119.353-52.796-119.353-117.924-119.353-117.924 53.437-117.924 119.353zm86.832 0c0-17.352 13.948-31.468 31.092-31.468s31.092 14.117 31.092 31.468c0 17.352-13.948 31.468-31.092 31.468s-31.092-14.116-31.092-31.468z" fill="#e0efff"/><g><path d="m394.076 273.295c-7.029 0-13.913.625-20.604 1.819 55.304 9.864 97.32 58.731 97.32 117.534s-42.016 107.67-97.32 117.534c6.691 1.193 13.575 1.819 20.604 1.819 65.128-.001 117.924-53.437 117.924-119.354s-52.796-119.352-117.924-119.352z" fill="#d4e8ff"/></g><g fill="#fff"><ellipse cx="393.917" cy="317.288" rx="15.726" ry="15.916"/><ellipse cx="446.613" cy="339.246" rx="15.726" ry="15.916"/><ellipse cx="468.534" cy="392.486" rx="15.726" ry="15.916"/><ellipse cx="446.838" cy="445.821" rx="15.726" ry="15.916"/><ellipse cx="394.235" cy="468.007" rx="15.726" ry="15.916"/><ellipse cx="341.539" cy="446.048" rx="15.726" ry="15.916"/><ellipse cx="319.618" cy="392.808" rx="15.726" ry="15.916"/><ellipse cx="341.314" cy="339.474" rx="15.726" ry="15.916"/></g></g></g></g></g></g></g></svg>