<?xml version="1.0" encoding="UTF-8"?>
<svg xmlns="http://www.w3.org/2000/svg" xmlns:xlink="http://www.w3.org/1999/xlink" width="150px" height="150px" viewBox="0 0 150 150" version="1.1">
<g id="surface1">
<path style=" stroke:none;fill-rule:nonzero;fill:rgb(90.196078%,90.588235%,90.980392%);fill-opacity:1;" d="M 139.886719 27.4375 L 71.867188 27.4375 C 69.820312 27.4375 67.90625 26.433594 66.738281 24.753906 L 63.714844 20.390625 C 62.082031 18.03125 59.398438 16.625 56.527344 16.625 L 14.726562 16.625 C 11.488281 16.625 8.867188 19.25 8.867188 22.484375 L 8.867188 132.441406 C 8.867188 135.675781 11.488281 138.300781 14.726562 138.300781 L 139.882812 138.300781 C 143.117188 138.300781 145.742188 135.675781 145.742188 132.441406 L 145.742188 33.300781 C 145.742188 30.066406 143.121094 27.441406 139.886719 27.4375 Z M 139.886719 27.4375 "/>
<path style=" stroke:none;fill-rule:nonzero;fill:rgb(83.137255%,98.431373%,100%);fill-opacity:1;" d="M 5.425781 38.671875 L 139.8125 38.671875 L 139.8125 127.367188 C 139.8125 129.957031 137.710938 132.054688 135.125 132.054688 L 10.113281 132.054688 C 7.523438 132.054688 5.425781 129.957031 5.425781 127.367188 Z M 5.425781 38.671875 "/>
<path style=" stroke:none;fill-rule:nonzero;fill:rgb(98.039216%,45.882353%,61.960784%);fill-opacity:1;" d="M 63.054688 108.644531 C 64.25 109.898438 64.25 111.871094 63.054688 113.125 C 62.429688 113.644531 61.632812 113.917969 60.816406 113.890625 L 56.015625 113.890625 C 53.90625 114.027344 51.835938 113.285156 50.289062 111.84375 C 48.878906 110.296875 48.15625 108.242188 48.28125 106.152344 L 48.28125 93.742188 C 48.386719 92.441406 48.074219 91.140625 47.386719 90.03125 C 46.550781 89.152344 45.390625 88.667969 44.179688 88.6875 C 43.34375 88.71875 42.535156 88.398438 41.949219 87.800781 C 41.363281 87.203125 41.058594 86.386719 41.109375 85.554688 C 41.074219 84.75 41.363281 83.964844 41.910156 83.378906 C 42.519531 82.792969 43.335938 82.46875 44.179688 82.480469 C 45.386719 82.5 46.546875 82.015625 47.378906 81.140625 C 48.066406 80.03125 48.382812 78.730469 48.273438 77.429688 L 48.273438 65.019531 C 48.148438 62.925781 48.875 60.875 50.289062 59.328125 C 51.835938 57.882812 53.90625 57.144531 56.015625 57.277344 L 60.820312 57.277344 C 61.636719 57.25 62.433594 57.523438 63.058594 58.046875 C 64.253906 59.300781 64.253906 61.269531 63.058594 62.523438 C 62.433594 63.046875 61.636719 63.320312 60.820312 63.292969 L 58.769531 63.292969 C 58.035156 63.234375 57.308594 63.476562 56.753906 63.964844 C 56.253906 64.558594 56.015625 65.332031 56.082031 66.105469 L 56.082031 78.386719 C 56.140625 80.121094 55.613281 81.824219 54.578125 83.21875 C 53.726562 84.421875 52.464844 85.273438 51.027344 85.617188 C 52.457031 85.957031 53.714844 86.796875 54.578125 87.984375 C 55.613281 89.363281 56.144531 91.058594 56.082031 92.78125 L 56.082031 105.0625 C 56.015625 105.839844 56.253906 106.609375 56.753906 107.207031 C 57.308594 107.691406 58.035156 107.933594 58.769531 107.878906 L 60.820312 107.878906 C 61.632812 107.851562 62.429688 108.125 63.054688 108.644531 Z M 63.054688 108.644531 "/>
<path style=" stroke:none;fill-rule:nonzero;fill:rgb(98.039216%,45.882353%,61.960784%);fill-opacity:1;" d="M 103.324219 83.378906 C 103.871094 83.96875 104.15625 84.75 104.121094 85.554688 C 104.152344 86.359375 103.878906 87.148438 103.355469 87.757812 C 102.75 88.375 101.914062 88.710938 101.050781 88.6875 C 99.84375 88.667969 98.683594 89.15625 97.851562 90.03125 C 97.164062 91.140625 96.847656 92.441406 96.957031 93.742188 L 96.957031 106.152344 C 97.078125 108.242188 96.351562 110.296875 94.941406 111.84375 C 93.394531 113.285156 91.324219 114.027344 89.214844 113.890625 L 84.417969 113.890625 C 83.605469 113.917969 82.808594 113.644531 82.179688 113.125 C 80.988281 111.871094 80.988281 109.898438 82.179688 108.644531 C 82.808594 108.125 83.605469 107.851562 84.417969 107.878906 L 86.46875 107.878906 C 87.203125 107.933594 87.929688 107.691406 88.484375 107.207031 C 88.980469 106.609375 89.222656 105.839844 89.152344 105.0625 L 89.152344 92.78125 C 89.089844 91.058594 89.621094 89.363281 90.65625 87.984375 C 91.519531 86.796875 92.777344 85.957031 94.207031 85.617188 C 92.773438 85.273438 91.511719 84.421875 90.65625 83.21875 C 89.625 81.824219 89.09375 80.121094 89.152344 78.386719 L 89.152344 66.105469 C 89.222656 65.332031 88.980469 64.558594 88.480469 63.964844 C 87.929688 63.476562 87.203125 63.234375 86.46875 63.292969 L 84.417969 63.292969 C 83.605469 63.320312 82.808594 63.046875 82.179688 62.523438 C 80.988281 61.269531 80.988281 59.300781 82.179688 58.046875 C 82.808594 57.523438 83.605469 57.25 84.417969 57.277344 L 89.21875 57.277344 C 91.328125 57.144531 93.398438 57.882812 94.941406 59.324219 C 96.355469 60.875 97.082031 62.925781 96.957031 65.019531 L 96.957031 77.429688 C 96.851562 78.730469 97.164062 80.03125 97.855469 81.140625 C 98.683594 82.015625 99.84375 82.5 101.050781 82.480469 C 101.898438 82.472656 102.714844 82.792969 103.324219 83.378906 Z M 103.324219 83.378906 "/>
<path style=" stroke:none;fill-rule:nonzero;fill:rgb(100%,100%,100%);fill-opacity:1;" d="M 135.125 128.539062 L 10.113281 128.539062 C 7.523438 128.539062 5.425781 126.441406 5.425781 123.851562 L 5.425781 127.367188 C 5.425781 129.957031 7.523438 132.054688 10.113281 132.054688 L 135.125 132.054688 C 137.710938 132.054688 139.8125 129.957031 139.8125 127.367188 L 139.8125 123.851562 C 139.8125 126.441406 137.710938 128.539062 135.125 128.539062 Z M 135.125 128.539062 "/>
<path style=" stroke:none;fill-rule:nonzero;fill:rgb(42.745098%,78.823529%,96.862745%);fill-opacity:1;" d="M 61.023438 20.46875 L 58.007812 16.101562 C 56.609375 14.082031 54.308594 12.875 51.851562 12.875 L 10.113281 12.875 C 7.523438 12.875 5.425781 14.976562 5.425781 17.5625 L 5.425781 38.671875 L 139.8125 38.671875 L 139.8125 28.382812 C 139.8125 25.792969 137.710938 23.695312 135.125 23.695312 L 67.179688 23.695312 C 64.722656 23.695312 62.421875 22.488281 61.023438 20.46875 Z M 61.023438 20.46875 "/>
<path style=" stroke:none;fill-rule:nonzero;fill:rgb(22.745098%,17.254902%,37.647059%);fill-opacity:1;" d="M 55.507812 83.933594 C 56.699219 82.335938 57.3125 80.378906 57.253906 78.386719 L 57.253906 66.105469 C 57.207031 65.644531 57.320312 65.175781 57.582031 64.792969 C 57.925781 64.542969 58.347656 64.429688 58.769531 64.464844 L 60.820312 64.464844 C 61.917969 64.492188 62.984375 64.117188 63.824219 63.410156 C 64.65625 62.582031 65.125 61.457031 65.125 60.28125 C 65.125 59.105469 64.65625 57.980469 63.824219 57.152344 C 62.984375 56.445312 61.917969 56.070312 60.820312 56.097656 L 56.015625 56.097656 C 53.589844 55.957031 51.21875 56.828125 49.453125 58.492188 C 47.824219 60.265625 46.980469 62.617188 47.109375 65.019531 L 47.109375 77.429688 C 47.21875 78.46875 46.992188 79.515625 46.460938 80.421875 C 45.824219 80.996094 44.996094 81.3125 44.136719 81.3125 C 42.988281 81.308594 41.890625 81.761719 41.074219 82.566406 C 40.3125 83.371094 39.90625 84.445312 39.945312 85.554688 C 39.894531 86.679688 40.3125 87.78125 41.09375 88.59375 C 41.878906 89.40625 42.960938 89.863281 44.089844 89.855469 C 44.964844 89.847656 45.8125 90.167969 46.460938 90.75 C 46.992188 91.652344 47.21875 92.699219 47.109375 93.742188 L 47.109375 106.152344 C 46.984375 108.550781 47.828125 110.898438 49.453125 112.667969 C 51.21875 114.332031 53.589844 115.199219 56.015625 115.0625 L 60.820312 115.0625 C 61.917969 115.089844 62.984375 114.714844 63.824219 114.007812 C 64.65625 113.179688 65.125 112.054688 65.125 110.878906 C 65.125 109.703125 64.65625 108.578125 63.824219 107.75 C 62.984375 107.046875 61.917969 106.671875 60.820312 106.703125 L 58.769531 106.703125 C 58.347656 106.738281 57.925781 106.621094 57.582031 106.375 C 57.320312 105.988281 57.207031 105.523438 57.253906 105.058594 L 57.253906 92.78125 C 57.316406 90.796875 56.695312 88.847656 55.496094 87.261719 C 55.015625 86.636719 54.445312 86.082031 53.808594 85.613281 C 54.453125 85.136719 55.023438 84.570312 55.507812 83.933594 Z M 50.777344 86.761719 C 51.941406 87.042969 52.960938 87.738281 53.65625 88.710938 C 54.53125 89.882812 54.976562 91.324219 54.910156 92.785156 L 54.910156 105.066406 C 54.835938 106.15625 55.203125 107.226562 55.925781 108.039062 C 56.695312 108.75 57.722656 109.117188 58.769531 109.054688 L 60.820312 109.054688 C 61.355469 109.027344 61.882812 109.203125 62.296875 109.542969 C 62.941406 110.324219 62.941406 111.453125 62.296875 112.234375 C 61.882812 112.574219 61.355469 112.746094 60.820312 112.722656 L 56.015625 112.722656 C 54.222656 112.855469 52.449219 112.242188 51.125 111.023438 C 49.929688 109.695312 49.328125 107.9375 49.453125 106.152344 L 49.453125 93.742188 C 49.574219 92.179688 49.171875 90.621094 48.3125 89.3125 C 47.269531 88.160156 45.789062 87.511719 44.238281 87.515625 C 43.695312 87.539062 43.167969 87.335938 42.777344 86.960938 C 42.4375 86.574219 42.261719 86.070312 42.289062 85.554688 C 42.253906 85.058594 42.421875 84.566406 42.757812 84.195312 C 43.175781 83.820312 43.722656 83.628906 44.28125 83.65625 C 45.816406 83.652344 47.28125 83 48.308594 81.863281 C 49.167969 80.550781 49.570312 78.992188 49.449219 77.429688 L 49.449219 65.019531 C 49.328125 63.234375 49.933594 61.476562 51.128906 60.148438 C 52.453125 58.929688 54.222656 58.316406 56.015625 58.449219 L 60.820312 58.449219 C 61.355469 58.425781 61.878906 58.597656 62.296875 58.9375 C 62.941406 59.71875 62.941406 60.847656 62.296875 61.632812 C 61.878906 61.96875 61.355469 62.144531 60.820312 62.117188 L 58.769531 62.117188 C 57.726562 62.054688 56.699219 62.421875 55.925781 63.132812 C 55.203125 63.945312 54.835938 65.015625 54.910156 66.105469 L 54.910156 78.386719 C 54.972656 79.859375 54.527344 81.3125 53.652344 82.5 C 52.964844 83.484375 51.945312 84.183594 50.777344 84.46875 C 50.242188 84.585938 49.855469 85.0625 49.855469 85.613281 C 49.855469 86.164062 50.242188 86.640625 50.777344 86.757812 Z M 50.777344 86.761719 "/>
<path style=" stroke:none;fill-rule:nonzero;fill:rgb(22.745098%,17.254902%,37.647059%);fill-opacity:1;" d="M 89.734375 87.261719 C 88.539062 88.847656 87.917969 90.796875 87.980469 92.78125 L 87.980469 105.0625 C 88.03125 105.527344 87.914062 105.992188 87.652344 106.378906 C 87.308594 106.625 86.886719 106.742188 86.464844 106.707031 L 84.417969 106.707031 C 83.324219 106.675781 82.257812 107.050781 81.417969 107.753906 C 80.582031 108.582031 80.113281 109.707031 80.113281 110.882812 C 80.113281 112.058594 80.582031 113.1875 81.417969 114.011719 C 82.257812 114.722656 83.324219 115.097656 84.421875 115.066406 L 89.21875 115.066406 C 91.640625 115.203125 94.015625 114.335938 95.78125 112.671875 C 97.40625 110.902344 98.25 108.554688 98.125 106.15625 L 98.125 93.742188 C 98.015625 92.699219 98.242188 91.652344 98.773438 90.75 C 99.410156 90.175781 100.238281 89.855469 101.097656 89.859375 C 102.277344 89.875 103.414062 89.394531 104.226562 88.539062 C 104.945312 87.710938 105.324219 86.644531 105.289062 85.554688 C 105.328125 84.449219 104.921875 83.371094 104.164062 82.566406 C 103.359375 81.773438 102.277344 81.324219 101.148438 81.320312 C 100.273438 81.328125 99.425781 81.007812 98.777344 80.421875 C 98.246094 79.519531 98.019531 78.472656 98.125 77.433594 L 98.125 65.019531 C 98.253906 62.617188 97.40625 60.269531 95.777344 58.503906 C 94.011719 56.835938 91.636719 55.96875 89.214844 56.105469 L 84.417969 56.105469 C 83.324219 56.078125 82.257812 56.453125 81.417969 57.160156 C 80.582031 57.988281 80.113281 59.113281 80.113281 60.289062 C 80.113281 61.464844 80.582031 62.59375 81.417969 63.417969 C 82.257812 64.128906 83.324219 64.503906 84.421875 64.472656 L 86.46875 64.472656 C 86.890625 64.4375 87.3125 64.554688 87.65625 64.800781 C 87.917969 65.1875 88.03125 65.652344 87.984375 66.117188 L 87.984375 78.398438 C 87.921875 80.390625 88.539062 82.34375 89.730469 83.945312 C 90.210938 84.582031 90.78125 85.148438 91.425781 85.625 C 90.789062 86.085938 90.21875 86.640625 89.734375 87.261719 Z M 94.457031 84.472656 C 93.289062 84.1875 92.269531 83.484375 91.585938 82.5 C 90.710938 81.3125 90.265625 79.859375 90.324219 78.386719 L 90.324219 66.105469 C 90.402344 65.019531 90.035156 63.949219 89.3125 63.132812 C 88.539062 62.425781 87.511719 62.058594 86.464844 62.121094 L 84.417969 62.121094 C 83.882812 62.144531 83.359375 61.972656 82.941406 61.632812 C 82.292969 60.851562 82.292969 59.71875 82.941406 58.9375 C 83.359375 58.601562 83.882812 58.425781 84.417969 58.453125 L 89.214844 58.453125 C 91.011719 58.320312 92.78125 58.933594 94.105469 60.148438 C 95.304688 61.480469 95.90625 63.238281 95.785156 65.019531 L 95.785156 77.429688 C 95.664062 78.992188 96.066406 80.550781 96.925781 81.863281 C 97.96875 83.007812 99.449219 83.660156 101 83.65625 C 101.542969 83.636719 102.074219 83.828125 102.476562 84.191406 C 102.808594 84.566406 102.976562 85.054688 102.945312 85.554688 C 103.011719 86.097656 102.820312 86.640625 102.429688 87.027344 C 102.042969 87.410156 101.496094 87.59375 100.953125 87.523438 C 99.417969 87.523438 97.953125 88.171875 96.925781 89.3125 C 96.066406 90.625 95.664062 92.183594 95.78125 93.746094 L 95.78125 106.15625 C 95.90625 107.9375 95.300781 109.695312 94.105469 111.023438 C 92.78125 112.242188 91.011719 112.855469 89.214844 112.722656 L 84.417969 112.722656 C 83.882812 112.746094 83.359375 112.574219 82.941406 112.238281 C 82.292969 111.453125 82.292969 110.324219 82.941406 109.542969 C 83.359375 109.203125 83.882812 109.03125 84.417969 109.054688 L 86.464844 109.054688 C 87.511719 109.117188 88.539062 108.75 89.308594 108.042969 C 90.035156 107.226562 90.402344 106.15625 90.324219 105.070312 L 90.324219 92.78125 C 90.261719 91.320312 90.703125 89.878906 91.578125 88.707031 C 92.273438 87.734375 93.292969 87.042969 94.453125 86.761719 C 94.992188 86.644531 95.375 86.167969 95.375 85.617188 C 95.375 85.066406 94.992188 84.589844 94.453125 84.472656 Z M 94.457031 84.472656 "/>
<path style=" stroke:none;fill-rule:nonzero;fill:rgb(22.745098%,17.254902%,37.647059%);fill-opacity:1;" d="M 139.8125 85.839844 C 139.164062 85.839844 138.640625 86.363281 138.640625 87.011719 L 138.640625 101.367188 C 138.640625 102.015625 139.164062 102.539062 139.8125 102.539062 C 140.457031 102.539062 140.984375 102.015625 140.984375 101.367188 L 140.984375 87.011719 C 140.984375 86.363281 140.457031 85.839844 139.8125 85.839844 Z M 139.8125 85.839844 "/>
<path style=" stroke:none;fill-rule:nonzero;fill:rgb(22.745098%,17.254902%,37.647059%);fill-opacity:1;" d="M 135.125 22.523438 L 67.179688 22.523438 C 65.109375 22.519531 63.171875 21.507812 61.992188 19.804688 L 58.972656 15.4375 C 57.351562 13.101562 54.6875 11.703125 51.84375 11.703125 L 10.113281 11.703125 C 6.878906 11.707031 4.257812 14.328125 4.253906 17.5625 L 4.253906 127.367188 C 4.257812 130.601562 6.878906 133.222656 10.113281 133.226562 L 135.125 133.226562 C 138.359375 133.222656 140.980469 130.601562 140.984375 127.367188 L 140.984375 106.835938 C 140.984375 106.1875 140.457031 105.664062 139.8125 105.664062 C 139.164062 105.664062 138.640625 106.1875 138.640625 106.835938 L 138.640625 127.367188 C 138.640625 129.308594 137.066406 130.882812 135.125 130.882812 L 10.113281 130.882812 C 8.171875 130.882812 6.597656 129.308594 6.597656 127.367188 L 6.597656 39.84375 L 138.640625 39.84375 L 138.640625 81.152344 C 138.640625 81.800781 139.164062 82.324219 139.8125 82.324219 C 140.457031 82.324219 140.984375 81.800781 140.984375 81.152344 L 140.984375 28.382812 C 140.980469 25.148438 138.359375 22.527344 135.125 22.523438 Z M 6.597656 17.5625 C 6.597656 15.621094 8.171875 14.046875 10.113281 14.046875 L 51.84375 14.046875 C 53.917969 14.046875 55.859375 15.066406 57.039062 16.769531 L 60.058594 21.132812 C 61.679688 23.472656 64.339844 24.867188 67.179688 24.867188 L 135.125 24.867188 C 137.066406 24.867188 138.640625 26.441406 138.640625 28.382812 L 138.640625 37.5 L 6.597656 37.5 Z M 6.597656 17.5625 "/>
<path style=" stroke:none;fill-rule:nonzero;fill:rgb(100%,100%,100%);fill-opacity:1;" d="M 50.984375 26.269531 C 50.984375 28.375 49.273438 30.085938 47.167969 30.085938 C 45.058594 30.085938 43.351562 28.375 43.351562 26.269531 C 43.351562 24.160156 45.058594 22.453125 47.167969 22.453125 C 49.273438 22.453125 50.984375 24.160156 50.984375 26.269531 Z M 50.984375 26.269531 "/>
<path style=" stroke:none;fill-rule:nonzero;fill:rgb(83.137255%,98.431373%,100%);fill-opacity:1;" d="M 37.117188 26.269531 C 37.117188 28.375 35.410156 30.085938 33.300781 30.085938 C 31.191406 30.085938 29.484375 28.375 29.484375 26.269531 C 29.484375 24.160156 31.191406 22.453125 33.300781 22.453125 C 35.410156 22.453125 37.117188 24.160156 37.117188 26.269531 Z M 37.117188 26.269531 "/>
<path style=" stroke:none;fill-rule:nonzero;fill:rgb(98.039216%,45.882353%,61.960784%);fill-opacity:1;" d="M 23.253906 26.269531 C 23.253906 28.375 21.542969 30.085938 19.4375 30.085938 C 17.328125 30.085938 15.621094 28.375 15.621094 26.269531 C 15.621094 24.160156 17.328125 22.453125 19.4375 22.453125 C 21.542969 22.453125 23.253906 24.160156 23.253906 26.269531 Z M 23.253906 26.269531 "/>
</g>
</svg>
