<svg id="Layer_1" enable-background="new 0 0 512.001 512.001" height="512" viewBox="0 0 512.001 512.001" width="512" xmlns="http://www.w3.org/2000/svg"><g><g clip-rule="evenodd" fill-rule="evenodd"><path d="m419.02 75.838-45.02-1.338 37-46.999 71 26-7 24z" fill="#99ebfa"/><path d="m374 74.5 45.02 1.338 41.98 125.163-95 156.5 4.479-158.436z" fill="#33d6f5"/><path d="m366 357.501 95-156.5 41 31.5-37.8 34.743z" fill="#99ebfa"/><path d="m502 297.001-37.8-29.757 37.8-34.743z" fill="#33d6f5"/><path d="m354.346 431.764 79.404 52.737h-110.5z" fill="#99ebfa"/><path d="m366 412.002-11.654 19.762-31.096 52.737-81.001-158.499 123.751 31.499z" fill="#33d6f5"/><path d="m366 357.501-123.751-31.499 128.23-126.937z" fill="#99ebfa"/><path d="m370.479 199.065-128.23 126.937-232.248-98.5z" fill="#33d6f5"/></g><g><path d="m508.093 224.571-38.582-29.643-36.449-108.668 41.641 1.237c4.564.144 8.621-2.824 9.897-7.196l7-24c1.473-5.051-1.221-10.381-6.162-12.19l-71-26c-4.059-1.487-8.619-.195-11.296 3.205l-37 47c-1.328 1.687-2.078 3.757-2.139 5.903l-3.267 115.585-351.521 27.729c-4.594.362-8.345 3.816-9.084 8.364-.74 4.548 1.724 9.012 5.966 10.811l228.902 97.081 79.347 155.262c1.709 3.345 5.148 5.449 8.904 5.449h110.5c4.41 0 8.299-2.889 9.573-7.11 1.274-4.222-.367-8.78-4.041-11.22l-71.507-47.492 6.839-11.597c.907-1.539 1.386-3.293 1.386-5.08v-50.111l88.701-81.526 31.114 24.493c1.798 1.415 3.983 2.143 6.187 2.143 1.485 0 2.979-.331 4.366-1.004 3.445-1.673 5.633-5.166 5.633-8.996v-64.5c0-3.106-1.445-6.036-3.908-7.929zm-96.98 77.884 52.645-86.726 22.721 17.456zm3.258-263.07 55.411 20.291-2.217 7.6-73.434-2.182zm-2.616 46.242 38.289 114.152-72.98 120.223 6.649-235.209zm-67.733 125.557-16.245 16.081c-3.925 3.886-3.957 10.217-.071 14.142 1.955 1.976 4.53 2.965 7.106 2.965 2.542 0 5.086-.963 7.035-2.893l17.93-17.749-3.42 120.998-94.508-24.056 16.041-15.879c3.925-3.886 3.957-10.217.071-14.142-3.885-3.925-10.218-3.957-14.142-.072l-23.839 23.599-188.442-79.921zm-82.801 129.966 94.779 24.124v43.999l-32.124 54.478zm139.397 133.35h-59.862l16.847-28.569zm79-207.845 12.383-11.381v21.128z"/><path d="m302.832 276.031h.007c5.522 0 9.996-4.477 9.996-10s-4.48-10-10.003-10-10 4.477-10 10 4.477 10 10 10z"/></g></g></svg>