<?xml version="1.0"?>
<svg xmlns="http://www.w3.org/2000/svg" xmlns:xlink="http://www.w3.org/1999/xlink" xmlns:svgjs="http://svgjs.com/svgjs" version="1.1" width="512" height="512" x="0" y="0" viewBox="0 0 512 512" style="enable-background:new 0 0 512 512" xml:space="preserve" class=""><g><g xmlns="http://www.w3.org/2000/svg"><g><path d="m467.362 0h-59.91c-42.772 0-77.445 34.673-77.445 77.445 0 42.771 34.673 77.445 77.445 77.445 42.772 0 77.445-34.673 77.445-77.445v-59.91c0-9.684-7.851-17.535-17.535-17.535z" fill="#e7cecb" data-original="#ffd7d1" style="" class=""/></g><g><path d="m386.679 2.841c-32.679 9.081-56.672 39.031-56.672 74.604 0 42.772 34.673 77.445 77.445 77.445 23.91 0 45.282-10.841 59.488-27.869-11.462-50.279-40.491-93.942-80.261-124.18z" fill="#ffc6c2" data-original="#ffc6c2" style="" class=""/></g><g><path d="m407.452 113.683c-19.981 0-36.237-16.256-36.237-36.237 0-19.982 16.256-36.238 36.237-36.238h36.238v36.238c0 19.981-16.256 36.237-36.238 36.237z" fill="#ffa8ad" data-original="#ffa8ad" style="" class=""/></g><g><path d="m44.638 0h59.91c42.772 0 77.445 34.673 77.445 77.445 0 42.771-34.673 77.445-77.445 77.445-42.772 0-77.445-34.673-77.445-77.445v-59.91c0-9.684 7.851-17.535 17.535-17.535z" fill="#e7cecb" data-original="#ffd7d1" style="" class=""/></g><g><path d="m125.321 2.841c32.679 9.081 56.672 39.031 56.672 74.604 0 42.772-34.673 77.445-77.445 77.445-23.91 0-45.282-10.841-59.488-27.869 11.462-50.279 40.491-93.942 80.261-124.18z" fill="#ffc6c2" data-original="#ffc6c2" style="" class=""/></g><g><path d="m104.548 113.683c19.981 0 36.237-16.256 36.237-36.237 0-19.982-16.256-36.238-36.237-36.238h-36.238v36.238c0 19.981 16.256 36.237 36.238 36.237z" fill="#ffa8ad" data-original="#ffa8ad" style="" class=""/></g><g><path d="m428.324 266.423h-344.448s-22.818 65.876-22.818 90.337 62.783 73.384 195.042 73.384 195.042-48.923 195.042-73.384c.001-24.461-22.818-90.337-22.818-90.337z" fill="#19171a" data-original="#e0b8ff" style="" class=""/></g><g><path d="m116.673 402.108c-4.142 0-7.5-3.358-7.5-7.5v-109.303c0-4.142 3.358-7.5 7.5-7.5s7.5 3.358 7.5 7.5v109.303c0 4.142-3.358 7.5-7.5 7.5z" fill="#dce1eb" data-original="#dce1eb" style="" class=""/></g><g><path d="m256.002 0c-96.722 0-175.131 78.409-175.131 175.131v76.356h350.262v-76.356c-.001-96.722-78.409-175.131-175.131-175.131z" fill="#abf5f5" data-original="#e9edf5" style="" class=""/></g><g><path d="m256 41.511c-11.463 0-20.755-9.293-20.755-20.755 0-11.463 9.292-20.756 20.754-20.756-96.721.001-175.128 78.409-175.128 175.131v76.356h175.129z" fill="#dce1eb" data-original="#dce1eb" style="" class=""/></g><g><circle cx="443.69" cy="250.984" fill="#abf5f5" r="41.207" data-original="#e9edf5" style="" class=""/></g><g><circle cx="68.311" cy="250.984" fill="#abf5f5" r="41.207" data-original="#e9edf5" style="" class=""/></g><g><path d="m80.633 305.157h52.761v-108.346h-52.761c-5.69 0-10.302 4.612-10.302 10.302v87.741c0 5.69 4.612 10.303 10.302 10.303z" fill="#f2f6fc" data-original="#f2f6fc" style="" class=""/></g><g><path d="m433.387 305.157h-52.761v-108.346h52.761c5.69 0 10.302 4.612 10.302 10.302v87.741c0 5.69-4.613 10.303-10.302 10.303z" fill="#f2f6fc" data-original="#f2f6fc" style="" class=""/></g><g><path d="m106.622 190.887v60.095h298.753v-60.095c0-82.498-66.878-149.376-149.376-149.376-82.499 0-149.377 66.878-149.377 149.376z" fill="#ebccff" data-original="#ebccff" style="" class=""/></g><g><path d="m106.622 190.887v60.095h53.238v-22.782c0-119.442 96.138-186.69 96.138-186.69-82.498.001-149.376 66.879-149.376 149.377z" fill="#19171a" data-original="#e0b8ff" style="" class=""/></g><g><path d="m324.77 407.93h-137.543c-27.212 18.018-46.947 46.421-53.551 79.56-2.53 12.696 7.29 24.511 20.235 24.511h204.173c12.945 0 22.765-11.815 20.235-24.511-6.602-33.14-26.338-61.542-53.549-79.56z" fill="#ffc6c2" data-original="#ffc6c2" style="" class=""/></g><g><path d="m187.229 407.93c-27.212 18.018-46.947 46.421-53.551 79.56-2.53 12.696 7.29 24.511 20.235 24.511h36.14c0-43.476 22.249-81.747 55.978-104.07h-58.802z" fill="#ffa8ad" data-original="#ffa8ad" style="" class=""/></g><g><path d="m256 387.271c-25.416 0-49.054 7.604-68.769 20.659 9.209 29.224 36.503 50.424 68.769 50.424s59.564-21.2 68.772-50.424c-19.715-13.055-43.355-20.659-68.772-20.659z" fill="#ffdecf" data-original="#ffdecf" style="" class=""/></g><g><path d="m256 387.271c-25.416 0-49.054 7.604-68.769 20.658v.001c4.362 13.842 12.786 25.878 23.869 34.72 17.14-25.569 43.488-44.447 74.298-51.888-9.427-2.279-19.271-3.491-29.398-3.491z" fill="#ffcdbe" data-original="#ffcdbe" style="" class=""/></g><g><path d="m255.998 125.743s-27.554 86.18-149.376 125.238c0 82.498 66.878 149.376 149.376 149.376s149.376-66.878 149.376-149.376c-121.822-39.058-149.376-125.238-149.376-125.238z" fill="#ffeee5" data-original="#ffeee5" style="" class=""/></g><g><path d="m158.131 250.981c0-7.746.592-15.353 1.729-22.781-15.349 8.486-32.984 16.287-53.238 22.781 0 82.498 66.878 149.376 149.376 149.376 8.783 0 17.387-.765 25.755-2.219-70.224-12.205-123.622-73.442-123.622-147.157z" fill="#ffdecf" data-original="#ffdecf" style="" class=""/></g><g><path d="m397.331 344.076h-61.811c-17.069 0-30.905 13.837-30.905 30.905 0 17.069 13.837 30.905 30.905 30.905h61.811c17.069 0 30.905-13.837 30.905-30.905.001-17.068-13.836-30.905-30.905-30.905z" fill="#dce1eb" data-original="#dce1eb" style="" class=""/></g><g><path d="m304.615 374.982h123.622v82.414h-123.622z" fill="#abf5f5" data-original="#e9edf5" style="" class=""/></g><g><path d="m429.029 374.988c25.418.424 45.566 21.693 45.566 47.115v66.718c0 12.801-10.378 23.179-23.179 23.179-12.801 0-23.179-10.378-23.179-23.179v-.92c0-10.41-6.625-19.499-16.365-23.174-17.527-6.614-29.994-23.545-29.994-43.387.001-25.867 21.186-46.785 47.151-46.352z" fill="#f2f6fc" data-original="#f2f6fc" style="" class=""/></g><g><path d="m303.822 374.988c-25.418.424-45.566 21.693-45.566 47.115v66.718c0 12.801 10.378 23.179 23.179 23.179 12.801 0 23.179-10.378 23.179-23.179v-.92c0-10.41 6.625-19.499 16.365-23.174 17.527-6.614 29.994-23.545 29.994-43.387 0-25.867-21.185-46.785-47.151-46.352z" fill="#f2f6fc" data-original="#f2f6fc" style="" class=""/></g><g><g><g><ellipse cx="173.951" cy="291.125" fill="#ffa1ac" rx="30.274" ry="24.109" data-original="#ffa1ac" style="" class=""/></g><g><ellipse cx="338.049" cy="291.125" fill="#ffa1ac" rx="30.274" ry="24.109" data-original="#ffa1ac" style="" class=""/></g><g><path d="m280.409 272.601c0-15.085-10.928-16.502-24.409-16.502s-24.409 1.417-24.409 16.502 10.928 27.313 24.409 27.313 24.409-12.228 24.409-27.313z" fill="#495560" data-original="#495560" style="" class=""/></g></g><g><path d="m179.013 269.842c-4.142 0-7.5-3.358-7.5-7.5v-12.362c0-4.142 3.358-7.5 7.5-7.5s7.5 3.358 7.5 7.5v12.362c0 4.142-3.358 7.5-7.5 7.5z" fill="#495560" data-original="#495560" style="" class=""/></g><g><path d="m332.988 269.842c-4.142 0-7.5-3.358-7.5-7.5v-12.362c0-4.142 3.358-7.5 7.5-7.5s7.5 3.358 7.5 7.5v12.362c0 4.142-3.358 7.5-7.5 7.5z" fill="#495560" data-original="#495560" style="" class=""/></g></g><g><circle cx="116.673" cy="395.585" fill="#abf5f5" r="20.604" data-original="#e9edf5" style="" class=""/></g><g fill="#cdd2e1"><path d="m320.068 413.84h-7.953v-7.953c0-4.142-3.358-7.5-7.5-7.5s-7.5 3.358-7.5 7.5v7.953h-7.953c-4.142 0-7.5 3.358-7.5 7.5s3.358 7.5 7.5 7.5h7.953v7.953c0 4.142 3.358 7.5 7.5 7.5s7.5-3.358 7.5-7.5v-7.953h7.953c4.142 0 7.5-3.358 7.5-7.5s-3.358-7.5-7.5-7.5z" fill="#cdd2e1" data-original="#cdd2e1" style="" class=""/><path d="m443.689 413.84h-7.953v-7.953c0-4.142-3.358-7.5-7.5-7.5s-7.5 3.358-7.5 7.5v7.953h-7.953c-4.142 0-7.5 3.358-7.5 7.5s3.358 7.5 7.5 7.5h7.953v7.953c0 4.142 3.358 7.5 7.5 7.5s7.5-3.358 7.5-7.5v-7.953h7.953c4.142 0 7.5-3.358 7.5-7.5s-3.357-7.5-7.5-7.5z" fill="#cdd2e1" data-original="#cdd2e1" style="" class=""/></g></g></g></svg>
