<?xml version="1.0" encoding="UTF-8"?>
<svg xmlns="http://www.w3.org/2000/svg" xmlns:xlink="http://www.w3.org/1999/xlink" width="150px" height="150px" viewBox="0 0 150 150" version="1.1">
<g id="surface1">
<path style=" stroke:none;fill-rule:nonzero;fill:rgb(90.588235%,80.784314%,79.607843%);fill-opacity:1;" d="M 136.921875 0 L 119.371094 0 C 106.839844 0 96.679688 10.15625 96.679688 22.6875 C 96.679688 35.21875 106.839844 45.378906 119.371094 45.378906 C 131.902344 45.378906 142.0625 35.21875 142.0625 22.6875 L 142.0625 5.136719 C 142.0625 2.300781 139.757812 0 136.921875 0 Z M 136.921875 0 "/>
<path style=" stroke:none;fill-rule:nonzero;fill:rgb(100%,77.647059%,76.078431%);fill-opacity:1;" d="M 113.285156 0.832031 C 103.710938 3.492188 96.679688 12.265625 96.679688 22.6875 C 96.679688 35.21875 106.839844 45.375 119.371094 45.375 C 126.375 45.375 132.636719 42.203125 136.796875 37.210938 C 133.441406 22.484375 124.9375 9.691406 113.285156 0.832031 Z M 113.285156 0.832031 "/>
<path style=" stroke:none;fill-rule:nonzero;fill:rgb(100%,65.882353%,67.843137%);fill-opacity:1;" d="M 119.371094 33.304688 C 113.515625 33.304688 108.753906 28.542969 108.753906 22.6875 C 108.753906 16.835938 113.515625 12.070312 119.371094 12.070312 L 129.988281 12.070312 L 129.988281 22.6875 C 129.988281 28.542969 125.226562 33.304688 119.371094 33.304688 Z M 119.371094 33.304688 "/>
<path style=" stroke:none;fill-rule:nonzero;fill:rgb(90.588235%,80.784314%,79.607843%);fill-opacity:1;" d="M 13.078125 0 L 30.628906 0 C 43.160156 0 53.320312 10.15625 53.320312 22.6875 C 53.320312 35.21875 43.160156 45.378906 30.628906 45.378906 C 18.097656 45.378906 7.9375 35.21875 7.9375 22.6875 L 7.9375 5.136719 C 7.9375 2.300781 10.242188 0 13.078125 0 Z M 13.078125 0 "/>
<path style=" stroke:none;fill-rule:nonzero;fill:rgb(100%,77.647059%,76.078431%);fill-opacity:1;" d="M 36.714844 0.832031 C 46.289062 3.492188 53.320312 12.265625 53.320312 22.6875 C 53.320312 35.21875 43.160156 45.375 30.628906 45.375 C 23.625 45.375 17.363281 42.203125 13.203125 37.210938 C 16.558594 22.484375 25.0625 9.691406 36.714844 0.832031 Z M 36.714844 0.832031 "/>
<path style=" stroke:none;fill-rule:nonzero;fill:rgb(100%,65.882353%,67.843137%);fill-opacity:1;" d="M 30.628906 33.304688 C 36.484375 33.304688 41.246094 28.542969 41.246094 22.6875 C 41.246094 16.835938 36.484375 12.070312 30.628906 12.070312 L 20.011719 12.070312 L 20.011719 22.6875 C 20.011719 28.542969 24.773438 33.304688 30.628906 33.304688 Z M 30.628906 33.304688 "/>
<path style=" stroke:none;fill-rule:nonzero;fill:rgb(9.803922%,9.019608%,10.196078%);fill-opacity:1;" d="M 125.484375 78.054688 L 24.570312 78.054688 C 24.570312 78.054688 17.890625 97.351562 17.890625 104.519531 C 17.890625 111.6875 36.28125 126.019531 75.03125 126.019531 C 113.777344 126.019531 132.171875 111.6875 132.171875 104.519531 C 132.171875 97.351562 125.484375 78.054688 125.484375 78.054688 Z M 125.484375 78.054688 "/>
<path style=" stroke:none;fill-rule:nonzero;fill:rgb(86.27451%,88.235294%,92.156863%);fill-opacity:1;" d="M 34.179688 117.804688 C 32.96875 117.804688 31.984375 116.820312 31.984375 115.609375 L 31.984375 83.585938 C 31.984375 82.371094 32.96875 81.390625 34.179688 81.390625 C 35.394531 81.390625 36.378906 82.371094 36.378906 83.585938 L 36.378906 115.609375 C 36.378906 116.820312 35.394531 117.804688 34.179688 117.804688 Z M 34.179688 117.804688 "/>
<path style=" stroke:none;fill-rule:nonzero;fill:rgb(67.058824%,96.078431%,96.078431%);fill-opacity:1;" d="M 75 0 C 46.664062 0 23.695312 22.96875 23.695312 51.308594 L 23.695312 73.679688 L 126.308594 73.679688 L 126.308594 51.308594 C 126.308594 22.96875 103.335938 0 75 0 Z M 75 0 "/>
<path style=" stroke:none;fill-rule:nonzero;fill:rgb(86.27451%,88.235294%,92.156863%);fill-opacity:1;" d="M 75 12.164062 C 71.640625 12.164062 68.921875 9.4375 68.921875 6.078125 C 68.921875 2.722656 71.640625 0 75 0 C 46.664062 0 23.695312 22.96875 23.695312 51.308594 L 23.695312 73.679688 L 75 73.679688 Z M 75 12.164062 "/>
<path style=" stroke:none;fill-rule:nonzero;fill:rgb(67.058824%,96.078431%,96.078431%);fill-opacity:1;" d="M 142.0625 73.53125 C 142.0625 80.195312 136.65625 85.601562 129.988281 85.601562 C 123.320312 85.601562 117.914062 80.195312 117.914062 73.53125 C 117.914062 66.863281 123.320312 61.460938 129.988281 61.460938 C 136.65625 61.460938 142.0625 66.863281 142.0625 73.53125 Z M 142.0625 73.53125 "/>
<path style=" stroke:none;fill-rule:nonzero;fill:rgb(67.058824%,96.078431%,96.078431%);fill-opacity:1;" d="M 32.085938 73.53125 C 32.085938 80.195312 26.679688 85.601562 20.015625 85.601562 C 13.34375 85.601562 7.941406 80.195312 7.941406 73.53125 C 7.941406 66.863281 13.34375 61.460938 20.015625 61.460938 C 26.679688 61.460938 32.085938 66.863281 32.085938 73.53125 Z M 32.085938 73.53125 "/>
<path style=" stroke:none;fill-rule:nonzero;fill:rgb(94.901961%,96.470588%,98.823529%);fill-opacity:1;" d="M 23.625 89.402344 L 39.078125 89.402344 L 39.078125 57.660156 L 23.625 57.660156 C 21.953125 57.660156 20.605469 59.007812 20.605469 60.679688 L 20.605469 86.382812 C 20.605469 88.050781 21.953125 89.402344 23.625 89.402344 Z M 23.625 89.402344 "/>
<path style=" stroke:none;fill-rule:nonzero;fill:rgb(94.901961%,96.470588%,98.823529%);fill-opacity:1;" d="M 126.96875 89.402344 L 111.511719 89.402344 L 111.511719 57.660156 L 126.96875 57.660156 C 128.636719 57.660156 129.984375 59.007812 129.984375 60.679688 L 129.984375 86.382812 C 129.984375 88.050781 128.632812 89.402344 126.96875 89.402344 Z M 126.96875 89.402344 "/>
<path style=" stroke:none;fill-rule:nonzero;fill:rgb(92.156863%,80%,100%);fill-opacity:1;" d="M 31.234375 55.921875 L 31.234375 73.53125 L 118.761719 73.53125 L 118.761719 55.921875 C 118.761719 31.753906 99.171875 12.164062 75 12.164062 C 50.828125 12.164062 31.234375 31.753906 31.234375 55.921875 Z M 31.234375 55.921875 "/>
<path style=" stroke:none;fill-rule:nonzero;fill:rgb(9.803922%,9.019608%,10.196078%);fill-opacity:1;" d="M 31.234375 55.921875 L 31.234375 73.53125 L 46.835938 73.53125 L 46.835938 66.855469 C 46.835938 31.863281 75 12.164062 75 12.164062 C 50.828125 12.164062 31.234375 31.753906 31.234375 55.921875 Z M 31.234375 55.921875 "/>
<path style=" stroke:none;fill-rule:nonzero;fill:rgb(100%,77.647059%,76.078431%);fill-opacity:1;" d="M 95.148438 119.507812 L 54.851562 119.507812 C 46.878906 124.789062 41.097656 133.109375 39.164062 142.820312 C 38.421875 146.539062 41.296875 150 45.09375 150 L 104.90625 150 C 108.699219 150 111.578125 146.539062 110.835938 142.820312 C 108.902344 133.109375 103.117188 124.789062 95.148438 119.507812 Z M 95.148438 119.507812 "/>
<path style=" stroke:none;fill-rule:nonzero;fill:rgb(100%,65.882353%,67.843137%);fill-opacity:1;" d="M 54.851562 119.507812 C 46.882812 124.789062 41.097656 133.109375 39.164062 142.820312 C 38.421875 146.539062 41.296875 150 45.09375 150 L 55.679688 150 C 55.679688 137.265625 62.195312 126.050781 72.078125 119.511719 L 54.851562 119.511719 Z M 54.851562 119.507812 "/>
<path style=" stroke:none;fill-rule:nonzero;fill:rgb(100%,87.058824%,81.176471%);fill-opacity:1;" d="M 75 113.460938 C 67.554688 113.460938 60.628906 115.6875 54.851562 119.507812 C 57.550781 128.070312 65.546875 134.28125 75 134.28125 C 84.453125 134.28125 92.453125 128.070312 95.148438 119.507812 C 89.375 115.6875 82.445312 113.460938 75 113.460938 Z M 75 113.460938 "/>
<path style=" stroke:none;fill-rule:nonzero;fill:rgb(100%,80.392157%,74.509804%);fill-opacity:1;" d="M 75 113.460938 C 67.554688 113.460938 60.628906 115.6875 54.851562 119.507812 C 56.132812 123.566406 58.601562 127.09375 61.84375 129.683594 C 66.867188 122.191406 74.585938 116.660156 83.613281 114.480469 C 80.851562 113.8125 77.96875 113.460938 75 113.460938 Z M 75 113.460938 "/>
<path style=" stroke:none;fill-rule:nonzero;fill:rgb(100%,93.333333%,89.803922%);fill-opacity:1;" d="M 75 36.835938 C 75 36.835938 66.929688 62.085938 31.234375 73.53125 C 31.234375 97.699219 50.828125 117.292969 75 117.292969 C 99.167969 117.292969 118.761719 97.699219 118.761719 73.53125 C 83.070312 62.085938 75 36.835938 75 36.835938 Z M 75 36.835938 "/>
<path style=" stroke:none;fill-rule:nonzero;fill:rgb(100%,87.058824%,81.176471%);fill-opacity:1;" d="M 46.328125 73.53125 C 46.328125 71.257812 46.5 69.03125 46.835938 66.855469 C 42.335938 69.34375 37.171875 71.625 31.234375 73.53125 C 31.234375 97.699219 50.828125 117.292969 75 117.292969 C 77.570312 117.292969 80.09375 117.070312 82.546875 116.640625 C 61.96875 113.066406 46.328125 95.125 46.328125 73.53125 Z M 46.328125 73.53125 "/>
<path style=" stroke:none;fill-rule:nonzero;fill:rgb(86.27451%,88.235294%,92.156863%);fill-opacity:1;" d="M 116.40625 100.804688 L 98.296875 100.804688 C 93.296875 100.804688 89.242188 104.859375 89.242188 109.859375 C 89.242188 114.859375 93.296875 118.914062 98.296875 118.914062 L 116.40625 118.914062 C 121.40625 118.914062 125.460938 114.859375 125.460938 109.859375 C 125.460938 104.859375 121.40625 100.804688 116.40625 100.804688 Z M 116.40625 100.804688 "/>
<path style=" stroke:none;fill-rule:nonzero;fill:rgb(67.058824%,96.078431%,96.078431%);fill-opacity:1;" d="M 89.242188 109.859375 L 125.460938 109.859375 L 125.460938 134 L 89.242188 134 Z M 89.242188 109.859375 "/>
<path style=" stroke:none;fill-rule:nonzero;fill:rgb(94.901961%,96.470588%,98.823529%);fill-opacity:1;" d="M 125.691406 109.859375 C 133.140625 109.984375 139.039062 116.214844 139.039062 123.664062 L 139.039062 143.210938 C 139.039062 146.960938 136 150 132.25 150 C 128.5 150 125.460938 146.960938 125.460938 143.210938 L 125.460938 142.9375 C 125.460938 139.890625 123.519531 137.226562 120.664062 136.148438 C 115.53125 134.210938 111.878906 129.25 111.878906 123.4375 C 111.878906 115.859375 118.085938 109.734375 125.691406 109.859375 Z M 125.691406 109.859375 "/>
<path style=" stroke:none;fill-rule:nonzero;fill:rgb(94.901961%,96.470588%,98.823529%);fill-opacity:1;" d="M 89.007812 109.859375 C 81.5625 109.984375 75.660156 116.214844 75.660156 123.664062 L 75.660156 143.210938 C 75.660156 146.960938 78.703125 150 82.453125 150 C 86.203125 150 89.242188 146.960938 89.242188 143.210938 L 89.242188 142.9375 C 89.242188 139.890625 91.183594 137.226562 94.039062 136.148438 C 99.171875 134.210938 102.824219 129.25 102.824219 123.4375 C 102.824219 115.859375 96.617188 109.734375 89.007812 109.859375 Z M 89.007812 109.859375 "/>
<path style=" stroke:none;fill-rule:nonzero;fill:rgb(100%,63.137255%,67.45098%);fill-opacity:1;" d="M 59.832031 85.289062 C 59.832031 81.390625 55.859375 78.226562 50.960938 78.226562 C 46.0625 78.226562 42.09375 81.390625 42.09375 85.289062 C 42.09375 89.191406 46.0625 92.351562 50.960938 92.351562 C 55.859375 92.351562 59.832031 89.191406 59.832031 85.289062 Z M 59.832031 85.289062 "/>
<path style=" stroke:none;fill-rule:nonzero;fill:rgb(100%,63.137255%,67.45098%);fill-opacity:1;" d="M 107.90625 85.289062 C 107.90625 81.390625 103.9375 78.226562 99.039062 78.226562 C 94.140625 78.226562 90.167969 81.390625 90.167969 85.289062 C 90.167969 89.191406 94.140625 92.351562 99.039062 92.351562 C 103.9375 92.351562 107.90625 89.191406 107.90625 85.289062 Z M 107.90625 85.289062 "/>
<path style=" stroke:none;fill-rule:nonzero;fill:rgb(28.627451%,33.333333%,37.647059%);fill-opacity:1;" d="M 82.148438 79.863281 C 82.148438 75.445312 78.949219 75.03125 75 75.03125 C 71.050781 75.03125 67.851562 75.445312 67.851562 79.863281 C 67.851562 84.28125 71.050781 87.867188 75 87.867188 C 78.949219 87.867188 82.148438 84.28125 82.148438 79.863281 Z M 82.148438 79.863281 "/>
<path style=" stroke:none;fill-rule:nonzero;fill:rgb(28.627451%,33.333333%,37.647059%);fill-opacity:1;" d="M 52.445312 79.054688 C 51.234375 79.054688 50.25 78.070312 50.25 76.859375 L 50.25 73.234375 C 50.25 72.023438 51.234375 71.039062 52.445312 71.039062 C 53.65625 71.039062 54.640625 72.023438 54.640625 73.234375 L 54.640625 76.859375 C 54.640625 78.070312 53.65625 79.054688 52.445312 79.054688 Z M 52.445312 79.054688 "/>
<path style=" stroke:none;fill-rule:nonzero;fill:rgb(28.627451%,33.333333%,37.647059%);fill-opacity:1;" d="M 97.554688 79.054688 C 96.34375 79.054688 95.359375 78.070312 95.359375 76.859375 L 95.359375 73.234375 C 95.359375 72.023438 96.34375 71.039062 97.554688 71.039062 C 98.765625 71.039062 99.75 72.023438 99.75 73.234375 L 99.75 76.859375 C 99.75 78.070312 98.765625 79.054688 97.554688 79.054688 Z M 97.554688 79.054688 "/>
<path style=" stroke:none;fill-rule:nonzero;fill:rgb(67.058824%,96.078431%,96.078431%);fill-opacity:1;" d="M 40.21875 115.894531 C 40.21875 119.226562 37.515625 121.929688 34.179688 121.929688 C 30.847656 121.929688 28.144531 119.226562 28.144531 115.894531 C 28.144531 112.5625 30.847656 109.859375 34.179688 109.859375 C 37.515625 109.859375 40.21875 112.5625 40.21875 115.894531 Z M 40.21875 115.894531 "/>
<path style=" stroke:none;fill-rule:nonzero;fill:rgb(80.392157%,82.352941%,88.235294%);fill-opacity:1;" d="M 93.769531 121.242188 L 91.4375 121.242188 L 91.4375 118.914062 C 91.4375 117.699219 90.457031 116.714844 89.242188 116.714844 C 88.03125 116.714844 87.046875 117.699219 87.046875 118.914062 L 87.046875 121.242188 L 84.714844 121.242188 C 83.5 121.242188 82.515625 122.226562 82.515625 123.4375 C 82.515625 124.652344 83.5 125.636719 84.714844 125.636719 L 87.046875 125.636719 L 87.046875 127.96875 C 87.046875 129.179688 88.03125 130.164062 89.242188 130.164062 C 90.457031 130.164062 91.4375 129.179688 91.4375 127.96875 L 91.4375 125.636719 L 93.769531 125.636719 C 94.984375 125.636719 95.96875 124.652344 95.96875 123.4375 C 95.96875 122.226562 94.984375 121.242188 93.769531 121.242188 Z M 93.769531 121.242188 "/>
<path style=" stroke:none;fill-rule:nonzero;fill:rgb(80.392157%,82.352941%,88.235294%);fill-opacity:1;" d="M 129.984375 121.242188 L 127.65625 121.242188 L 127.65625 118.914062 C 127.65625 117.699219 126.671875 116.714844 125.460938 116.714844 C 124.246094 116.714844 123.261719 117.699219 123.261719 118.914062 L 123.261719 121.242188 L 120.929688 121.242188 C 119.71875 121.242188 118.734375 122.226562 118.734375 123.4375 C 118.734375 124.652344 119.71875 125.636719 120.929688 125.636719 L 123.261719 125.636719 L 123.261719 127.96875 C 123.261719 129.179688 124.246094 130.164062 125.460938 130.164062 C 126.671875 130.164062 127.65625 129.179688 127.65625 127.96875 L 127.65625 125.636719 L 129.984375 125.636719 C 131.203125 125.636719 132.183594 124.652344 132.183594 123.4375 C 132.183594 122.226562 131.203125 121.242188 129.984375 121.242188 Z M 129.984375 121.242188 "/>
</g>
</svg>
