<?xml version="1.0" encoding="UTF-8"?>
<svg xmlns="http://www.w3.org/2000/svg" xmlns:xlink="http://www.w3.org/1999/xlink" width="150px" height="150px" viewBox="0 0 150 150" version="1.1">
<g id="surface1">
<path style=" stroke:none;fill-rule:nonzero;fill:rgb(89.019608%,97.254902%,98.039216%);fill-opacity:1;" d="M 121.875 150 L 28.125 150 C 12.589844 150 0 137.410156 0 121.875 L 0 28.125 C 0 12.589844 12.589844 0 28.125 0 L 121.875 0 C 137.410156 0 150 12.589844 150 28.125 L 150 121.875 C 150 137.410156 137.410156 150 121.875 150 Z M 121.875 150 "/>
<path style=" stroke:none;fill-rule:nonzero;fill:rgb(14.901961%,77.647059%,85.490196%);fill-opacity:1;" d="M 75 39.0625 C 54.28125 39.0625 37.5 55.5625 37.5 75.910156 C 37.5 92.195312 48.242188 106.003906 63.140625 110.867188 C 65.015625 111.214844 65.703125 110.078125 65.703125 109.097656 C 65.703125 108.21875 65.671875 105.90625 65.65625 102.835938 C 55.226562 105.054688 53.023438 97.890625 53.023438 97.890625 C 51.320312 93.636719 48.851562 92.5 48.851562 92.5 C 45.453125 90.214844 49.117188 90.257812 49.117188 90.257812 C 52.878906 90.515625 54.859375 94.054688 54.859375 94.054688 C 58.199219 99.6875 63.636719 98.0625 65.78125 97.121094 C 66.117188 94.738281 67.082031 93.113281 68.15625 92.195312 C 59.828125 91.269531 51.074219 88.101562 51.074219 73.984375 C 51.074219 69.960938 52.527344 66.675781 54.933594 64.097656 C 54.511719 63.167969 53.246094 59.417969 55.261719 54.34375 C 55.261719 54.34375 58.402344 53.351562 65.574219 58.121094 C 68.574219 57.300781 71.761719 56.898438 74.949219 56.878906 C 78.136719 56.898438 81.324219 57.300781 84.324219 58.121094 C 91.449219 53.351562 94.589844 54.34375 94.589844 54.34375 C 96.605469 59.417969 95.339844 63.164062 94.964844 64.097656 C 97.355469 66.675781 98.808594 69.960938 98.808594 73.984375 C 98.808594 88.140625 90.042969 91.257812 81.699219 92.160156 C 83.011719 93.265625 84.230469 95.527344 84.230469 98.976562 C 84.230469 103.90625 84.183594 107.867188 84.183594 109.070312 C 84.183594 110.035156 84.839844 111.1875 86.761719 110.816406 C 101.765625 105.988281 112.5 92.171875 112.5 75.914062 C 112.5 55.5625 95.710938 39.0625 75 39.0625 Z M 75 39.0625 "/>
</g>
</svg>
