<?xml version="1.0" encoding="UTF-8"?>
<svg xmlns="http://www.w3.org/2000/svg" xmlns:xlink="http://www.w3.org/1999/xlink" width="150px" height="150px" viewBox="0 0 150 150" version="1.1">
<g id="surface1">
<path style=" stroke:none;fill-rule:nonzero;fill:rgb(90.196078%,90.588235%,90.980392%);fill-opacity:1;" d="M 129.769531 30.570312 C 129.101562 29.824219 128.148438 29.398438 127.148438 29.398438 L 112.695312 29.398438 L 112.695312 14.503906 C 112.695312 12.5625 111.121094 10.988281 109.179688 10.988281 L 45.507812 10.988281 C 43.566406 10.988281 41.992188 12.5625 41.992188 14.503906 L 41.992188 29.394531 L 27.539062 29.394531 C 26.539062 29.394531 25.582031 29.824219 24.917969 30.570312 C 24.25 31.320312 23.933594 32.316406 24.046875 33.3125 L 34.992188 128.539062 C 35.148438 129.925781 36.113281 131.085938 37.445312 131.496094 L 76.304688 143.539062 C 76.980469 143.75 77.707031 143.75 78.382812 143.539062 L 117.242188 131.496094 C 118.574219 131.085938 119.535156 129.925781 119.695312 128.539062 L 130.640625 33.308594 C 130.753906 32.316406 130.4375 31.316406 129.769531 30.570312 Z M 129.769531 30.570312 "/>
<path style=" stroke:none;fill-rule:nonzero;fill:rgb(98.039216%,45.882353%,61.960784%);fill-opacity:1;" d="M 20.523438 28.492188 L 31.46875 123.71875 C 31.574219 124.644531 32.21875 125.417969 33.105469 125.691406 L 71.960938 137.734375 C 72.414062 137.875 72.898438 137.875 73.351562 137.734375 L 112.207031 125.691406 C 113.09375 125.417969 113.738281 124.644531 113.84375 123.71875 L 124.789062 28.492188 C 124.863281 27.828125 124.652344 27.160156 124.210938 26.664062 C 123.765625 26.164062 123.128906 25.878906 122.460938 25.878906 L 22.851562 25.878906 C 22.183594 25.878906 21.546875 26.164062 21.101562 26.664062 C 20.660156 27.164062 20.449219 27.828125 20.523438 28.492188 Z M 20.523438 28.492188 "/>
<path style=" stroke:none;fill-rule:nonzero;fill:rgb(100%,100%,100%);fill-opacity:1;" d="M 113.542969 121.308594 L 73.375 133.757812 C 72.90625 133.902344 72.40625 133.902344 71.9375 133.757812 L 31.769531 121.308594 C 31.554688 121.242188 31.347656 121.144531 31.160156 121.015625 L 31.46875 123.71875 C 31.574219 124.644531 32.21875 125.417969 33.105469 125.691406 L 71.960938 137.734375 C 72.414062 137.875 72.898438 137.875 73.351562 137.734375 L 112.207031 125.691406 C 113.09375 125.417969 113.738281 124.644531 113.84375 123.71875 L 114.152344 121.015625 C 113.964844 121.144531 113.757812 121.242188 113.542969 121.308594 Z M 113.542969 121.308594 "/>
<path style=" stroke:none;fill-rule:nonzero;fill:rgb(100%,84.313725%,89.803922%);fill-opacity:1;" d="M 113.8125 34.707031 L 72.65625 34.707031 L 72.65625 129.011719 L 105.355469 118.878906 C 106.246094 118.605469 106.886719 117.832031 106.992188 116.90625 L 116.140625 37.320312 C 116.21875 36.65625 116.007812 35.988281 115.5625 35.492188 C 115.117188 34.992188 114.480469 34.707031 113.8125 34.707031 Z M 113.8125 34.707031 "/>
<path style=" stroke:none;fill-rule:nonzero;fill:rgb(100%,100%,100%);fill-opacity:1;" d="M 103.984375 48.347656 L 41.328125 48.347656 L 45.363281 83.453125 L 88.957031 83.453125 L 87.308594 97.785156 L 72.65625 102.324219 L 58.003906 97.785156 L 57.144531 90.296875 L 46.148438 90.296875 L 48.164062 107.832031 L 72.65625 115.421875 L 97.148438 107.832031 L 101.46875 70.230469 L 54.835938 70.230469 L 53.816406 61.34375 L 102.492188 61.339844 Z M 103.984375 48.347656 "/>
<path style=" stroke:none;fill-rule:nonzero;fill:rgb(42.745098%,78.823529%,96.862745%);fill-opacity:1;" d="M 40.820312 7.472656 L 104.492188 7.472656 C 105.785156 7.472656 106.835938 8.523438 106.835938 9.816406 L 106.835938 28.175781 C 106.835938 29.472656 105.785156 30.519531 104.492188 30.519531 L 40.820312 30.519531 C 39.527344 30.519531 38.476562 29.472656 38.476562 28.175781 L 38.476562 9.816406 C 38.476562 8.523438 39.527344 7.472656 40.820312 7.472656 Z M 40.820312 7.472656 "/>
<path style=" stroke:none;fill-rule:nonzero;fill:rgb(22.745098%,17.254902%,37.647059%);fill-opacity:1;" d="M 125.085938 25.882812 C 124.417969 25.136719 123.460938 24.710938 122.460938 24.710938 L 108.007812 24.710938 L 108.007812 9.816406 C 108.007812 7.875 106.433594 6.300781 104.492188 6.300781 L 40.820312 6.300781 C 38.878906 6.300781 37.304688 7.875 37.304688 9.816406 L 37.304688 24.707031 L 22.851562 24.707031 C 21.847656 24.707031 20.894531 25.132812 20.226562 25.882812 C 19.558594 26.628906 19.242188 27.628906 19.359375 28.625 L 21.769531 49.601562 C 21.863281 50.226562 22.433594 50.667969 23.0625 50.59375 C 23.691406 50.523438 24.148438 49.964844 24.097656 49.332031 L 21.6875 28.359375 C 21.648438 28.027344 21.753906 27.695312 21.976562 27.445312 C 22.199219 27.195312 22.519531 27.050781 22.851562 27.050781 L 37.304688 27.050781 L 37.304688 28.179688 C 37.304688 30.121094 38.878906 31.695312 40.820312 31.695312 L 104.492188 31.695312 C 106.433594 31.695312 108.007812 30.121094 108.007812 28.179688 L 108.007812 27.050781 L 122.460938 27.050781 C 122.796875 27.050781 123.113281 27.195312 123.335938 27.445312 C 123.558594 27.695312 123.664062 28.027344 123.625 28.359375 L 112.679688 123.589844 C 112.628906 124.050781 112.304688 124.4375 111.859375 124.574219 L 73.007812 136.613281 C 72.78125 136.683594 72.539062 136.683594 72.3125 136.613281 L 33.453125 124.570312 C 33.007812 124.433594 32.683594 124.046875 32.632812 123.582031 L 26.421875 69.582031 C 26.347656 68.9375 25.765625 68.476562 25.121094 68.550781 C 24.480469 68.625 24.019531 69.207031 24.09375 69.851562 L 30.304688 123.851562 C 30.460938 125.234375 31.421875 126.394531 32.753906 126.808594 L 71.613281 138.851562 C 72.292969 139.0625 73.015625 139.0625 73.695312 138.851562 L 112.554688 126.808594 C 113.886719 126.394531 114.847656 125.234375 115.003906 123.851562 L 125.949219 28.621094 C 126.0625 27.628906 125.75 26.632812 125.085938 25.882812 Z M 105.664062 28.175781 C 105.664062 28.824219 105.140625 29.347656 104.492188 29.347656 L 40.820312 29.347656 C 40.171875 29.347656 39.648438 28.824219 39.648438 28.175781 L 39.648438 9.816406 C 39.648438 9.167969 40.171875 8.644531 40.820312 8.644531 L 104.492188 8.644531 C 105.140625 8.644531 105.664062 9.167969 105.664062 9.816406 Z M 105.664062 28.175781 "/>
<path style=" stroke:none;fill-rule:nonzero;fill:rgb(22.745098%,17.254902%,37.647059%);fill-opacity:1;" d="M 24.882812 66.425781 C 25.527344 66.351562 25.988281 65.769531 25.914062 65.128906 L 24.71875 54.707031 C 24.644531 54.0625 24.0625 53.601562 23.417969 53.675781 C 22.777344 53.75 22.316406 54.328125 22.390625 54.972656 L 23.585938 65.402344 C 23.65625 65.992188 24.15625 66.441406 24.75 66.441406 C 24.796875 66.4375 24.839844 66.433594 24.882812 66.425781 Z M 24.882812 66.425781 "/>
<path style=" stroke:none;fill-rule:nonzero;fill:rgb(22.745098%,17.254902%,37.647059%);fill-opacity:1;" d="M 103.65625 61.472656 L 105.148438 48.480469 C 105.1875 48.148438 105.082031 47.816406 104.859375 47.566406 C 104.636719 47.316406 104.320312 47.175781 103.984375 47.175781 L 41.328125 47.175781 C 40.996094 47.175781 40.675781 47.316406 40.453125 47.566406 C 40.230469 47.816406 40.125 48.148438 40.164062 48.480469 L 44.199219 83.589844 C 44.265625 84.179688 44.769531 84.625 45.363281 84.625 L 87.640625 84.625 L 86.234375 96.894531 L 72.65625 101.097656 L 59.082031 96.894531 L 58.308594 90.164062 C 58.238281 89.570312 57.738281 89.125 57.144531 89.125 L 46.148438 89.125 C 45.816406 89.125 45.496094 89.269531 45.273438 89.515625 C 45.050781 89.765625 44.945312 90.097656 44.984375 90.429688 L 47 107.964844 C 47.054688 108.429688 47.375 108.816406 47.820312 108.953125 L 72.3125 116.539062 C 72.539062 116.609375 72.78125 116.609375 73.007812 116.539062 L 97.5 108.953125 C 97.945312 108.816406 98.265625 108.429688 98.320312 107.964844 L 102.640625 70.363281 C 102.679688 70.03125 102.574219 69.699219 102.351562 69.449219 C 102.128906 69.199219 101.8125 69.058594 101.476562 69.058594 L 55.890625 69.058594 L 55.140625 62.511719 L 102.503906 62.511719 C 103.09375 62.507812 103.589844 62.0625 103.65625 61.472656 Z M 53.816406 60.171875 C 53.480469 60.171875 53.164062 60.3125 52.941406 60.5625 C 52.71875 60.8125 52.613281 61.144531 52.652344 61.476562 L 53.675781 70.363281 C 53.742188 70.953125 54.242188 71.402344 54.835938 71.402344 L 100.15625 71.402344 L 96.070312 106.941406 L 72.65625 114.195312 L 49.242188 106.941406 L 47.460938 91.46875 L 56.097656 91.46875 L 56.839844 97.917969 C 56.894531 98.382812 57.214844 98.769531 57.660156 98.90625 L 72.308594 103.445312 C 72.535156 103.515625 72.777344 103.515625 73.003906 103.445312 L 87.65625 98.90625 C 88.101562 98.769531 88.421875 98.382812 88.476562 97.921875 L 90.117188 83.589844 C 90.15625 83.257812 90.050781 82.925781 89.828125 82.675781 C 89.605469 82.425781 89.289062 82.285156 88.953125 82.28125 L 46.40625 82.28125 L 42.640625 49.519531 L 102.671875 49.519531 L 101.445312 60.167969 Z M 53.816406 60.171875 "/>
<path style=" stroke:none;fill-rule:nonzero;fill:rgb(22.745098%,17.254902%,37.647059%);fill-opacity:1;" d="M 59.421875 13.460938 C 59.140625 13.449219 58.867188 13.550781 58.667969 13.75 C 58.476562 13.957031 58.375 14.230469 58.390625 14.511719 L 58.390625 18.378906 L 52.464844 18.378906 L 52.464844 14.511719 C 52.484375 14.226562 52.382812 13.945312 52.179688 13.746094 C 51.976562 13.542969 51.695312 13.4375 51.410156 13.457031 C 51.128906 13.445312 50.855469 13.546875 50.65625 13.746094 C 50.464844 13.953125 50.367188 14.226562 50.378906 14.507812 L 50.378906 24.140625 C 50.367188 24.425781 50.46875 24.703125 50.664062 24.914062 C 50.859375 25.113281 51.132812 25.21875 51.410156 25.207031 C 51.695312 25.222656 51.972656 25.113281 52.175781 24.914062 C 52.371094 24.703125 52.472656 24.425781 52.460938 24.140625 L 52.460938 20.089844 L 58.386719 20.089844 L 58.386719 24.140625 C 58.371094 24.425781 58.472656 24.703125 58.664062 24.914062 C 59.085938 25.304688 59.742188 25.304688 60.164062 24.914062 C 60.359375 24.703125 60.464844 24.425781 60.453125 24.140625 L 60.453125 14.511719 C 60.464844 14.230469 60.363281 13.957031 60.171875 13.75 C 59.972656 13.550781 59.703125 13.449219 59.421875 13.460938 Z M 59.421875 13.460938 "/>
<path style=" stroke:none;fill-rule:nonzero;fill:rgb(22.745098%,17.254902%,37.647059%);fill-opacity:1;" d="M 70.78125 13.542969 L 62.695312 13.542969 C 62.039062 13.542969 61.710938 13.832031 61.710938 14.414062 C 61.710938 14.996094 62.039062 15.285156 62.695312 15.28125 L 65.671875 15.28125 L 65.671875 24.140625 C 65.660156 24.425781 65.761719 24.699219 65.960938 24.90625 C 66.167969 25.101562 66.453125 25.207031 66.738281 25.191406 C 67.023438 25.210938 67.304688 25.105469 67.507812 24.90625 C 67.710938 24.703125 67.816406 24.421875 67.792969 24.136719 L 67.792969 15.277344 L 70.78125 15.277344 C 71.4375 15.277344 71.765625 14.988281 71.765625 14.410156 C 71.765625 13.828125 71.4375 13.542969 70.78125 13.542969 Z M 70.78125 13.542969 "/>
<path style=" stroke:none;fill-rule:nonzero;fill:rgb(22.745098%,17.254902%,37.647059%);fill-opacity:1;" d="M 83.277344 13.460938 C 82.84375 13.480469 82.460938 13.757812 82.308594 14.164062 L 78.683594 21.105469 L 75.042969 14.167969 C 74.878906 13.753906 74.484375 13.476562 74.039062 13.464844 C 73.765625 13.453125 73.5 13.554688 73.308594 13.75 C 73.125 13.960938 73.027344 14.234375 73.039062 14.515625 L 73.039062 24.226562 C 73.023438 24.492188 73.113281 24.75 73.285156 24.949219 C 73.460938 25.128906 73.707031 25.226562 73.957031 25.210938 C 74.214844 25.222656 74.460938 25.125 74.640625 24.941406 C 74.8125 24.746094 74.90625 24.488281 74.894531 24.226562 L 74.894531 17.546875 L 77.695312 22.746094 C 77.792969 22.957031 77.9375 23.144531 78.121094 23.289062 C 78.277344 23.398438 78.46875 23.457031 78.664062 23.453125 C 78.855469 23.457031 79.046875 23.398438 79.203125 23.28125 C 79.382812 23.136719 79.527344 22.953125 79.632812 22.746094 L 82.421875 17.460938 L 82.421875 24.222656 C 82.40625 24.484375 82.496094 24.742188 82.667969 24.941406 C 82.84375 25.121094 83.089844 25.21875 83.34375 25.207031 C 83.597656 25.214844 83.847656 25.121094 84.03125 24.941406 C 84.214844 24.75 84.308594 24.488281 84.292969 24.222656 L 84.292969 14.511719 C 84.308594 14.230469 84.207031 13.957031 84.015625 13.75 C 83.820312 13.554688 83.550781 13.449219 83.277344 13.460938 Z M 83.277344 13.460938 "/>
<path style=" stroke:none;fill-rule:nonzero;fill:rgb(22.745098%,17.254902%,37.647059%);fill-opacity:1;" d="M 93.53125 23.371094 L 88.921875 23.371094 L 88.921875 14.511719 C 88.933594 14.230469 88.828125 13.953125 88.632812 13.75 C 88.425781 13.550781 88.140625 13.445312 87.855469 13.460938 C 87.570312 13.441406 87.289062 13.546875 87.089844 13.75 C 86.886719 13.953125 86.785156 14.230469 86.804688 14.515625 L 86.804688 24.125 C 86.789062 24.390625 86.886719 24.652344 87.066406 24.847656 C 87.265625 25.03125 87.535156 25.125 87.804688 25.109375 L 93.53125 25.109375 C 94.1875 25.109375 94.515625 24.820312 94.515625 24.238281 C 94.515625 23.660156 94.1875 23.367188 93.53125 23.371094 Z M 93.53125 23.371094 "/>
</g>
</svg>
