<?xml version="1.0" encoding="UTF-8"?>
<svg xmlns="http://www.w3.org/2000/svg" xmlns:xlink="http://www.w3.org/1999/xlink" width="150px" height="150px" viewBox="0 0 150 150" version="1.1">
<g id="surface1">
<path style=" stroke:none;fill-rule:nonzero;fill:rgb(90.196078%,90.588235%,90.980392%);fill-opacity:1;" d="M 139.886719 27.4375 L 71.867188 27.4375 C 69.820312 27.4375 67.90625 26.433594 66.738281 24.753906 L 63.714844 20.390625 C 62.082031 18.03125 59.394531 16.625 56.527344 16.625 L 14.726562 16.625 C 11.488281 16.625 8.867188 19.25 8.867188 22.484375 L 8.867188 132.441406 C 8.867188 135.675781 11.488281 138.300781 14.726562 138.300781 L 139.886719 138.300781 C 143.121094 138.300781 145.746094 135.675781 145.746094 132.441406 L 145.746094 33.300781 C 145.746094 30.0625 143.125 27.4375 139.886719 27.4375 Z M 139.886719 27.4375 "/>
<path style=" stroke:none;fill-rule:nonzero;fill:rgb(83.137255%,98.431373%,100%);fill-opacity:1;" d="M 5.425781 38.671875 L 139.804688 38.671875 L 139.804688 127.367188 C 139.804688 129.957031 137.707031 132.054688 135.117188 132.054688 L 10.113281 132.054688 C 7.523438 132.054688 5.425781 129.957031 5.425781 127.367188 Z M 5.425781 38.671875 "/>
<path style=" stroke:none;fill-rule:nonzero;fill:rgb(98.039216%,45.882353%,61.960784%);fill-opacity:1;" d="M 57.640625 107.109375 C 58.867188 108.398438 58.867188 110.421875 57.640625 111.710938 C 56.996094 112.25 56.179688 112.527344 55.339844 112.5 L 50.40625 112.5 C 48.238281 112.636719 46.109375 111.875 44.523438 110.390625 C 43.070312 108.800781 42.324219 106.6875 42.453125 104.539062 L 42.453125 91.785156 C 42.5625 90.449219 42.238281 89.113281 41.53125 87.972656 C 40.675781 87.074219 39.484375 86.570312 38.242188 86.59375 C 37.382812 86.625 36.554688 86.292969 35.953125 85.679688 C 35.351562 85.066406 35.035156 84.226562 35.085938 83.371094 C 35.050781 82.542969 35.347656 81.738281 35.90625 81.132812 C 36.535156 80.53125 37.371094 80.199219 38.242188 80.214844 C 39.484375 80.234375 40.675781 79.730469 41.53125 78.832031 C 42.238281 77.691406 42.5625 76.355469 42.449219 75.015625 L 42.449219 62.261719 C 42.324219 60.109375 43.070312 58 44.523438 56.410156 C 46.113281 54.925781 48.242188 54.164062 50.40625 54.304688 L 55.339844 54.304688 C 56.179688 54.277344 56.996094 54.554688 57.640625 55.09375 C 58.867188 56.382812 58.867188 58.40625 57.640625 59.695312 C 56.996094 60.234375 56.179688 60.515625 55.339844 60.484375 L 53.230469 60.484375 C 52.476562 60.425781 51.730469 60.675781 51.160156 61.175781 C 50.644531 61.789062 50.398438 62.582031 50.46875 63.378906 L 50.46875 76.003906 C 50.53125 77.785156 49.984375 79.535156 48.921875 80.96875 C 48.042969 82.203125 46.75 83.078125 45.273438 83.429688 C 46.742188 83.78125 48.035156 84.644531 48.921875 85.863281 C 49.988281 87.28125 50.53125 89.023438 50.46875 90.796875 L 50.46875 103.425781 C 50.398438 104.222656 50.644531 105.015625 51.160156 105.628906 C 51.730469 106.128906 52.476562 106.375 53.230469 106.320312 L 55.339844 106.320312 C 56.179688 106.289062 57 106.570312 57.640625 107.109375 Z M 57.640625 107.109375 "/>
<path style=" stroke:none;fill-rule:nonzero;fill:rgb(98.039216%,45.882353%,61.960784%);fill-opacity:1;" d="M 69.132812 76.234375 C 68.214844 75.296875 67.71875 74.03125 67.753906 72.71875 C 67.726562 70.964844 68.644531 69.328125 70.164062 68.441406 C 71.679688 67.554688 73.554688 67.554688 75.074219 68.441406 C 76.589844 69.328125 77.511719 70.964844 77.484375 72.71875 C 77.519531 74.03125 77.019531 75.296875 76.105469 76.234375 C 74.164062 78.121094 71.074219 78.121094 69.132812 76.234375 Z M 76.105469 92.839844 C 77.117188 94.226562 77.605469 95.929688 77.484375 97.644531 C 77.539062 101.671875 75.976562 105.554688 73.148438 108.425781 C 72.675781 108.949219 72.011719 109.257812 71.308594 109.28125 C 70.675781 109.289062 70.0625 109.050781 69.597656 108.621094 C 69.136719 108.226562 68.871094 107.652344 68.875 107.042969 C 68.894531 106.472656 69.128906 105.933594 69.53125 105.53125 C 70.800781 104.214844 71.6875 102.578125 72.097656 100.796875 C 70.90625 100.703125 69.796875 100.179688 68.972656 99.316406 C 68.160156 98.457031 67.722656 97.308594 67.757812 96.128906 C 67.71875 94.824219 68.203125 93.558594 69.105469 92.613281 C 70.042969 91.667969 71.328125 91.15625 72.65625 91.203125 C 73.988281 91.246094 75.238281 91.84375 76.109375 92.847656 Z M 76.105469 92.839844 "/>
<path style=" stroke:none;fill-rule:nonzero;fill:rgb(98.039216%,45.882353%,61.960784%);fill-opacity:1;" d="M 109.328125 81.132812 C 109.886719 81.738281 110.183594 82.542969 110.148438 83.371094 C 110.179688 84.199219 109.898438 85.007812 109.355469 85.636719 C 108.734375 86.273438 107.875 86.617188 106.988281 86.59375 C 105.746094 86.574219 104.554688 87.074219 103.699219 87.972656 C 102.992188 89.113281 102.671875 90.449219 102.78125 91.785156 L 102.78125 104.542969 C 102.910156 106.695312 102.160156 108.804688 100.710938 110.398438 C 99.121094 111.875 96.996094 112.636719 94.828125 112.5 L 89.894531 112.5 C 89.058594 112.527344 88.238281 112.25 87.59375 111.710938 C 86.367188 110.421875 86.367188 108.398438 87.59375 107.109375 C 88.238281 106.570312 89.058594 106.289062 89.894531 106.320312 L 92.003906 106.320312 C 92.761719 106.375 93.507812 106.128906 94.074219 105.628906 C 94.589844 105.015625 94.839844 104.222656 94.765625 103.425781 L 94.765625 90.800781 C 94.703125 89.027344 95.246094 87.285156 96.3125 85.867188 C 97.199219 84.648438 98.492188 83.785156 99.960938 83.4375 C 98.488281 83.085938 97.191406 82.210938 96.3125 80.976562 C 95.25 79.542969 94.703125 77.792969 94.765625 76.011719 L 94.765625 63.378906 C 94.835938 62.582031 94.589844 61.789062 94.074219 61.175781 C 93.507812 60.675781 92.761719 60.425781 92.003906 60.484375 L 89.894531 60.484375 C 89.058594 60.515625 88.238281 60.234375 87.59375 59.695312 C 86.367188 58.40625 86.367188 56.382812 87.59375 55.09375 C 88.238281 54.554688 89.058594 54.277344 89.894531 54.304688 L 94.828125 54.304688 C 96.996094 54.164062 99.125 54.925781 100.714844 56.40625 C 102.164062 58 102.910156 60.109375 102.785156 62.261719 L 102.785156 75.015625 C 102.675781 76.355469 102.996094 77.691406 103.703125 78.832031 C 104.558594 79.730469 105.75 80.230469 106.992188 80.214844 C 107.859375 80.199219 108.699219 80.53125 109.328125 81.132812 Z M 109.328125 81.132812 "/>
<path style=" stroke:none;fill-rule:nonzero;fill:rgb(100%,100%,100%);fill-opacity:1;" d="M 135.125 128.539062 L 10.113281 128.539062 C 7.523438 128.539062 5.425781 126.441406 5.425781 123.851562 L 5.425781 127.367188 C 5.425781 129.957031 7.523438 132.054688 10.113281 132.054688 L 135.125 132.054688 C 137.710938 132.054688 139.8125 129.957031 139.8125 127.367188 L 139.8125 123.851562 C 139.8125 126.441406 137.710938 128.539062 135.125 128.539062 Z M 135.125 128.539062 "/>
<path style=" stroke:none;fill-rule:nonzero;fill:rgb(42.745098%,78.823529%,96.862745%);fill-opacity:1;" d="M 61.023438 20.46875 L 58.007812 16.101562 C 56.609375 14.082031 54.308594 12.875 51.851562 12.875 L 10.113281 12.875 C 7.523438 12.875 5.425781 14.976562 5.425781 17.5625 L 5.425781 38.671875 L 139.8125 38.671875 L 139.8125 28.382812 C 139.8125 25.792969 137.710938 23.695312 135.125 23.695312 L 67.179688 23.695312 C 64.722656 23.695312 62.421875 22.488281 61.023438 20.46875 Z M 61.023438 20.46875 "/>
<path style=" stroke:none;fill-rule:nonzero;fill:rgb(22.745098%,17.254902%,37.647059%);fill-opacity:1;" d="M 49.855469 81.679688 C 51.074219 80.042969 51.707031 78.039062 51.644531 76 L 51.644531 63.378906 C 51.597656 62.894531 51.722656 62.40625 51.996094 62.003906 C 52.355469 61.742188 52.796875 61.617188 53.242188 61.652344 L 55.351562 61.652344 C 56.46875 61.683594 57.558594 61.300781 58.414062 60.582031 C 59.265625 59.738281 59.746094 58.589844 59.746094 57.390625 C 59.746094 56.191406 59.265625 55.042969 58.414062 54.199219 C 57.558594 53.480469 56.46875 53.097656 55.351562 53.128906 L 50.410156 53.128906 C 47.925781 52.988281 45.496094 53.875 43.6875 55.582031 C 42.015625 57.394531 41.148438 59.804688 41.277344 62.261719 L 41.28125 75.015625 C 41.390625 76.09375 41.152344 77.179688 40.605469 78.113281 C 39.945312 78.710938 39.085938 79.042969 38.191406 79.042969 C 37.023438 79.039062 35.898438 79.5 35.0625 80.320312 C 34.289062 81.144531 33.875 82.238281 33.914062 83.367188 C 33.863281 84.519531 34.289062 85.640625 35.085938 86.472656 C 35.886719 87.300781 36.992188 87.765625 38.148438 87.757812 C 39.054688 87.75 39.933594 88.085938 40.609375 88.695312 C 41.15625 89.628906 41.390625 90.714844 41.28125 91.789062 L 41.28125 104.542969 C 41.152344 107.003906 42.019531 109.414062 43.691406 111.222656 C 45.5 112.929688 47.929688 113.8125 50.410156 113.671875 L 55.339844 113.671875 C 56.457031 113.703125 57.546875 113.320312 58.402344 112.601562 C 59.253906 111.757812 59.734375 110.609375 59.734375 109.410156 C 59.734375 108.210938 59.253906 107.0625 58.402344 106.21875 C 57.546875 105.5 56.457031 105.117188 55.339844 105.148438 L 53.230469 105.148438 C 52.789062 105.183594 52.347656 105.058594 51.988281 104.796875 C 51.710938 104.394531 51.585938 103.90625 51.636719 103.421875 L 51.636719 90.800781 C 51.699219 88.765625 51.066406 86.769531 49.84375 85.144531 C 49.339844 84.492188 48.742188 83.914062 48.074219 83.429688 C 48.75 82.9375 49.351562 82.347656 49.855469 81.679688 Z M 45.03125 84.574219 C 46.230469 84.867188 47.289062 85.578125 48.003906 86.585938 C 48.910156 87.796875 49.367188 89.285156 49.300781 90.796875 L 49.300781 103.425781 C 49.222656 104.535156 49.597656 105.625 50.335938 106.457031 C 51.121094 107.179688 52.167969 107.554688 53.234375 107.492188 L 55.34375 107.492188 C 55.902344 107.464844 56.449219 107.644531 56.882812 107.996094 C 57.566406 108.816406 57.566406 110.003906 56.882812 110.820312 C 56.449219 111.175781 55.898438 111.355469 55.339844 111.328125 L 50.410156 111.328125 C 48.554688 111.464844 46.726562 110.828125 45.359375 109.570312 C 44.121094 108.199219 43.496094 106.382812 43.621094 104.539062 L 43.621094 91.785156 C 43.746094 90.1875 43.332031 88.59375 42.449219 87.25 C 41.386719 86.078125 39.875 85.414062 38.289062 85.421875 C 37.722656 85.441406 37.175781 85.230469 36.765625 84.835938 C 36.410156 84.429688 36.226562 83.902344 36.257812 83.363281 C 36.222656 82.839844 36.402344 82.328125 36.753906 81.941406 C 37.1875 81.550781 37.757812 81.347656 38.339844 81.375 C 39.910156 81.375 41.402344 80.710938 42.453125 79.546875 C 43.335938 78.207031 43.746094 76.609375 43.625 75.011719 L 43.625 62.261719 C 43.5 60.417969 44.125 58.601562 45.359375 57.230469 C 46.730469 55.972656 48.558594 55.335938 50.414062 55.472656 L 55.34375 55.472656 C 55.902344 55.445312 56.449219 55.628906 56.882812 55.980469 C 57.269531 56.339844 57.457031 56.863281 57.394531 57.386719 C 57.457031 57.910156 57.265625 58.4375 56.882812 58.800781 C 56.449219 59.152344 55.902344 59.332031 55.34375 59.304688 L 53.234375 59.304688 C 52.167969 59.242188 51.121094 59.617188 50.335938 60.339844 C 49.597656 61.167969 49.222656 62.261719 49.300781 63.371094 L 49.300781 76.003906 C 49.363281 77.527344 48.902344 79.027344 48 80.253906 C 47.289062 81.273438 46.234375 81.996094 45.027344 82.289062 C 44.488281 82.40625 44.105469 82.882812 44.105469 83.433594 C 44.105469 83.984375 44.488281 84.460938 45.027344 84.578125 Z M 45.03125 84.574219 "/>
<path style=" stroke:none;fill-rule:nonzero;fill:rgb(22.745098%,17.254902%,37.647059%);fill-opacity:1;" d="M 76.933594 68.402344 C 75.203125 66.640625 72.574219 66.105469 70.296875 67.054688 C 68.015625 68.003906 66.542969 70.246094 66.578125 72.714844 C 66.542969 74.332031 67.160156 75.898438 68.292969 77.050781 C 70.695312 79.410156 74.539062 79.410156 76.941406 77.050781 C 78.074219 75.898438 78.695312 74.332031 78.65625 72.714844 C 78.699219 71.101562 78.074219 69.542969 76.933594 68.402344 Z M 75.265625 75.414062 C 73.785156 76.828125 71.453125 76.828125 69.972656 75.414062 C 69.269531 74.699219 68.890625 73.722656 68.921875 72.71875 C 68.898438 71.386719 69.597656 70.140625 70.75 69.464844 C 71.90625 68.792969 73.332031 68.792969 74.484375 69.464844 C 75.636719 70.140625 76.335938 71.386719 76.3125 72.71875 C 76.347656 73.726562 75.96875 74.699219 75.265625 75.414062 Z M 75.265625 75.414062 "/>
<path style=" stroke:none;fill-rule:nonzero;fill:rgb(22.745098%,17.254902%,37.647059%);fill-opacity:1;" d="M 67.699219 107.042969 C 67.695312 107.980469 68.101562 108.871094 68.804688 109.488281 C 69.484375 110.117188 70.378906 110.460938 71.304688 110.449219 C 72.328125 110.429688 73.300781 109.988281 73.992188 109.234375 C 77.027344 106.144531 78.707031 101.972656 78.65625 97.640625 C 78.777344 95.652344 78.191406 93.683594 77 92.085938 C 75.914062 90.828125 74.351562 90.078125 72.6875 90.027344 C 71.027344 89.972656 69.417969 90.613281 68.253906 91.800781 C 67.144531 92.960938 66.542969 94.519531 66.582031 96.125 C 66.542969 97.609375 67.097656 99.046875 68.117188 100.121094 C 68.800781 100.847656 69.65625 101.382812 70.605469 101.679688 C 70.164062 102.820312 69.503906 103.859375 68.660156 104.742188 C 68.058594 105.355469 67.714844 106.179688 67.699219 107.042969 Z M 70.382812 106.332031 C 71.792969 104.863281 72.777344 103.039062 73.234375 101.058594 C 73.308594 100.730469 73.238281 100.390625 73.042969 100.117188 C 72.847656 99.84375 72.546875 99.667969 72.214844 99.636719 C 71.304688 99.570312 70.449219 99.171875 69.816406 98.515625 C 69.210938 97.871094 68.890625 97.011719 68.921875 96.128906 C 68.886719 95.125 69.257812 94.148438 69.949219 93.421875 C 70.65625 92.71875 71.621094 92.339844 72.613281 92.371094 C 73.609375 92.40625 74.546875 92.847656 75.207031 93.597656 C 76.03125 94.777344 76.421875 96.207031 76.3125 97.644531 C 76.375 101.367188 74.933594 104.957031 72.316406 107.597656 C 72.066406 107.90625 71.699219 108.09375 71.304688 108.113281 C 70.960938 108.121094 70.628906 107.996094 70.378906 107.761719 C 70.164062 107.589844 70.039062 107.332031 70.042969 107.058594 C 70.050781 106.777344 70.175781 106.515625 70.382812 106.332031 Z M 70.382812 106.332031 "/>
<path style=" stroke:none;fill-rule:nonzero;fill:rgb(22.745098%,17.254902%,37.647059%);fill-opacity:1;" d="M 95.390625 85.144531 C 94.164062 86.769531 93.53125 88.765625 93.59375 90.800781 L 93.59375 103.425781 C 93.644531 103.910156 93.519531 104.398438 93.242188 104.800781 C 92.882812 105.0625 92.441406 105.1875 92 105.152344 L 89.890625 105.152344 C 88.773438 105.121094 87.683594 105.503906 86.828125 106.222656 C 85.976562 107.066406 85.496094 108.214844 85.496094 109.414062 C 85.496094 110.613281 85.976562 111.761719 86.828125 112.605469 C 87.683594 113.324219 88.777344 113.703125 89.894531 113.671875 L 94.828125 113.671875 C 97.308594 113.8125 99.742188 112.925781 101.546875 111.21875 C 103.21875 109.40625 104.085938 107 103.957031 104.539062 L 103.957031 91.785156 C 103.84375 90.710938 104.082031 89.625 104.628906 88.691406 C 105.289062 88.09375 106.148438 87.761719 107.042969 87.761719 C 108.246094 87.78125 109.40625 87.292969 110.234375 86.417969 C 110.96875 85.574219 111.355469 84.484375 111.324219 83.371094 C 111.359375 82.242188 110.945312 81.144531 110.171875 80.324219 C 109.351562 79.511719 108.246094 79.050781 107.09375 79.046875 C 106.183594 79.054688 105.304688 78.71875 104.632812 78.109375 C 104.082031 77.175781 103.847656 76.09375 103.957031 75.015625 L 103.957031 62.261719 C 104.085938 59.800781 103.21875 57.394531 101.550781 55.585938 C 99.742188 53.878906 97.3125 52.992188 94.828125 53.132812 L 89.894531 53.132812 C 88.777344 53.101562 87.6875 53.484375 86.832031 54.203125 C 85.980469 55.046875 85.5 56.195312 85.5 57.394531 C 85.5 58.59375 85.980469 59.742188 86.832031 60.585938 C 87.6875 61.304688 88.777344 61.6875 89.894531 61.65625 L 92.003906 61.65625 C 92.449219 61.621094 92.890625 61.746094 93.25 62.007812 C 93.523438 62.410156 93.648438 62.898438 93.601562 63.382812 L 93.601562 76.003906 C 93.535156 78.042969 94.164062 80.042969 95.378906 81.679688 C 95.878906 82.347656 96.476562 82.9375 97.148438 83.429688 C 96.484375 83.914062 95.890625 84.492188 95.390625 85.144531 Z M 100.210938 82.289062 C 99.003906 81.996094 97.949219 81.269531 97.238281 80.253906 C 96.332031 79.027344 95.875 77.527344 95.9375 76.003906 L 95.9375 63.378906 C 96.015625 62.269531 95.644531 61.175781 94.90625 60.347656 C 94.117188 59.625 93.070312 59.25 92.003906 59.3125 L 89.894531 59.3125 C 89.335938 59.339844 88.789062 59.160156 88.355469 58.808594 C 87.972656 58.445312 87.78125 57.921875 87.84375 57.394531 C 87.78125 56.871094 87.972656 56.347656 88.355469 55.988281 C 88.789062 55.636719 89.335938 55.453125 89.894531 55.480469 L 94.828125 55.480469 C 96.683594 55.34375 98.511719 55.980469 99.878906 57.238281 C 101.113281 58.613281 101.738281 60.425781 101.613281 62.269531 L 101.613281 75.015625 C 101.492188 76.617188 101.90625 78.210938 102.785156 79.550781 C 103.851562 80.726562 105.363281 81.390625 106.949219 81.382812 C 107.515625 81.363281 108.070312 81.566406 108.488281 81.945312 C 108.835938 82.335938 109.015625 82.847656 108.984375 83.371094 C 109.054688 83.941406 108.855469 84.507812 108.445312 84.914062 C 108.035156 85.316406 107.464844 85.507812 106.894531 85.429688 C 105.324219 85.429688 103.832031 86.09375 102.78125 87.257812 C 101.898438 88.597656 101.488281 90.191406 101.609375 91.792969 L 101.609375 104.542969 C 101.734375 106.382812 101.109375 108.199219 99.878906 109.570312 C 98.511719 110.828125 96.683594 111.464844 94.828125 111.328125 L 89.894531 111.328125 C 89.335938 111.355469 88.789062 111.175781 88.355469 110.820312 C 87.675781 110.003906 87.675781 108.816406 88.355469 107.996094 C 88.789062 107.644531 89.335938 107.464844 89.894531 107.492188 L 92.003906 107.492188 C 93.070312 107.554688 94.117188 107.183594 94.902344 106.457031 C 95.644531 105.628906 96.015625 104.535156 95.9375 103.425781 L 95.9375 90.800781 C 95.871094 89.289062 96.328125 87.800781 97.230469 86.589844 C 97.949219 85.582031 99.003906 84.871094 100.207031 84.578125 C 100.746094 84.460938 101.128906 83.984375 101.128906 83.433594 C 101.128906 82.882812 100.746094 82.40625 100.207031 82.289062 Z M 100.210938 82.289062 "/>
<path style=" stroke:none;fill-rule:nonzero;fill:rgb(22.745098%,17.254902%,37.647059%);fill-opacity:1;" d="M 139.8125 97.558594 C 139.164062 97.558594 138.640625 98.082031 138.640625 98.730469 L 138.640625 113.085938 C 138.640625 113.734375 139.164062 114.257812 139.8125 114.257812 C 140.457031 114.257812 140.984375 113.734375 140.984375 113.085938 L 140.984375 98.730469 C 140.984375 98.082031 140.457031 97.558594 139.8125 97.558594 Z M 139.8125 97.558594 "/>
<path style=" stroke:none;fill-rule:nonzero;fill:rgb(22.745098%,17.254902%,37.647059%);fill-opacity:1;" d="M 135.125 22.523438 L 67.179688 22.523438 C 65.109375 22.523438 63.171875 21.507812 61.992188 19.804688 L 58.96875 15.4375 C 57.351562 13.101562 54.691406 11.707031 51.851562 11.707031 L 10.113281 11.707031 C 6.878906 11.710938 4.257812 14.332031 4.253906 17.566406 L 4.253906 127.371094 C 4.257812 130.605469 6.878906 133.226562 10.113281 133.230469 L 135.125 133.230469 C 138.359375 133.226562 140.980469 130.605469 140.984375 127.371094 L 140.984375 118.558594 C 140.984375 117.914062 140.457031 117.386719 139.8125 117.386719 C 139.164062 117.386719 138.640625 117.914062 138.640625 118.558594 L 138.640625 127.371094 C 138.640625 129.3125 137.066406 130.886719 135.125 130.886719 L 10.113281 130.886719 C 8.171875 130.886719 6.597656 129.3125 6.597656 127.371094 L 6.597656 39.84375 L 138.640625 39.84375 L 138.640625 92.871094 C 138.640625 93.519531 139.164062 94.042969 139.8125 94.042969 C 140.457031 94.042969 140.984375 93.519531 140.984375 92.871094 L 140.984375 28.382812 C 140.980469 25.148438 138.359375 22.527344 135.125 22.523438 Z M 6.597656 17.5625 C 6.597656 15.621094 8.171875 14.046875 10.113281 14.046875 L 51.84375 14.046875 C 53.917969 14.046875 55.859375 15.066406 57.039062 16.769531 L 60.058594 21.132812 C 61.679688 23.472656 64.339844 24.867188 67.179688 24.867188 L 135.125 24.867188 C 137.066406 24.867188 138.640625 26.441406 138.640625 28.382812 L 138.640625 37.5 L 6.597656 37.5 Z M 6.597656 17.5625 "/>
<path style=" stroke:none;fill-rule:nonzero;fill:rgb(100%,100%,100%);fill-opacity:1;" d="M 50.984375 26.269531 C 50.984375 28.375 49.273438 30.085938 47.167969 30.085938 C 45.058594 30.085938 43.351562 28.375 43.351562 26.269531 C 43.351562 24.160156 45.058594 22.453125 47.167969 22.453125 C 49.273438 22.453125 50.984375 24.160156 50.984375 26.269531 Z M 50.984375 26.269531 "/>
<path style=" stroke:none;fill-rule:nonzero;fill:rgb(83.137255%,98.431373%,100%);fill-opacity:1;" d="M 37.117188 26.269531 C 37.117188 28.375 35.410156 30.085938 33.300781 30.085938 C 31.191406 30.085938 29.484375 28.375 29.484375 26.269531 C 29.484375 24.160156 31.191406 22.453125 33.300781 22.453125 C 35.410156 22.453125 37.117188 24.160156 37.117188 26.269531 Z M 37.117188 26.269531 "/>
<path style=" stroke:none;fill-rule:nonzero;fill:rgb(98.039216%,45.882353%,61.960784%);fill-opacity:1;" d="M 23.253906 26.269531 C 23.253906 28.375 21.542969 30.085938 19.4375 30.085938 C 17.328125 30.085938 15.621094 28.375 15.621094 26.269531 C 15.621094 24.160156 17.328125 22.453125 19.4375 22.453125 C 21.542969 22.453125 23.253906 24.160156 23.253906 26.269531 Z M 23.253906 26.269531 "/>
</g>
</svg>
