<?xml version="1.0" encoding="UTF-8"?>
<svg xmlns="http://www.w3.org/2000/svg" xmlns:xlink="http://www.w3.org/1999/xlink" width="150px" height="150px" viewBox="0 0 150 150" version="1.1">
<g id="surface1">
<path style=" stroke:none;fill-rule:nonzero;fill:rgb(96.470588%,93.333333%,52.54902%);fill-opacity:1;" d="M 137.34375 75 C 137.34375 41.316406 109.429688 14.007812 75 14.007812 C 40.570312 14.007812 12.65625 41.316406 12.65625 75 C 12.65625 108.683594 40.570312 135.992188 75 135.992188 C 109.429688 135.992188 137.34375 108.683594 137.34375 75 Z M 137.34375 75 "/>
<path style=" stroke:none;fill-rule:nonzero;fill:rgb(93.333333%,81.568627%,46.27451%);fill-opacity:1;" d="M 116.855469 120.203125 C 30.296875 125.484375 22.777344 58.492188 58.011719 16.300781 C 31.835938 23.539062 12.65625 47.078125 12.65625 75 C 12.65625 108.683594 40.570312 135.992188 75 135.992188 C 91.109375 135.992188 105.789062 130.015625 116.855469 120.203125 Z M 116.855469 120.203125 "/>
<path style=" stroke:none;fill-rule:nonzero;fill:rgb(90.588235%,53.333333%,61.568627%);fill-opacity:1;" d="M 50.351562 80.542969 C 50.355469 86.882812 43.90625 92.023438 35.945312 92.03125 C 27.984375 92.03125 21.53125 86.898438 21.523438 80.558594 C 21.523438 74.21875 27.972656 69.078125 35.933594 69.074219 C 43.890625 69.070312 50.347656 74.203125 50.351562 80.542969 Z M 50.351562 80.542969 "/>
<path style=" stroke:none;fill-rule:nonzero;fill:rgb(90.588235%,53.333333%,61.568627%);fill-opacity:1;" d="M 99.648438 80.519531 C 99.652344 86.859375 106.109375 91.992188 114.066406 91.988281 C 122.027344 91.984375 128.476562 86.84375 128.476562 80.503906 C 128.46875 74.164062 122.015625 69.03125 114.054688 69.03125 C 106.09375 69.039062 99.644531 74.179688 99.648438 80.519531 Z M 99.648438 80.519531 "/>
<path style=" stroke:none;fill-rule:nonzero;fill:rgb(30.588235%,33.72549%,37.647059%);fill-opacity:1;" d="M 89.125 75.335938 C 89.121094 66.601562 82.796875 65.789062 74.992188 65.789062 C 67.1875 65.796875 60.867188 66.617188 60.867188 75.351562 C 60.875 84.078125 67.203125 91.15625 75.007812 91.152344 C 82.808594 91.148438 89.128906 84.066406 89.125 75.335938 Z M 89.125 75.335938 "/>
<path style=" stroke:none;fill-rule:nonzero;fill:rgb(30.588235%,33.72549%,37.647059%);fill-opacity:1;" d="M 37.472656 70.257812 C 36.257812 70.257812 35.273438 69.273438 35.273438 68.0625 C 35.273438 65.640625 36.214844 63.367188 37.921875 61.65625 C 39.632812 59.945312 41.90625 59 44.328125 59 L 44.332031 59 C 49.324219 59 53.386719 63.058594 53.390625 68.054688 C 53.390625 69.265625 52.40625 70.25 51.195312 70.25 C 49.980469 70.25 48.996094 69.265625 48.996094 68.054688 C 48.992188 65.484375 46.902344 63.394531 44.332031 63.394531 C 44.332031 63.394531 44.332031 63.394531 44.328125 63.394531 C 43.085938 63.394531 41.914062 63.882812 41.03125 64.761719 C 40.15625 65.640625 39.667969 66.8125 39.671875 68.058594 C 39.671875 69.273438 38.6875 70.257812 37.472656 70.257812 Z M 37.472656 70.257812 "/>
<path style=" stroke:none;fill-rule:nonzero;fill:rgb(30.588235%,33.72549%,37.647059%);fill-opacity:1;" d="M 98.796875 70.226562 C 97.582031 70.226562 96.597656 69.242188 96.597656 68.03125 C 96.59375 63.039062 100.65625 58.96875 105.648438 58.96875 L 105.65625 58.96875 C 110.648438 58.96875 114.710938 63.03125 114.710938 68.023438 C 114.710938 69.234375 113.730469 70.21875 112.515625 70.21875 C 111.304688 70.21875 110.320312 69.234375 110.320312 68.023438 C 110.316406 65.453125 108.226562 63.363281 105.65625 63.363281 C 105.65625 63.363281 105.65625 63.363281 105.652344 63.363281 C 103.082031 63.367188 100.992188 65.457031 100.992188 68.03125 C 100.992188 69.242188 100.007812 70.226562 98.796875 70.226562 Z M 98.796875 70.226562 "/>
<path style=" stroke:none;fill-rule:nonzero;fill:rgb(63.529412%,86.666667%,99.215686%);fill-opacity:1;" d="M 116.613281 105.21875 C 117.078125 94.929688 123.695312 90.792969 124.320312 80.933594 C 124.492188 78.164062 127.523438 76.542969 129.925781 77.921875 C 139.007812 83.140625 150 94.410156 150 106.371094 C 150 115.585938 142.542969 123.054688 133.335938 123.078125 C 123.707031 123.101562 116.179688 114.84375 116.613281 105.21875 Z M 116.613281 105.21875 "/>
<path style=" stroke:none;fill-rule:nonzero;fill:rgb(47.843137%,80.392157%,97.647059%);fill-opacity:1;" d="M 149.515625 110.375 C 128.496094 113.34375 121.453125 100.296875 121.59375 90.515625 C 119.484375 94.925781 116.898438 98.921875 116.613281 105.21875 C 116.179688 114.839844 123.707031 123.101562 133.335938 123.078125 C 141.164062 123.058594 147.722656 117.65625 149.515625 110.375 Z M 149.515625 110.375 "/>
<path style=" stroke:none;fill-rule:nonzero;fill:rgb(63.529412%,86.666667%,99.215686%);fill-opacity:1;" d="M 33.386719 105.21875 C 32.921875 94.929688 26.304688 90.792969 25.679688 80.933594 C 25.507812 78.164062 22.476562 76.542969 20.074219 77.921875 C 10.992188 83.140625 0 94.410156 0 106.371094 C 0 115.585938 7.457031 123.054688 16.664062 123.078125 C 26.292969 123.101562 33.820312 114.84375 33.386719 105.21875 Z M 33.386719 105.21875 "/>
<path style=" stroke:none;fill-rule:nonzero;fill:rgb(47.843137%,80.392157%,97.647059%);fill-opacity:1;" d="M 32.320312 112.046875 C 10.273438 114.695312 6.367188 97.585938 8.648438 87.226562 C 3.734375 92.664062 0 99.398438 0 106.371094 C 0 115.585938 7.457031 123.054688 16.664062 123.078125 C 23.894531 123.09375 29.941406 118.441406 32.320312 112.046875 Z M 32.320312 112.046875 "/>
</g>
</svg>
