<svg id="Capa_1" enable-background="new 0 0 512 512" height="512" viewBox="0 0 512 512" width="512" xmlns="http://www.w3.org/2000/svg"><g><ellipse cx="256" cy="256" fill="#f6ee86" rx="212.797" ry="208.18"/><path d="m398.864 410.29c-295.444 18.038-321.119-210.632-200.854-354.647-89.343 24.697-154.807 105.047-154.807 200.357 0 114.974 95.273 208.18 212.797 208.18 54.983 0 105.099-20.403 142.864-53.89z" fill="#eed076"/><g><g><path d="m171.867 274.923c.011 21.637-22.006 39.188-49.176 39.202s-49.205-17.515-49.216-39.152 22.006-39.189 49.176-39.202c27.17-.015 49.205 17.515 49.216 39.152z" fill="#e7889d"/><path d="m340.133 274.838c.011 21.637 22.046 39.166 49.216 39.152s49.187-17.565 49.176-39.201c-.011-21.637-22.046-39.167-49.216-39.153-27.169.014-49.187 17.565-49.176 39.202z" fill="#e7889d"/><path d="m304.215 257.145c-.015-29.803-21.606-32.592-48.24-32.579-26.633.013-48.222 2.825-48.207 32.628.015 29.802 21.618 53.951 48.251 53.938 26.633-.015 48.211-24.185 48.196-53.987z" fill="#4e5660"/></g><g fill="#4e5660"><path d="m127.905 239.813c-4.141 0-7.498-3.355-7.5-7.496-.004-8.258 3.207-16.023 9.044-21.866 5.837-5.842 13.599-9.062 21.857-9.066h.016c17.041 0 30.907 13.857 30.916 30.9.002 4.142-3.354 7.502-7.496 7.504-.001 0-.003 0-.004 0-4.141 0-7.498-3.355-7.5-7.496-.005-8.773-7.144-15.908-15.916-15.908-.003 0-.005 0-.008 0-4.252.002-8.248 1.66-11.253 4.667-3.004 3.007-4.658 7.005-4.656 11.256.002 4.142-3.354 7.502-7.496 7.504-.001.001-.003.001-.004.001z"/><path d="m337.22 239.708c-4.141 0-7.498-3.355-7.5-7.496-.008-17.047 13.853-30.923 30.9-30.932h.016c17.041 0 30.908 13.857 30.916 30.9.002 4.142-3.354 7.502-7.496 7.504-.001 0-.003 0-.004 0-4.141 0-7.498-3.355-7.5-7.496-.005-8.773-7.144-15.908-15.916-15.908-.003 0-.005 0-.008 0-8.776.004-15.913 7.148-15.908 15.924.002 4.143-3.354 7.502-7.496 7.504-.001 0-.003 0-.004 0z"/></g></g><path d="m398.037 359.155c1.586-35.138 24.178-49.249 26.308-82.904.598-9.444 10.93-14.985 19.135-10.272 30.999 17.803 68.52 56.273 68.52 97.104 0 31.446-25.453 56.947-56.88 57.025-32.868.081-58.565-28.118-57.083-60.953z" fill="#a2ddfd"/><path d="m510.341 376.742c-71.743 10.135-95.774-34.401-95.294-67.785-7.201 15.057-16.04 28.689-17.01 50.198-1.482 32.835 24.215 61.034 57.083 60.952 26.72-.067 49.11-18.515 55.221-43.365z" fill="#7acdf9"/><path d="m113.963 359.155c-1.586-35.138-24.178-49.249-26.308-82.904-.598-9.444-10.93-14.985-19.135-10.272-30.999 17.802-68.52 56.272-68.52 97.103 0 31.446 25.452 56.947 56.88 57.025 32.868.082 58.565-28.117 57.083-60.952z" fill="#a2ddfd"/><path d="m110.32 382.458c-75.26 9.042-88.589-49.37-80.795-84.73-16.771 18.569-29.525 41.556-29.525 65.354 0 31.446 25.452 56.947 56.88 57.025 24.683.062 45.319-15.826 53.44-37.649z" fill="#7acdf9"/></g></svg>