<?xml version="1.0" encoding="iso-8859-1"?>
<!-- Generator: Adobe Illustrator 19.0.0, SVG Export Plug-In . SVG Version: 6.00 Build 0)  -->
<svg version="1.1" id="Capa_1" xmlns="http://www.w3.org/2000/svg" xmlns:xlink="http://www.w3.org/1999/xlink" x="0px" y="0px"
	 viewBox="0 0 512.001 512.001" style="enable-background:new 0 0 512.001 512.001;" xml:space="preserve">
<path style="fill:#FF66B2;" d="M379.633,281.716c-9.695-22.299-30.522-36.771-54.35-37.771
	c-25.965-1.109-50.535,13.783-68.889,41.223c-18.354-27.439-42.925-42.314-68.889-41.223c-23.829,0.999-44.655,15.472-54.35,37.771
	c-11.982,27.558-4.608,59.982,20.231,88.96c48.938,57.094,97.361,81.679,99.398,82.699c2.252,1.127,4.969,1.127,7.22,0
	c2.037-1.019,50.459-25.605,99.398-82.699C384.241,341.698,391.615,309.272,379.633,281.716z"/>
<path style="fill:#FF3399;" d="M268.848,445.306c-2.037-1.019-50.459-25.605-99.398-82.699
	c-24.839-28.979-32.213-61.404-20.231-88.96c4.798-11.037,12.327-20.153,21.594-26.67c-16.583,5.455-30.315,17.85-37.658,34.74
	c-11.982,27.558-4.608,59.982,20.231,88.96c48.938,57.094,97.361,81.679,99.398,82.699c2.252,1.127,4.969,1.127,7.22,0
	c0.598-0.3,5.208-2.638,12.657-7.236C271.352,446.172,270.036,445.901,268.848,445.306z"/>
<path style="fill:#FFCCE5;" d="M508.772,50.886c-5.731-13.18-18.4-21.75-33.065-22.365c-15.753-0.662-30.61,7.508-42.097,22.766
	c-11.486-15.257-26.366-23.428-42.097-22.766c-14.664,0.615-27.334,9.185-33.065,22.365c-7.028,16.164-2.464,35.46,12.518,52.941
	c28.706,33.492,57.531,49.586,58.745,50.256c2.403,1.325,5.393,1.325,7.796,0c1.213-0.669,30.038-16.764,58.745-50.256
	C511.236,86.347,515.799,67.05,508.772,50.886z"/>
<path style="fill:#FF99CC;" d="M389.457,101.258c-14.984-17.48-19.546-36.777-12.518-52.941
	c3.973-9.137,11.283-16.051,20.278-19.643c-1.885-0.178-3.787-0.233-5.702-0.152c-14.664,0.615-27.334,9.185-33.065,22.365
	c-7.028,16.164-2.464,35.46,12.518,52.941c28.706,33.492,57.532,49.586,58.745,50.256c2.403,1.325,5.393,1.325,7.796,0
	c0.352-0.194,3.04-1.696,7.363-4.536C436.337,144.3,412.86,128.562,389.457,101.258z"/>
<path style="fill:#FFCCE5;" d="M153.552,131.618c-5.731-13.18-18.4-21.75-33.065-22.365c-15.752-0.651-30.61,7.508-42.097,22.766
	c-11.486-15.257-26.369-23.439-42.097-22.766c-14.664,0.615-27.334,9.185-33.065,22.365c-7.028,16.164-2.464,35.46,12.518,52.941
	c28.706,33.492,57.531,49.586,58.744,50.256c2.403,1.325,5.393,1.325,7.796,0c1.213-0.669,30.038-16.764,58.744-50.256
	C156.016,167.078,160.579,147.781,153.552,131.618z"/>
<path style="fill:#FF99CC;" d="M34.237,181.99c-14.984-17.48-19.546-36.777-12.518-52.941c3.974-9.14,11.288-16.056,20.288-19.646
	c-1.888-0.178-3.793-0.232-5.712-0.15c-14.664,0.615-27.334,9.185-33.065,22.365c-7.028,16.164-2.464,35.46,12.518,52.941
	c28.706,33.492,57.531,49.586,58.744,50.256c2.403,1.325,5.393,1.325,7.796,0c0.352-0.194,3.04-1.696,7.363-4.535
	C81.115,225.032,57.639,209.294,34.237,181.99z"/>
<path style="fill:#F3F2ED;" d="M414.706,441.397l-34.251-34.251l28.543-28.543c4.48-4.481,2.069-12.385-4.125-13.626L290.7,342.143
	c-5.552-1.106-10.61,3.946-9.5,9.5l22.834,114.172c1.239,6.194,9.146,8.605,13.625,4.125l28.544-28.543l34.251,34.251
	c3.111,3.11,8.306,3.11,11.416,0l22.834-22.834C417.86,449.663,417.86,444.55,414.706,441.397z"/>
<g>
	<path style="fill:#FFE340;" d="M239.854,58.207c-4.458,0-8.073-3.615-8.073-8.073V33.988c0-4.458,3.615-8.073,8.073-8.073
		c4.458,0,8.073,3.615,8.073,8.073v16.146C247.927,54.593,244.313,58.207,239.854,58.207z"/>
	<path style="fill:#FFE340;" d="M272.147,74.354H256c-4.458,0-8.073-3.615-8.073-8.073s3.615-8.073,8.073-8.073h16.146
		c4.458,0,8.073,3.615,8.073,8.073S276.606,74.354,272.147,74.354z"/>
	<path style="fill:#FFE340;" d="M239.854,106.647c-4.458,0-8.073-3.615-8.073-8.073V82.427c0-4.458,3.615-8.073,8.073-8.073
		c4.458,0,8.073,3.615,8.073,8.073v16.146C247.927,103.032,244.313,106.647,239.854,106.647z"/>
	<path style="fill:#FFE340;" d="M223.708,74.354h-16.146c-4.458,0-8.073-3.615-8.073-8.073s3.615-8.073,8.073-8.073h16.146
		c4.458,0,8.073,3.615,8.073,8.073S228.167,74.354,223.708,74.354z"/>
	<path style="fill:#FFE340;" d="M62.244,437.647c-4.458,0-8.073-3.615-8.073-8.073v-16.146c0-4.458,3.615-8.073,8.073-8.073
		s8.073,3.615,8.073,8.073v16.146C70.317,434.032,66.703,437.647,62.244,437.647z"/>
	<path style="fill:#FFE340;" d="M94.537,453.793H78.39c-4.458,0-8.073-3.615-8.073-8.073s3.615-8.073,8.073-8.073h16.146
		c4.458,0,8.073,3.615,8.073,8.073S98.996,453.793,94.537,453.793z"/>
	<path style="fill:#FFE340;" d="M62.244,486.086c-4.458,0-8.073-3.615-8.073-8.073v-16.146c0-4.458,3.615-8.073,8.073-8.073
		s8.073,3.615,8.073,8.073v16.146C70.317,482.471,66.703,486.086,62.244,486.086z"/>
	<path style="fill:#FFE340;" d="M46.098,453.793H29.951c-4.458,0-8.073-3.615-8.073-8.073s3.615-8.073,8.073-8.073h16.146
		c4.458,0,8.073,3.615,8.073,8.073S50.557,453.793,46.098,453.793z"/>
	<path style="fill:#FFE340;" d="M449.757,211.598c-4.458,0-8.073-3.615-8.073-8.073v-16.146c0-4.458,3.615-8.073,8.073-8.073
		c4.458,0,8.073,3.615,8.073,8.073v16.146C457.83,207.983,454.216,211.598,449.757,211.598z"/>
	<path style="fill:#FFE340;" d="M482.049,227.744h-16.146c-4.458,0-8.073-3.615-8.073-8.073c0-4.458,3.615-8.073,8.073-8.073h16.146
		c4.458,0,8.073,3.615,8.073,8.073C490.123,224.129,486.509,227.744,482.049,227.744z"/>
	<path style="fill:#FFE340;" d="M449.757,260.037c-4.458,0-8.073-3.615-8.073-8.073v-16.146c0-4.458,3.615-8.073,8.073-8.073
		c4.458,0,8.073,3.615,8.073,8.073v16.146C457.83,256.422,454.216,260.037,449.757,260.037z"/>
	<path style="fill:#FFE340;" d="M433.61,227.744h-16.146c-4.458,0-8.073-3.615-8.073-8.073c0-4.458,3.615-8.073,8.073-8.073h16.146
		c4.458,0,8.073,3.615,8.073,8.073C441.683,224.129,438.07,227.744,433.61,227.744z"/>
</g>
<g>
</g>
<g>
</g>
<g>
</g>
<g>
</g>
<g>
</g>
<g>
</g>
<g>
</g>
<g>
</g>
<g>
</g>
<g>
</g>
<g>
</g>
<g>
</g>
<g>
</g>
<g>
</g>
<g>
</g>
</svg>
