<?xml version="1.0" encoding="UTF-8"?>
<svg xmlns="http://www.w3.org/2000/svg" xmlns:xlink="http://www.w3.org/1999/xlink" width="150px" height="150px" viewBox="0 0 150 150" version="1.1">
<g id="surface1">
<path style=" stroke:none;fill-rule:nonzero;fill:rgb(100%,40%,69.803922%);fill-opacity:1;" d="M 111.21875 82.53125 C 108.382812 76 102.28125 71.761719 95.296875 71.46875 C 87.691406 71.140625 80.492188 75.507812 75.117188 83.546875 C 69.738281 75.507812 62.539062 71.148438 54.933594 71.46875 C 47.953125 71.761719 41.851562 76 39.007812 82.53125 C 35.5 90.609375 37.660156 100.109375 44.9375 108.59375 C 59.273438 125.320312 73.460938 132.523438 74.058594 132.824219 C 74.71875 133.15625 75.515625 133.15625 76.171875 132.824219 C 76.769531 132.523438 90.953125 125.320312 105.292969 108.59375 C 112.570312 100.109375 114.730469 90.609375 111.21875 82.53125 Z M 111.21875 82.53125 "/>
<path style=" stroke:none;fill-rule:nonzero;fill:rgb(100%,20%,60%);fill-opacity:1;" d="M 78.765625 130.460938 C 78.167969 130.164062 63.980469 122.960938 49.640625 106.234375 C 42.367188 97.742188 40.207031 88.242188 43.71875 80.171875 C 45.125 76.9375 47.328125 74.265625 50.042969 72.355469 C 45.183594 73.953125 41.164062 77.585938 39.007812 82.53125 C 35.5 90.609375 37.660156 100.109375 44.9375 108.59375 C 59.273438 125.324219 73.460938 132.523438 74.058594 132.824219 C 74.71875 133.15625 75.515625 133.15625 76.171875 132.824219 C 76.347656 132.734375 77.699219 132.054688 79.882812 130.703125 C 79.5 130.714844 79.109375 130.632812 78.765625 130.460938 Z M 78.765625 130.460938 "/>
<path style=" stroke:none;fill-rule:nonzero;fill:rgb(100%,80%,89.803922%);fill-opacity:1;" d="M 149.054688 14.90625 C 147.375 11.046875 143.664062 8.535156 139.367188 8.355469 C 134.75 8.164062 130.398438 10.554688 127.03125 15.023438 C 123.667969 10.554688 119.308594 8.164062 114.703125 8.355469 C 110.40625 8.535156 106.695312 11.046875 105.015625 14.90625 C 102.953125 19.640625 104.289062 25.296875 108.679688 30.417969 C 117.09375 40.230469 125.535156 44.945312 125.890625 45.140625 C 126.59375 45.53125 127.46875 45.53125 128.175781 45.140625 C 128.53125 44.945312 136.976562 40.230469 145.386719 30.417969 C 149.773438 25.296875 151.113281 19.640625 149.054688 14.90625 Z M 149.054688 14.90625 "/>
<path style=" stroke:none;fill-rule:nonzero;fill:rgb(100%,60%,80%);fill-opacity:1;" d="M 114.097656 29.664062 C 109.710938 24.546875 108.375 18.890625 110.429688 14.15625 C 111.59375 11.476562 113.734375 9.453125 116.371094 8.398438 C 115.820312 8.347656 115.261719 8.332031 114.703125 8.355469 C 110.40625 8.539062 106.695312 11.046875 105.015625 14.90625 C 102.953125 19.644531 104.292969 25.296875 108.679688 30.417969 C 117.09375 40.230469 125.539062 44.945312 125.890625 45.140625 C 126.59375 45.53125 127.472656 45.53125 128.175781 45.140625 C 128.28125 45.085938 129.066406 44.644531 130.335938 43.8125 C 127.832031 42.273438 120.953125 37.664062 114.097656 29.664062 Z M 114.097656 29.664062 "/>
<path style=" stroke:none;fill-rule:nonzero;fill:rgb(100%,80%,89.803922%);fill-opacity:1;" d="M 44.984375 38.5625 C 43.304688 34.699219 39.59375 32.1875 35.296875 32.007812 C 30.683594 31.816406 26.332031 34.207031 22.964844 38.679688 C 19.601562 34.207031 15.242188 31.8125 10.632812 32.007812 C 6.335938 32.1875 2.625 34.699219 0.945312 38.5625 C -1.113281 43.296875 0.226562 48.949219 4.613281 54.070312 C 13.023438 63.882812 21.46875 68.597656 21.820312 68.792969 C 22.527344 69.179688 23.402344 69.179688 24.109375 68.792969 C 24.460938 68.597656 32.90625 63.882812 41.316406 54.070312 C 45.707031 48.949219 47.046875 43.296875 44.984375 38.5625 Z M 44.984375 38.5625 "/>
<path style=" stroke:none;fill-rule:nonzero;fill:rgb(100%,60%,80%);fill-opacity:1;" d="M 10.03125 53.316406 C 5.640625 48.195312 4.304688 42.542969 6.363281 37.804688 C 7.527344 35.128906 9.671875 33.101562 12.304688 32.050781 C 11.753906 32 11.195312 31.984375 10.632812 32.007812 C 6.335938 32.1875 2.625 34.699219 0.945312 38.5625 C -1.113281 43.296875 0.226562 48.949219 4.613281 54.070312 C 13.023438 63.882812 21.46875 68.597656 21.824219 68.792969 C 22.527344 69.179688 23.40625 69.179688 24.109375 68.792969 C 24.210938 68.734375 25 68.296875 26.265625 67.464844 C 23.765625 65.929688 16.886719 61.316406 10.03125 53.316406 Z M 10.03125 53.316406 "/>
<path style=" stroke:none;fill-rule:nonzero;fill:rgb(95.294118%,94.901961%,92.941176%);fill-opacity:1;" d="M 121.496094 129.3125 L 111.460938 119.28125 L 119.824219 110.917969 C 121.136719 109.605469 120.429688 107.289062 118.617188 106.925781 L 85.164062 100.234375 C 83.539062 99.914062 82.054688 101.390625 82.382812 103.019531 L 89.070312 136.46875 C 89.4375 138.28125 91.75 138.992188 93.0625 137.679688 L 101.425781 129.3125 L 111.460938 139.351562 C 112.375 140.261719 113.894531 140.261719 114.804688 139.351562 L 121.492188 132.660156 C 122.421875 131.734375 122.421875 130.238281 121.496094 129.3125 Z M 121.496094 129.3125 "/>
<path style=" stroke:none;fill-rule:nonzero;fill:rgb(100%,89.019608%,25.098039%);fill-opacity:1;" d="M 70.269531 17.054688 C 68.960938 17.054688 67.90625 15.992188 67.90625 14.6875 L 67.90625 9.957031 C 67.90625 8.648438 68.960938 7.59375 70.269531 7.59375 C 71.578125 7.59375 72.632812 8.648438 72.632812 9.957031 L 72.632812 14.6875 C 72.632812 15.992188 71.578125 17.054688 70.269531 17.054688 Z M 70.269531 17.054688 "/>
<path style=" stroke:none;fill-rule:nonzero;fill:rgb(100%,89.019608%,25.098039%);fill-opacity:1;" d="M 79.730469 21.78125 L 75 21.78125 C 73.695312 21.78125 72.632812 20.726562 72.632812 19.417969 C 72.632812 18.109375 73.695312 17.054688 75 17.054688 L 79.730469 17.054688 C 81.039062 17.054688 82.09375 18.109375 82.09375 19.417969 C 82.09375 20.726562 81.039062 21.78125 79.730469 21.78125 Z M 79.730469 21.78125 "/>
<path style=" stroke:none;fill-rule:nonzero;fill:rgb(100%,89.019608%,25.098039%);fill-opacity:1;" d="M 70.269531 31.242188 C 68.960938 31.242188 67.90625 30.1875 67.90625 28.878906 L 67.90625 24.148438 C 67.90625 22.84375 68.960938 21.78125 70.269531 21.78125 C 71.578125 21.78125 72.632812 22.84375 72.632812 24.148438 L 72.632812 28.878906 C 72.632812 30.1875 71.578125 31.242188 70.269531 31.242188 Z M 70.269531 31.242188 "/>
<path style=" stroke:none;fill-rule:nonzero;fill:rgb(100%,89.019608%,25.098039%);fill-opacity:1;" d="M 65.539062 21.78125 L 60.808594 21.78125 C 59.503906 21.78125 58.445312 20.726562 58.445312 19.417969 C 58.445312 18.109375 59.503906 17.054688 60.808594 17.054688 L 65.539062 17.054688 C 66.84375 17.054688 67.90625 18.109375 67.90625 19.417969 C 67.90625 20.726562 66.84375 21.78125 65.539062 21.78125 Z M 65.539062 21.78125 "/>
<path style=" stroke:none;fill-rule:nonzero;fill:rgb(100%,89.019608%,25.098039%);fill-opacity:1;" d="M 18.234375 128.21875 C 16.929688 128.21875 15.871094 127.15625 15.871094 125.851562 L 15.871094 121.121094 C 15.871094 119.8125 16.929688 118.757812 18.234375 118.757812 C 19.539062 118.757812 20.601562 119.8125 20.601562 121.121094 L 20.601562 125.851562 C 20.601562 127.15625 19.539062 128.21875 18.234375 128.21875 Z M 18.234375 128.21875 "/>
<path style=" stroke:none;fill-rule:nonzero;fill:rgb(100%,89.019608%,25.098039%);fill-opacity:1;" d="M 27.695312 132.945312 L 22.964844 132.945312 C 21.660156 132.945312 20.601562 131.890625 20.601562 130.582031 C 20.601562 129.273438 21.660156 128.21875 22.964844 128.21875 L 27.695312 128.21875 C 29 128.21875 30.0625 129.273438 30.0625 130.582031 C 30.0625 131.890625 29 132.945312 27.695312 132.945312 Z M 27.695312 132.945312 "/>
<path style=" stroke:none;fill-rule:nonzero;fill:rgb(100%,89.019608%,25.098039%);fill-opacity:1;" d="M 18.234375 142.40625 C 16.929688 142.40625 15.871094 141.351562 15.871094 140.042969 L 15.871094 135.3125 C 15.871094 134.007812 16.929688 132.945312 18.234375 132.945312 C 19.539062 132.945312 20.601562 134.007812 20.601562 135.3125 L 20.601562 140.042969 C 20.601562 141.351562 19.539062 142.40625 18.234375 142.40625 Z M 18.234375 142.40625 "/>
<path style=" stroke:none;fill-rule:nonzero;fill:rgb(100%,89.019608%,25.098039%);fill-opacity:1;" d="M 13.507812 132.945312 L 8.773438 132.945312 C 7.46875 132.945312 6.410156 131.890625 6.410156 130.582031 C 6.410156 129.273438 7.46875 128.21875 8.773438 128.21875 L 13.507812 128.21875 C 14.8125 128.21875 15.867188 129.273438 15.867188 130.582031 C 15.867188 131.890625 14.8125 132.945312 13.507812 132.945312 Z M 13.507812 132.945312 "/>
<path style=" stroke:none;fill-rule:nonzero;fill:rgb(100%,89.019608%,25.098039%);fill-opacity:1;" d="M 131.765625 61.992188 C 130.460938 61.992188 129.398438 60.929688 129.398438 59.625 L 129.398438 54.898438 C 129.398438 53.589844 130.460938 52.53125 131.765625 52.53125 C 133.070312 52.53125 134.128906 53.589844 134.128906 54.898438 L 134.128906 59.625 C 134.128906 60.929688 133.070312 61.992188 131.765625 61.992188 Z M 131.765625 61.992188 "/>
<path style=" stroke:none;fill-rule:nonzero;fill:rgb(100%,89.019608%,25.098039%);fill-opacity:1;" d="M 141.226562 66.722656 L 136.492188 66.722656 C 135.1875 66.722656 134.128906 65.664062 134.128906 64.359375 C 134.128906 63.050781 135.1875 61.992188 136.492188 61.992188 L 141.226562 61.992188 C 142.53125 61.992188 143.589844 63.050781 143.589844 64.359375 C 143.589844 65.664062 142.53125 66.722656 141.226562 66.722656 Z M 141.226562 66.722656 "/>
<path style=" stroke:none;fill-rule:nonzero;fill:rgb(100%,89.019608%,25.098039%);fill-opacity:1;" d="M 131.765625 76.179688 C 130.460938 76.179688 129.398438 75.125 129.398438 73.820312 L 129.398438 69.085938 C 129.398438 67.78125 130.460938 66.722656 131.765625 66.722656 C 133.070312 66.722656 134.128906 67.78125 134.128906 69.085938 L 134.128906 73.820312 C 134.128906 75.125 133.070312 76.179688 131.765625 76.179688 Z M 131.765625 76.179688 "/>
<path style=" stroke:none;fill-rule:nonzero;fill:rgb(100%,89.019608%,25.098039%);fill-opacity:1;" d="M 127.03125 66.722656 L 122.304688 66.722656 C 121 66.722656 119.9375 65.664062 119.9375 64.359375 C 119.9375 63.050781 121 61.992188 122.304688 61.992188 L 127.03125 61.992188 C 128.339844 61.992188 129.398438 63.050781 129.398438 64.359375 C 129.398438 65.664062 128.339844 66.722656 127.03125 66.722656 Z M 127.03125 66.722656 "/>
</g>
</svg>
