<?xml version="1.0" encoding="UTF-8"?>
<svg xmlns="http://www.w3.org/2000/svg" xmlns:xlink="http://www.w3.org/1999/xlink" width="150px" height="150px" viewBox="0 0 150 150" version="1.1">
<g id="surface1">
<path style=" stroke:none;fill-rule:nonzero;fill:rgb(94.901961%,94.901961%,94.901961%);fill-opacity:1;" d="M 150 75 C 150 77.316406 149.894531 79.605469 149.6875 81.871094 C 149.527344 83.660156 149.300781 85.429688 149.015625 87.179688 C 143.199219 122.808594 112.273438 150 75 150 C 56.015625 150 38.679688 142.945312 25.464844 131.3125 C 20.582031 127.019531 16.265625 122.097656 12.632812 116.671875 C 4.652344 104.753906 0 90.417969 0 75 C 0 33.578125 33.578125 0 75 0 C 116.421875 0 150 33.578125 150 75 Z M 150 75 "/>
<path style=" stroke:none;fill-rule:nonzero;fill:rgb(80.392157%,40%,60%);fill-opacity:1;" d="M 130.890625 83.488281 C 128.613281 84.347656 128.707031 84.363281 127.503906 82.171875 C 125.964844 79.378906 125.148438 76.445312 125.078125 73.253906 C 125.019531 70.511719 125.769531 67.964844 126.714844 65.46875 C 127.464844 63.480469 126.488281 62.78125 124.765625 62.597656 C 123.515625 62.46875 122.222656 62.484375 120.96875 62.609375 C 117.703125 62.945312 117.382812 63.226562 116.515625 66.394531 C 116 68.273438 115.589844 70.167969 114.738281 71.953125 C 112.632812 76.347656 110.238281 80.578125 107.78125 84.777344 C 107.339844 85.535156 106.976562 86.347656 106.355469 86.992188 C 104.578125 84.332031 103.90625 81.390625 103.757812 78.304688 C 103.605469 75.257812 104.539062 72.425781 105.566406 69.625 C 105.910156 68.679688 105.625 68.097656 104.808594 67.691406 C 104.449219 67.507812 104.042969 67.339844 103.648438 67.308594 C 101.554688 67.144531 99.46875 67.167969 97.425781 67.742188 C 96.507812 67.996094 95.90625 68.511719 95.703125 69.542969 C 95.304688 71.558594 94.683594 73.519531 93.84375 75.402344 C 91.519531 80.625 89.207031 85.859375 86.882812 91.082031 C 84.863281 95.625 82.871094 100.175781 80.480469 104.535156 C 80.3125 104.84375 80.171875 105.378906 79.746094 105.273438 C 79.320312 105.164062 79.46875 104.636719 79.449219 104.277344 C 79.3125 101.707031 80.015625 99.253906 80.609375 96.796875 C 81.554688 92.914062 82.589844 89.046875 83.59375 85.175781 C 83.882812 84.0625 83.398438 83.316406 82.476562 82.785156 C 81.152344 82.023438 79.832031 81.984375 78.398438 83.054688 C 78.59375 81.472656 78.679688 80.085938 78.613281 78.699219 C 78.457031 75.609375 77.027344 73.597656 74.53125 73.132812 C 72.710938 72.792969 70.984375 73.320312 69.359375 74.09375 C 65.5625 75.890625 62.511719 78.597656 59.945312 81.886719 C 59.644531 82.269531 59.339844 82.621094 58.90625 82.855469 C 54.089844 85.480469 49.277344 88.105469 44.476562 90.753906 C 43.949219 91.046875 43.609375 90.964844 43.230469 90.554688 C 40.8125 87.964844 38.003906 85.824219 35.226562 83.652344 C 31.339844 80.617188 27.320312 77.738281 23.96875 74.078125 C 22.011719 71.933594 20.375 69.585938 19.558594 66.753906 C 18.222656 62.117188 19.222656 57.800781 21.445312 53.699219 C 24.074219 48.847656 27.972656 45.101562 32.273438 41.765625 C 39.105469 36.46875 46.59375 32.261719 54.488281 28.800781 C 63.332031 24.925781 72.5 22.433594 82.269531 22.808594 C 86.140625 22.957031 89.894531 23.628906 93.34375 25.523438 C 95.78125 26.863281 97.398438 28.800781 97.855469 31.644531 C 98.390625 34.976562 97.589844 38.054688 96.113281 40.972656 C 92.808594 47.488281 87.558594 52.105469 81.355469 55.71875 C 76.1875 58.730469 70.613281 60.640625 64.714844 61.640625 C 61.453125 62.195312 58.179688 62.527344 54.902344 62.027344 C 51.140625 61.457031 47.664062 60.199219 45.089844 57.167969 C 44.792969 56.820312 44.414062 56.578125 43.910156 56.820312 C 43.390625 57.074219 43.433594 57.53125 43.480469 57.972656 C 43.515625 58.277344 43.601562 58.582031 43.707031 58.871094 C 44.394531 60.726562 45.683594 62.128906 47.195312 63.355469 C 51.117188 66.546875 55.769531 67.484375 60.652344 67.578125 C 65.429688 67.675781 70.136719 67.066406 74.792969 65.953125 C 85.292969 63.445312 94.09375 58.292969 100.515625 49.464844 C 104.351562 44.183594 106.785156 38.371094 106.570312 31.714844 C 106.433594 27.492188 105.011719 23.765625 101.933594 20.734375 C 98.277344 17.136719 93.738281 15.328125 88.867188 14.242188 C 83.441406 13.035156 77.960938 12.863281 72.425781 13.523438 C 67.613281 14.101562 62.90625 15.085938 58.328125 16.664062 C 51.320312 19.078125 44.550781 22.042969 38.074219 25.648438 C 31.4375 29.339844 25.183594 33.570312 19.699219 38.863281 C 14.84375 43.550781 10.671875 48.722656 8.320312 55.140625 C 7.316406 57.890625 6.59375 60.714844 7.265625 63.6875 C 8.128906 67.515625 10.015625 70.828125 12.496094 73.816406 C 16.246094 78.339844 20.847656 81.902344 25.589844 85.308594 C 29.402344 88.042969 33.390625 90.535156 37.050781 93.476562 C 38.089844 94.308594 38.085938 94.308594 36.863281 94.949219 C 35.4375 95.695312 33.996094 96.410156 32.59375 97.203125 C 26.9375 100.398438 21.476562 103.863281 17.015625 108.679688 C 14.820312 111.050781 13.328125 113.714844 12.632812 116.671875 C 16.265625 122.097656 20.582031 127.019531 25.464844 131.3125 C 33.796875 130.664062 40.171875 126.332031 44.882812 119.160156 C 47.160156 115.699219 48.222656 111.78125 48.625 107.648438 C 48.976562 104.003906 48.605469 100.476562 47.535156 97 C 47.347656 96.386719 46.652344 95.78125 46.925781 95.242188 C 47.179688 94.746094 47.945312 94.492188 48.507812 94.167969 C 50.78125 92.851562 53.058594 91.550781 55.394531 90.207031 C 55.496094 90.707031 55.300781 91 55.214844 91.320312 C 53.875 96.238281 52.941406 101.199219 53.960938 106.308594 C 54.59375 109.492188 55.648438 112.492188 57.660156 115.125 C 59.722656 117.839844 64.339844 117.53125 66.210938 115.054688 C 67.988281 112.703125 69.167969 110.050781 70.394531 107.410156 C 71.070312 105.96875 71.6875 104.496094 72.332031 103.039062 C 72.210938 104.792969 72.21875 106.507812 72.28125 108.21875 C 72.347656 109.902344 72.617188 111.5625 73.492188 113.050781 C 74.542969 114.839844 76.523438 115.359375 78.363281 114.402344 C 80.304688 113.398438 81.628906 111.738281 82.65625 109.9375 C 87.066406 102.195312 91.160156 94.289062 94.550781 86.03125 C 95.269531 84.277344 96.011719 82.527344 96.828125 80.578125 C 96.953125 81.21875 97.039062 81.609375 97.113281 82 C 97.867188 85.933594 99.207031 89.65625 101.148438 93.15625 C 101.566406 93.90625 101.519531 94.421875 100.992188 95.140625 C 99.207031 97.578125 97.246094 99.867188 95.3125 102.179688 C 93.691406 104.128906 91.957031 105.988281 90.585938 108.132812 C 89.355469 110.058594 90.0625 112.035156 92.109375 112.472656 C 92.738281 112.605469 93.40625 112.648438 94.050781 112.636719 C 97.628906 112.59375 100.933594 111.527344 104.007812 109.773438 C 108.148438 107.414062 110.605469 103.957031 110.492188 99.03125 C 110.441406 96.789062 109.835938 94.636719 108.929688 92.582031 C 108.730469 92.128906 108.722656 91.796875 109.019531 91.367188 C 111.886719 87.257812 114.421875 82.953125 116.753906 78.519531 C 117.164062 77.738281 117.457031 76.871094 118.125 76.109375 C 118.210938 76.421875 118.28125 76.613281 118.324219 76.8125 C 119.0625 80.484375 120.0625 84.078125 121.933594 87.355469 C 122.449219 88.25 122.191406 88.707031 121.480469 89.308594 C 119.035156 91.386719 116.972656 93.8125 115.351562 96.585938 C 114.09375 98.75 113.230469 101.054688 113.238281 103.589844 C 113.246094 106.40625 115.402344 108.0625 118.148438 107.402344 C 121.011719 106.71875 123.664062 105.550781 126.046875 103.808594 C 131.234375 100.011719 132.757812 96.003906 131.132812 90.410156 C 130.496094 88.207031 130.507812 88.246094 132.714844 87.578125 C 137.542969 86.121094 142.4375 86.058594 147.363281 86.863281 C 147.917969 86.953125 148.46875 87.058594 149.015625 87.175781 C 149.300781 85.429688 149.527344 83.660156 149.6875 81.867188 C 143.390625 80.328125 137.101562 81.128906 130.890625 83.488281 Z M 28.882812 122.871094 C 27.484375 123.367188 26.03125 123.578125 24.542969 123.460938 C 22.691406 123.316406 21.515625 122.007812 21.394531 120.042969 C 21.261719 117.777344 21.929688 115.734375 22.921875 113.742188 C 24.726562 110.128906 27.753906 107.679688 30.839844 105.273438 C 33.84375 102.929688 37.070312 100.929688 40.335938 98.988281 C 41.324219 98.398438 41.339844 98.40625 41.566406 99.585938 C 41.859375 101.097656 42.121094 102.613281 42.023438 103.988281 C 42.28125 112.230469 36.292969 120.246094 28.882812 122.871094 Z M 73.816406 81.304688 C 73.296875 84.777344 72.160156 88.085938 70.949219 91.355469 C 69.304688 95.820312 67.699219 100.304688 65.625 104.59375 C 65.152344 105.585938 64.652344 106.566406 63.886719 107.371094 C 63.160156 108.132812 62.515625 108.046875 62.015625 107.113281 C 61.035156 105.296875 61.15625 103.273438 61 101.804688 C 61.042969 94.433594 63.519531 88.40625 67.59375 82.992188 C 68.730469 81.484375 70.183594 80.253906 72.109375 79.761719 C 73.417969 79.429688 74.019531 79.957031 73.816406 81.304688 Z M 102.347656 103.125 C 100.949219 105.539062 98.9375 107.292969 96.472656 108.542969 C 96.207031 108.671875 95.867188 108.90625 95.628906 108.597656 C 95.402344 108.304688 95.765625 108.113281 95.933594 107.929688 C 98.382812 105.25 100.804688 102.550781 102.988281 99.644531 C 103.023438 99.601562 103.105469 99.59375 103.292969 99.515625 C 103.269531 100.859375 102.976562 102.039062 102.347656 103.125 Z M 119.277344 103.023438 C 118.914062 103.195312 118.492188 103.515625 118.136719 103.238281 C 117.746094 102.9375 117.898438 102.402344 118.019531 101.992188 C 118.578125 100.121094 119.328125 98.328125 120.359375 96.660156 C 121.230469 95.257812 122.308594 94.027344 123.492188 92.882812 C 123.96875 92.425781 124.183594 92.480469 124.347656 93.140625 C 124.515625 93.816406 124.53125 94.492188 124.542969 95.183594 C 124.511719 98.949219 122.597656 101.457031 119.277344 103.023438 Z M 119.277344 103.023438 "/>
</g>
</svg>
