<?xml version="1.0"?>
<svg xmlns="http://www.w3.org/2000/svg" xmlns:xlink="http://www.w3.org/1999/xlink" xmlns:svgjs="http://svgjs.com/svgjs" version="1.1" width="512" height="512" x="0" y="0" viewBox="0 0 512 512" style="enable-background:new 0 0 512 512" xml:space="preserve" class=""><g><g xmlns="http://www.w3.org/2000/svg"><g><g><g><g><g><circle cx="256" cy="256" fill="#bfe1ff" r="256" data-original="#bfe1ff" style="" class=""/></g></g></g></g></g><path d="m512 256c0-3.791-.083-7.562-.246-11.312l-161.619-161.619-188.457 345.7 82.984 82.984c3.759.164 7.539.247 11.338.247 141.385 0 256-114.615 256-256z" fill="#87c7ff" data-original="#87c7ff" style=""/><path d="m333.351 435h-154.702c-14.498 0-26.25-11.753-26.25-26.25v-305.5c0-14.498 11.753-26.25 26.25-26.25h154.703c14.498 0 26.25 11.753 26.25 26.25v305.5c0 14.497-11.753 26.25-26.251 26.25z" fill="#f3b0e3" data-original="#555a66" style="" class=""/><path d="m333.351 77h-77.351v358h77.351c14.498 0 26.25-11.753 26.25-26.25v-305.5c.001-14.497-11.752-26.25-26.25-26.25z" fill="#e99de5" data-original="#333940" style="" class=""/><path d="m287.25 105.835c-2.704 5.659-8.232 9.233-14.279 9.233h-33.942c-6.047 0-11.575-3.575-14.279-9.233-2.704-5.659-8.232-9.233-14.279-9.233h-25.411c-8.817 0-15.965 7.479-15.965 16.704v287.018c0 9.226 7.148 16.704 15.965 16.704h141.88c8.817 0 15.965-7.479 15.965-16.704v-287.018c0-9.226-7.148-16.704-15.965-16.704h-25.41c-6.047-.001-11.575 3.574-14.28 9.233z" fill="#ffffff" data-original="#ffffff" style="" class=""/><path d="m326.94 96.601h-25.41c-6.047 0-11.575 3.575-14.279 9.233-2.705 5.659-8.232 9.233-14.279 9.233h-16.972v301.96h70.94c8.817 0 15.965-7.479 15.965-16.704v-287.017c0-9.226-7.147-16.705-15.965-16.705z" fill="#e9edf5" data-original="#e9edf5" style="" class=""/><g><path d="m321.98 231.23c-8.004-7.08-13.121-17.722-13.631-29.128-.052-1.154-.06-2.356.011-3.489-13.342-25.184-31.857-45.276-52.363-45.276-20.577 0-39.077 20.101-52.427 45.407.126 1.048.124 2.292.171 3.358.512 11.439-5.196 22.091-13.738 29.183-3.14 9.855-5.306 19.101-6.514 27.888 5.347 6.644 8.579 15.395 8.985 24.465.286 6.395-1.42 12.349-4.415 17.725 11.116 26.522 37.38 45.301 67.938 45.301 30.902 0 57.225-18.756 68.123-45.754-2.71-5.249-4.225-11.472-4.503-17.681-.408-9.114 3.097-17.653 8.858-24.326-1.231-8.677-3.4-17.982-6.495-27.673z" fill="#97ecf9" data-original="#7584f2" style="" class=""/><path d="m255.997 153.423v193.24c30.902 0 57.225-18.756 68.123-45.754-2.71-5.25-4.225-11.472-4.503-17.681-.408-9.114 3.097-17.653 8.858-24.326-1.23-8.676-3.399-17.982-6.494-27.673-8.004-7.08-13.121-17.722-13.631-29.128-.052-1.154-.06-2.356.011-3.489-13.342-25.184-31.857-45.276-52.363-45.276v.087z" fill="#efb3ec" data-original="#606aea" style="" class=""/><path d="m321.98 231.23c-3.522-11.113-8.074-22.166-13.621-32.617l-13.822 8.346-38.54-23.483-38.537 23.482-13.89-8.214c-5.547 10.451-10.045 21.428-13.567 32.541l27.457 16.921 38.537-23.483 38.54 23.482z" fill="#ff73a5" data-original="#ff73a5" style="" class=""/><path d="m308.359 198.613-13.822 8.346-38.54-23.483v41.247l38.54 23.482 27.443-16.976c-3.521-11.112-8.074-22.165-13.621-32.616z" fill="#ff468c" data-original="#ff468c" style="" class=""/><path d="m324.119 300.909c3.587-8.664 5.452-17.857 5.452-27.817 0-4.345-.375-9.107-1.098-14.189l-28.582 15.264-43.895-23.483-43.893 23.482-28.615-14.994c-.723 5.082-1.061 9.574-1.061 13.919 0 9.961 2.044 19.607 5.631 28.271l24.045 12.752 43.893-23.483 43.895 23.482z" fill="#eda9ef" data-original="#ffce00" style="" class=""/><path d="m328.474 258.903-28.582 15.264-43.895-23.483v39.948l43.895 23.482 24.228-13.205c3.587-8.664 5.452-17.857 5.452-27.818 0-4.345-.375-9.106-1.098-14.188z" fill="#9de5e7" data-original="#fdba12" style="" class=""/></g></g></g></svg>
