<?xml version="1.0" encoding="UTF-8"?>
<svg xmlns="http://www.w3.org/2000/svg" xmlns:xlink="http://www.w3.org/1999/xlink" width="150px" height="150px" viewBox="0 0 150 150" version="1.1">
<g id="surface1">
<path style=" stroke:none;fill-rule:nonzero;fill:rgb(74.901961%,88.235294%,100%);fill-opacity:1;" d="M 150 75 C 150 116.421875 116.421875 150 75 150 C 33.578125 150 0 116.421875 0 75 C 0 33.578125 33.578125 0 75 0 C 116.421875 0 150 33.578125 150 75 Z M 150 75 "/>
<path style=" stroke:none;fill-rule:nonzero;fill:rgb(52.941176%,78.039216%,100%);fill-opacity:1;" d="M 150 75 C 150 73.890625 149.976562 72.785156 149.929688 71.6875 L 102.578125 24.335938 L 47.367188 125.617188 L 71.679688 149.929688 C 72.78125 149.976562 73.886719 150 75 150 C 116.421875 150 150 116.421875 150 75 Z M 150 75 "/>
<path style=" stroke:none;fill-rule:nonzero;fill:rgb(95.294118%,69.019608%,89.019608%);fill-opacity:1;" d="M 97.664062 127.441406 L 52.335938 127.441406 C 48.09375 127.441406 44.648438 124 44.648438 119.75 L 44.648438 30.25 C 44.648438 26 48.09375 22.558594 52.335938 22.558594 L 97.664062 22.558594 C 101.90625 22.558594 105.351562 26 105.351562 30.25 L 105.351562 119.75 C 105.351562 124 101.90625 127.441406 97.664062 127.441406 Z M 97.664062 127.441406 "/>
<path style=" stroke:none;fill-rule:nonzero;fill:rgb(91.372549%,61.568627%,89.803922%);fill-opacity:1;" d="M 97.664062 22.558594 L 75 22.558594 L 75 127.441406 L 97.664062 127.441406 C 101.90625 127.441406 105.351562 124 105.351562 119.75 L 105.351562 30.25 C 105.351562 26 101.90625 22.558594 97.664062 22.558594 Z M 97.664062 22.558594 "/>
<path style=" stroke:none;fill-rule:nonzero;fill:rgb(100%,100%,100%);fill-opacity:1;" d="M 84.15625 31.007812 C 83.363281 32.664062 81.742188 33.710938 79.972656 33.710938 L 70.027344 33.710938 C 68.257812 33.710938 66.636719 32.664062 65.84375 31.007812 C 65.054688 29.347656 63.433594 28.300781 61.664062 28.300781 L 54.21875 28.300781 C 51.632812 28.300781 49.539062 30.492188 49.539062 33.195312 L 49.539062 117.28125 C 49.539062 119.984375 51.632812 122.175781 54.21875 122.175781 L 95.78125 122.175781 C 98.367188 122.175781 100.460938 119.984375 100.460938 117.28125 L 100.460938 33.195312 C 100.460938 30.492188 98.367188 28.300781 95.78125 28.300781 L 88.339844 28.300781 C 86.566406 28.300781 84.945312 29.347656 84.15625 31.007812 Z M 84.15625 31.007812 "/>
<path style=" stroke:none;fill-rule:nonzero;fill:rgb(91.372549%,92.941176%,96.078431%);fill-opacity:1;" d="M 95.78125 28.300781 L 88.335938 28.300781 C 86.566406 28.300781 84.945312 29.347656 84.15625 31.007812 C 83.363281 32.664062 81.742188 33.710938 79.972656 33.710938 L 75 33.710938 L 75 122.175781 L 95.78125 122.175781 C 98.367188 122.175781 100.460938 119.984375 100.460938 117.28125 L 100.460938 33.195312 C 100.460938 30.492188 98.367188 28.300781 95.78125 28.300781 Z M 95.78125 28.300781 "/>
<path style=" stroke:none;fill-rule:nonzero;fill:rgb(59.215686%,92.54902%,97.647059%);fill-opacity:1;" d="M 94.328125 67.742188 C 91.984375 65.667969 90.484375 62.550781 90.335938 59.210938 C 90.320312 58.871094 90.320312 58.519531 90.339844 58.1875 C 86.429688 50.808594 81.007812 44.921875 75 44.921875 C 68.96875 44.921875 63.550781 50.8125 59.640625 58.226562 C 59.675781 58.53125 59.675781 58.898438 59.6875 59.210938 C 59.839844 62.5625 58.167969 65.679688 55.664062 67.757812 C 54.742188 70.648438 54.109375 73.355469 53.757812 75.929688 C 55.320312 77.875 56.269531 80.4375 56.390625 83.097656 C 56.472656 84.96875 55.972656 86.714844 55.09375 88.289062 C 58.351562 96.0625 66.046875 101.5625 75 101.5625 C 84.054688 101.5625 91.765625 96.066406 94.957031 88.15625 C 94.164062 86.617188 93.71875 84.796875 93.640625 82.976562 C 93.515625 80.304688 94.546875 77.804688 96.234375 75.851562 C 95.875 73.308594 95.234375 70.582031 94.328125 67.742188 Z M 94.328125 67.742188 "/>
<path style=" stroke:none;fill-rule:nonzero;fill:rgb(93.72549%,70.196078%,92.54902%);fill-opacity:1;" d="M 75 44.945312 L 75 101.5625 C 84.054688 101.5625 91.765625 96.066406 94.957031 88.15625 C 94.164062 86.617188 93.71875 84.796875 93.640625 82.976562 C 93.515625 80.304688 94.546875 77.804688 96.234375 75.851562 C 95.875 73.308594 95.234375 70.582031 94.328125 67.742188 C 91.984375 65.667969 90.484375 62.550781 90.335938 59.210938 C 90.320312 58.871094 90.320312 58.519531 90.339844 58.1875 C 86.429688 50.808594 81.007812 44.921875 75 44.921875 Z M 75 44.945312 "/>
<path style=" stroke:none;fill-rule:nonzero;fill:rgb(100%,45.098039%,64.705882%);fill-opacity:1;" d="M 94.328125 67.742188 C 93.296875 64.488281 91.964844 61.25 90.339844 58.1875 L 86.289062 60.632812 L 75 53.75 L 63.710938 60.632812 L 59.640625 58.226562 C 58.015625 61.289062 56.695312 64.503906 55.664062 67.757812 L 63.710938 72.71875 L 75 65.835938 L 86.289062 72.71875 Z M 94.328125 67.742188 "/>
<path style=" stroke:none;fill-rule:nonzero;fill:rgb(100%,27.45098%,54.901961%);fill-opacity:1;" d="M 90.339844 58.1875 L 86.289062 60.632812 L 75 53.75 L 75 65.835938 L 86.289062 72.71875 L 94.328125 67.742188 C 93.296875 64.488281 91.964844 61.25 90.339844 58.1875 Z M 90.339844 58.1875 "/>
<path style=" stroke:none;fill-rule:nonzero;fill:rgb(92.941176%,66.27451%,93.72549%);fill-opacity:1;" d="M 94.957031 88.15625 C 96.007812 85.617188 96.554688 82.925781 96.554688 80.007812 C 96.554688 78.734375 96.445312 77.339844 96.234375 75.851562 L 87.859375 80.320312 L 75 73.445312 L 62.140625 80.320312 L 53.757812 75.929688 C 53.546875 77.417969 53.445312 78.734375 53.445312 80.007812 C 53.445312 82.925781 54.046875 85.75 55.09375 88.289062 L 62.140625 92.023438 L 75 85.148438 L 87.859375 92.023438 Z M 94.957031 88.15625 "/>
<path style=" stroke:none;fill-rule:nonzero;fill:rgb(61.568627%,89.803922%,90.588235%);fill-opacity:1;" d="M 96.234375 75.851562 L 87.859375 80.320312 L 75 73.445312 L 75 85.148438 L 87.859375 92.023438 L 94.957031 88.15625 C 96.007812 85.617188 96.554688 82.925781 96.554688 80.007812 C 96.554688 78.734375 96.445312 77.339844 96.234375 75.851562 Z M 96.234375 75.851562 "/>
</g>
</svg>
