<?xml version="1.0" encoding="UTF-8"?>
<svg xmlns="http://www.w3.org/2000/svg" xmlns:xlink="http://www.w3.org/1999/xlink" width="150px" height="150px" viewBox="0 0 150 150" version="1.1">
<g id="surface1">
<path style=" stroke:none;fill-rule:nonzero;fill:rgb(93.333333%,80.392157%,94.509804%);fill-opacity:1;" d="M 150 75 C 150 86.09375 147.59375 96.625 143.269531 106.101562 C 135.878906 122.296875 122.898438 135.398438 106.789062 142.953125 C 103.875 144.316406 100.851562 145.5 97.742188 146.484375 C 94.242188 147.601562 90.632812 148.460938 86.929688 149.054688 C 86.914062 149.054688 86.898438 149.0625 86.882812 149.0625 C 85.0625 149.351562 83.226562 149.574219 81.371094 149.730469 C 80.976562 149.765625 80.578125 149.796875 80.179688 149.820312 C 79.617188 149.859375 79.054688 149.890625 78.492188 149.917969 C 77.332031 149.972656 76.171875 150 75 150 C 73.796875 150 72.609375 149.972656 71.425781 149.914062 C 70.890625 149.890625 70.351562 149.859375 69.816406 149.820312 C 69.414062 149.789062 69.015625 149.765625 68.617188 149.730469 C 66.71875 149.570312 64.835938 149.335938 62.976562 149.039062 C 62.09375 148.894531 61.207031 148.738281 60.328125 148.5625 C 56.53125 147.8125 52.839844 146.773438 49.273438 145.46875 C 47.207031 144.71875 45.183594 143.875 43.203125 142.945312 C 42.53125 142.632812 41.863281 142.304688 41.195312 141.964844 C 39.492188 141.101562 37.820312 140.171875 36.195312 139.183594 C 28.035156 134.242188 20.898438 127.789062 15.15625 120.214844 C 11.714844 115.664062 8.78125 110.710938 6.4375 105.433594 C 2.296875 96.132812 0 85.835938 0 75 C 0 33.578125 33.578125 0 75 0 C 116.421875 0 150 33.578125 150 75 Z M 150 75 "/>
<path style=" stroke:none;fill-rule:nonzero;fill:rgb(16.862745%,63.137255%,81.176471%);fill-opacity:1;" d="M 60.328125 97.328125 L 60.328125 148.5625 C 56.53125 147.8125 52.839844 146.773438 49.273438 145.46875 C 47.207031 144.71875 45.183594 143.875 43.203125 142.945312 C 42.53125 142.632812 41.863281 142.304688 41.195312 141.964844 C 39.492188 141.101562 37.820312 140.171875 36.195312 139.183594 C 28.035156 134.242188 20.898438 127.789062 15.15625 120.214844 C 11.714844 115.664062 8.78125 110.710938 6.4375 105.433594 L 6.4375 97.328125 C 6.4375 87.925781 12.820312 80.011719 21.492188 77.695312 C 21.8125 77.609375 22.128906 77.527344 22.453125 77.460938 C 23.3125 77.273438 24.199219 77.140625 25.101562 77.070312 C 25.648438 77.027344 26.203125 77 26.761719 77 L 40 77 C 41.476562 77 42.921875 77.15625 44.3125 77.460938 C 44.390625 77.476562 44.46875 77.492188 44.546875 77.515625 C 44.78125 77.566406 45.019531 77.625 45.25 77.6875 C 45.253906 77.6875 45.257812 77.6875 45.265625 77.691406 C 47.554688 78.304688 49.683594 79.304688 51.578125 80.621094 C 56.867188 84.289062 60.328125 90.40625 60.328125 97.328125 Z M 60.328125 97.328125 "/>
<path style=" stroke:none;fill-rule:nonzero;fill:rgb(40%,72.941176%,92.941176%);fill-opacity:1;" d="M 60.328125 97.328125 L 60.328125 148.5625 C 56.53125 147.8125 52.839844 146.773438 49.273438 145.46875 C 47.207031 144.71875 45.183594 143.875 43.203125 142.945312 C 42.53125 142.632812 41.863281 142.304688 41.195312 141.964844 C 39.492188 141.101562 37.820312 140.171875 36.195312 139.183594 C 28.035156 134.242188 20.898438 127.789062 15.15625 120.214844 L 15.15625 97.328125 C 15.15625 87.925781 21.546875 80.011719 30.21875 77.695312 C 30.539062 77.609375 30.851562 77.527344 31.179688 77.460938 C 32.039062 77.273438 32.921875 77.140625 33.820312 77.070312 C 34.371094 77.027344 34.925781 77 35.484375 77 L 40 77 C 41.476562 77 42.921875 77.15625 44.3125 77.460938 C 44.390625 77.476562 44.46875 77.492188 44.546875 77.515625 C 44.78125 77.566406 45.019531 77.625 45.25 77.6875 C 45.253906 77.6875 45.257812 77.6875 45.265625 77.691406 C 47.554688 78.304688 49.683594 79.304688 51.578125 80.621094 C 56.867188 84.289062 60.328125 90.40625 60.328125 97.328125 Z M 60.328125 97.328125 "/>
<path style=" stroke:none;fill-rule:nonzero;fill:rgb(94.901961%,94.117647%,92.54902%);fill-opacity:1;" d="M 45.316406 77.460938 L 45.265625 77.691406 L 39.1875 105.976562 C 38.601562 108.695312 36.210938 110.664062 33.433594 110.664062 C 33.414062 110.664062 33.398438 110.664062 33.382812 110.664062 C 33.367188 110.664062 33.347656 110.664062 33.328125 110.664062 C 30.550781 110.664062 28.160156 108.695312 27.578125 105.976562 L 21.492188 77.695312 L 21.445312 77.460938 Z M 45.316406 77.460938 "/>
<path style=" stroke:none;fill-rule:nonzero;fill:rgb(84.705882%,83.529412%,81.568627%);fill-opacity:1;" d="M 33.382812 85.324219 L 24.226562 90.410156 L 21.445312 77.460938 L 27.132812 74.109375 "/>
<path style=" stroke:none;fill-rule:nonzero;fill:rgb(84.705882%,83.529412%,81.568627%);fill-opacity:1;" d="M 33.382812 85.324219 L 42.53125 90.410156 L 45.316406 77.460938 L 39.628906 74.109375 "/>
<path style=" stroke:none;fill-rule:nonzero;fill:rgb(93.333333%,70.980392%,95.294118%);fill-opacity:1;" d="M 6.054688 72.101562 L 6.054688 41.445312 C 6.054688 38.328125 6.578125 35.28125 7.601562 32.375 C 11.4375 21.457031 21.800781 14.117188 33.382812 14.117188 C 34.820312 14.117188 36.25 14.230469 37.640625 14.449219 C 44.003906 15.445312 49.84375 18.691406 54.078125 23.59375 C 58.351562 28.554688 60.710938 34.890625 60.710938 41.445312 L 60.710938 72.101562 "/>
<path style=" stroke:none;fill-rule:nonzero;fill:rgb(56.862745%,87.843137%,90.588235%);fill-opacity:1;" d="M 17.296875 42.640625 C 17.296875 53.484375 23.648438 66.03125 27.132812 72.101562 L 6.054688 72.101562 L 6.054688 41.445312 C 6.054688 38.332031 6.578125 35.28125 7.601562 32.375 C 11.414062 21.519531 21.679688 14.203125 33.183594 14.121094 C 24.78125 14.328125 17.296875 27.808594 17.296875 42.640625 Z M 17.296875 42.640625 "/>
<path style=" stroke:none;fill-rule:nonzero;fill:rgb(91.764706%,70.980392%,60%);fill-opacity:1;" d="M 40.632812 69.171875 L 40.632812 78.070312 C 40.632812 81.328125 38.488281 84.085938 35.527344 85 C 34.851562 85.210938 34.128906 85.324219 33.382812 85.324219 C 29.375 85.324219 26.132812 82.078125 26.132812 78.070312 L 26.132812 69.171875 Z M 40.632812 69.171875 "/>
<path style=" stroke:none;fill-rule:nonzero;fill:rgb(96.470588%,79.215686%,68.235294%);fill-opacity:1;" d="M 40.632812 77.507812 L 40.632812 78.070312 C 40.632812 81.328125 38.488281 84.085938 35.527344 85 C 32.859375 84.179688 30.851562 81.859375 30.480469 79.015625 C 30.964844 79.046875 31.453125 79.0625 31.941406 79.0625 C 33.3125 79.0625 34.65625 78.953125 35.96875 78.738281 C 37.582031 78.476562 39.140625 78.0625 40.632812 77.507812 Z M 40.632812 77.507812 "/>
<path style=" stroke:none;fill-rule:nonzero;fill:rgb(96.470588%,79.215686%,68.235294%);fill-opacity:1;" d="M 13.488281 54.585938 C 13.488281 57.945312 11.039062 60.726562 7.824219 61.242188 C 7.476562 61.300781 7.113281 61.328125 6.742188 61.328125 C 3.019531 61.328125 0 58.3125 0 54.585938 C 0 50.859375 3.019531 47.84375 6.742188 47.84375 C 7.113281 47.84375 7.476562 47.871094 7.824219 47.929688 C 11.039062 48.445312 13.488281 51.226562 13.488281 54.585938 Z M 13.488281 54.585938 "/>
<path style=" stroke:none;fill-rule:nonzero;fill:rgb(91.764706%,70.980392%,60%);fill-opacity:1;" d="M 13.488281 54.585938 C 13.488281 57.945312 11.039062 60.726562 7.824219 61.242188 C 7.242188 59.125 6.929688 56.890625 6.929688 54.585938 C 6.929688 52.28125 7.242188 50.046875 7.824219 47.929688 C 11.039062 48.445312 13.488281 51.226562 13.488281 54.585938 Z M 13.488281 54.585938 "/>
<path style=" stroke:none;fill-rule:nonzero;fill:rgb(91.764706%,70.980392%,60%);fill-opacity:1;" d="M 9.15625 54.585938 C 9.15625 55.914062 8.078125 56.996094 6.742188 56.996094 C 5.414062 56.996094 4.335938 55.914062 4.335938 54.585938 C 4.335938 53.253906 5.414062 52.171875 6.742188 52.171875 C 8.078125 52.171875 9.15625 53.253906 9.15625 54.585938 Z M 9.15625 54.585938 "/>
<path style=" stroke:none;fill-rule:nonzero;fill:rgb(91.764706%,70.980392%,60%);fill-opacity:1;" d="M 50.703125 45.972656 L 50.703125 69.15625 C 47.117188 72.578125 42.523438 74.945312 37.410156 75.769531 C 37.371094 75.777344 37.328125 75.78125 37.289062 75.789062 C 36.015625 75.992188 34.710938 76.09375 33.382812 76.09375 C 19.523438 76.09375 8.289062 64.859375 8.289062 51 L 8.289062 41.445312 C 8.289062 40.222656 8.375 39.019531 8.546875 37.84375 C 14.515625 42.136719 23.078125 41.710938 28.53125 36.554688 C 30.335938 34.851562 31.59375 32.820312 32.304688 30.664062 C 32.695312 34.4375 34.421875 38.109375 37.484375 41 C 41.125 44.4375 45.933594 46.097656 50.703125 45.972656 Z M 50.703125 45.972656 "/>
<path style=" stroke:none;fill-rule:nonzero;fill:rgb(96.470588%,79.215686%,68.235294%);fill-opacity:1;" d="M 50.703125 45.972656 L 50.703125 69.15625 C 47.117188 72.578125 42.523438 74.945312 37.410156 75.769531 C 37.371094 75.777344 37.328125 75.78125 37.289062 75.789062 C 25.285156 73.914062 16.101562 63.53125 16.101562 51 L 16.101562 41.445312 C 16.101562 41.191406 16.109375 40.9375 16.117188 40.6875 C 20.542969 41.140625 25.140625 39.765625 28.53125 36.554688 C 30.335938 34.851562 31.59375 32.820312 32.304688 30.664062 C 32.695312 34.4375 34.421875 38.109375 37.484375 41 C 41.125 44.4375 45.933594 46.097656 50.703125 45.972656 Z M 50.703125 45.972656 "/>
<path style=" stroke:none;fill-rule:nonzero;fill:rgb(91.764706%,70.980392%,60%);fill-opacity:1;" d="M 46.859375 48.882812 C 46.859375 46.578125 44.992188 44.714844 42.691406 44.714844 C 40.390625 44.714844 38.523438 46.578125 38.523438 48.882812 "/>
<path style=" stroke:none;fill-rule:nonzero;fill:rgb(91.764706%,70.980392%,60%);fill-opacity:1;" d="M 28.246094 48.882812 C 28.246094 46.578125 26.378906 44.714844 24.078125 44.714844 C 21.773438 44.714844 19.910156 46.578125 19.910156 48.882812 "/>
<path style=" stroke:none;fill-rule:nonzero;fill:rgb(90.196078%,56.470588%,95.294118%);fill-opacity:1;" d="M 26.921875 50.65625 C 26.921875 52.226562 25.648438 53.503906 24.078125 53.503906 C 22.503906 53.503906 21.230469 52.226562 21.230469 50.65625 C 21.230469 49.085938 22.503906 47.8125 24.078125 47.8125 C 25.648438 47.8125 26.921875 49.085938 26.921875 50.65625 Z M 26.921875 50.65625 "/>
<path style=" stroke:none;fill-rule:nonzero;fill:rgb(90.196078%,56.470588%,95.294118%);fill-opacity:1;" d="M 45.539062 50.65625 C 45.539062 52.226562 44.265625 53.503906 42.691406 53.503906 C 41.117188 53.503906 39.84375 52.226562 39.84375 50.65625 C 39.84375 49.085938 41.117188 47.8125 42.691406 47.8125 C 44.265625 47.8125 45.539062 49.085938 45.539062 50.65625 Z M 45.539062 50.65625 "/>
<path style=" stroke:none;fill-rule:nonzero;fill:rgb(91.764706%,70.980392%,60%);fill-opacity:1;" d="M 36.234375 57.824219 L 30.539062 57.824219 C 29.859375 57.824219 29.3125 57.273438 29.3125 56.59375 C 29.3125 55.917969 29.859375 55.367188 30.539062 55.367188 L 36.234375 55.367188 C 36.910156 55.367188 37.460938 55.917969 37.460938 56.59375 C 37.460938 57.273438 36.910156 57.824219 36.234375 57.824219 Z M 36.234375 57.824219 "/>
<path style=" stroke:none;fill-rule:nonzero;fill:rgb(91.764706%,70.980392%,60%);fill-opacity:1;" d="M 33.382812 65.59375 C 31.28125 65.59375 29.179688 65.066406 27.265625 64.011719 C 26.726562 63.71875 26.53125 63.039062 26.828125 62.5 C 27.125 61.957031 27.804688 61.757812 28.34375 62.054688 C 31.5 63.792969 35.269531 63.792969 38.429688 62.054688 C 38.96875 61.757812 39.648438 61.957031 39.945312 62.5 C 40.242188 63.039062 40.042969 63.71875 39.5 64.011719 C 37.585938 65.066406 35.484375 65.59375 33.382812 65.59375 Z M 33.382812 65.59375 "/>
<path style=" stroke:none;fill-rule:nonzero;fill:rgb(87.058824%,85.882353%,85.882353%);fill-opacity:1;" d="M 26.34375 50.15625 C 26.34375 50.828125 25.796875 51.375 25.125 51.375 C 24.453125 51.375 23.90625 50.828125 23.90625 50.15625 C 23.90625 49.480469 24.453125 48.933594 25.125 48.933594 C 25.796875 48.933594 26.34375 49.480469 26.34375 50.15625 Z M 26.34375 50.15625 "/>
<path style=" stroke:none;fill-rule:nonzero;fill:rgb(87.058824%,85.882353%,85.882353%);fill-opacity:1;" d="M 45.097656 50.15625 C 45.097656 50.828125 44.554688 51.375 43.878906 51.375 C 43.203125 51.375 42.65625 50.828125 42.65625 50.15625 C 42.65625 49.480469 43.203125 48.933594 43.878906 48.933594 C 44.554688 48.933594 45.097656 49.480469 45.097656 50.15625 Z M 45.097656 50.15625 "/>
<path style=" stroke:none;fill-rule:nonzero;fill:rgb(91.764706%,70.980392%,60%);fill-opacity:1;" d="M 50.464844 57.589844 C 50.464844 59.316406 49.0625 60.714844 47.335938 60.714844 C 45.609375 60.714844 44.210938 59.316406 44.210938 57.589844 C 44.210938 55.863281 45.609375 54.460938 47.335938 54.460938 C 49.0625 54.460938 50.464844 55.863281 50.464844 57.589844 Z M 50.464844 57.589844 "/>
<path style=" stroke:none;fill-rule:nonzero;fill:rgb(91.764706%,70.980392%,60%);fill-opacity:1;" d="M 22.554688 57.589844 C 22.554688 59.316406 21.15625 60.714844 19.429688 60.714844 C 17.703125 60.714844 16.304688 59.316406 16.304688 57.589844 C 16.304688 55.863281 17.703125 54.460938 19.429688 54.460938 C 21.15625 54.460938 22.554688 55.863281 22.554688 57.589844 Z M 22.554688 57.589844 "/>
<path style=" stroke:none;fill-rule:nonzero;fill:rgb(74.901961%,83.529412%,87.058824%);fill-opacity:1;" d="M 143.269531 96.710938 L 143.269531 106.101562 C 135.878906 122.296875 122.898438 135.398438 106.789062 142.953125 C 103.875 144.316406 100.851562 145.5 97.742188 146.484375 C 94.242188 147.601562 90.632812 148.460938 86.929688 149.054688 C 86.914062 149.054688 86.898438 149.0625 86.882812 149.0625 L 86.882812 96.710938 C 86.882812 85.554688 95.472656 76.398438 106.40625 75.515625 C 106.984375 75.46875 107.5625 75.445312 108.148438 75.445312 L 121.996094 75.445312 C 123.632812 75.445312 125.226562 75.625 126.757812 75.980469 C 136.210938 78.140625 143.269531 86.605469 143.269531 96.710938 Z M 143.269531 96.710938 "/>
<path style=" stroke:none;fill-rule:nonzero;fill:rgb(86.666667%,90.980392%,92.941176%);fill-opacity:1;" d="M 143.269531 96.710938 L 143.269531 106.101562 C 135.878906 122.296875 122.898438 135.398438 106.789062 142.953125 C 103.875 144.316406 100.851562 145.5 97.742188 146.484375 L 97.742188 96.710938 C 97.742188 84.96875 107.265625 75.445312 119.011719 75.445312 L 122 75.445312 C 133.75 75.445312 143.269531 84.96875 143.269531 96.710938 Z M 143.269531 96.710938 "/>
<path style=" stroke:none;fill-rule:nonzero;fill:rgb(82.745098%,64.313725%,53.72549%);fill-opacity:1;" d="M 94.257812 51.992188 C 94.257812 55.507812 91.691406 58.417969 88.332031 58.957031 C 87.964844 59.015625 87.585938 59.046875 87.203125 59.046875 C 83.304688 59.046875 80.144531 55.890625 80.144531 51.992188 C 80.144531 48.09375 83.304688 44.9375 87.203125 44.9375 C 87.585938 44.9375 87.964844 44.96875 88.332031 45.023438 C 91.691406 45.566406 94.257812 48.476562 94.257812 51.992188 Z M 94.257812 51.992188 "/>
<path style=" stroke:none;fill-rule:nonzero;fill:rgb(85.490196%,5.882353%,92.941176%);fill-opacity:1;" d="M 120.78125 83.117188 L 115.074219 92.273438 L 109.367188 83.117188 "/>
<path style=" stroke:none;fill-rule:nonzero;fill:rgb(85.490196%,5.882353%,92.941176%);fill-opacity:1;" d="M 122.757812 118.144531 L 115.074219 127.835938 L 107.390625 118.144531 L 115.074219 89.890625 Z M 122.757812 118.144531 "/>
<path style=" stroke:none;fill-rule:nonzero;fill:rgb(80%,62.745098%,52.54902%);fill-opacity:1;" d="M 94.257812 51.992188 C 94.257812 55.507812 91.691406 58.417969 88.332031 58.957031 C 87.722656 56.738281 87.398438 54.402344 87.398438 51.992188 C 87.398438 49.582031 87.722656 47.246094 88.332031 45.023438 C 91.691406 45.566406 94.257812 48.476562 94.257812 51.992188 Z M 94.257812 51.992188 "/>
<path style=" stroke:none;fill-rule:nonzero;fill:rgb(80%,62.745098%,52.54902%);fill-opacity:1;" d="M 89.726562 51.992188 C 89.726562 53.382812 88.59375 54.515625 87.203125 54.515625 C 85.808594 54.515625 84.679688 53.382812 84.679688 51.992188 C 84.679688 50.601562 85.808594 49.46875 87.203125 49.46875 C 88.59375 49.46875 89.726562 50.601562 89.726562 51.992188 Z M 89.726562 51.992188 "/>
<path style=" stroke:none;fill-rule:nonzero;fill:rgb(74.901961%,83.529412%,87.058824%);fill-opacity:1;" d="M 115.070312 84.152344 L 105.5 89.472656 L 102.585938 75.921875 L 108.53125 72.421875 "/>
<path style=" stroke:none;fill-rule:nonzero;fill:rgb(74.901961%,83.529412%,87.058824%);fill-opacity:1;" d="M 115.070312 84.152344 L 124.648438 89.472656 L 127.558594 75.921875 L 121.609375 72.421875 "/>
<path style=" stroke:none;fill-rule:nonzero;fill:rgb(82.745098%,64.313725%,53.72549%);fill-opacity:1;" d="M 135.886719 51.992188 C 135.886719 55.507812 138.453125 58.417969 141.8125 58.957031 C 142.179688 59.015625 142.558594 59.046875 142.945312 59.046875 C 146.84375 59.046875 150 55.890625 150 51.992188 C 150 48.09375 146.84375 44.9375 142.945312 44.9375 C 142.558594 44.9375 142.179688 44.96875 141.8125 45.023438 C 138.453125 45.566406 135.886719 48.476562 135.886719 51.992188 Z M 135.886719 51.992188 "/>
<path style=" stroke:none;fill-rule:nonzero;fill:rgb(80%,62.745098%,52.54902%);fill-opacity:1;" d="M 135.886719 51.992188 C 135.886719 55.507812 138.453125 58.417969 141.8125 58.957031 C 142.421875 56.738281 142.75 54.402344 142.75 51.992188 C 142.75 49.582031 142.421875 47.246094 141.8125 45.023438 C 138.453125 45.566406 135.886719 48.476562 135.886719 51.992188 Z M 135.886719 51.992188 "/>
<path style=" stroke:none;fill-rule:nonzero;fill:rgb(80%,62.745098%,52.54902%);fill-opacity:1;" d="M 145.46875 51.992188 C 145.46875 53.382812 144.335938 54.515625 142.945312 54.515625 C 141.550781 54.515625 140.421875 53.382812 140.421875 51.992188 C 140.421875 50.601562 141.550781 49.46875 142.945312 49.46875 C 144.335938 49.46875 145.46875 50.601562 145.46875 51.992188 Z M 145.46875 51.992188 "/>
<path style=" stroke:none;fill-rule:nonzero;fill:rgb(80%,62.745098%,52.54902%);fill-opacity:1;" d="M 141.328125 48.242188 C 141.328125 61.304688 131.78125 72.144531 119.289062 74.15625 C 117.914062 74.382812 116.507812 74.496094 115.070312 74.496094 C 100.570312 74.496094 88.820312 62.742188 88.820312 48.242188 C 88.820312 41.382812 91.203125 31.078125 95.507812 26.40625 C 100.304688 21.195312 107.429688 21.984375 115.070312 21.984375 C 116.507812 21.984375 117.914062 22.101562 119.289062 22.328125 C 131.78125 24.335938 141.328125 35.175781 141.328125 48.242188 Z M 141.328125 48.242188 "/>
<path style=" stroke:none;fill-rule:nonzero;fill:rgb(80%,62.745098%,52.54902%);fill-opacity:1;" d="M 122.664062 67.253906 L 122.664062 76.566406 C 122.664062 79.976562 120.414062 82.855469 117.316406 83.8125 C 116.609375 84.03125 115.851562 84.152344 115.070312 84.152344 C 110.882812 84.152344 107.484375 80.757812 107.484375 76.566406 L 107.484375 67.253906 Z M 122.664062 67.253906 "/>
<path style=" stroke:none;fill-rule:nonzero;fill:rgb(82.745098%,64.313725%,53.72549%);fill-opacity:1;" d="M 122.664062 75.976562 L 122.664062 76.566406 C 122.664062 79.976562 120.414062 82.855469 117.316406 83.8125 C 114.523438 82.953125 112.421875 80.523438 112.035156 77.554688 C 112.542969 77.585938 113.050781 77.601562 113.5625 77.601562 C 115 77.601562 116.40625 77.484375 117.777344 77.261719 C 119.46875 76.988281 121.101562 76.554688 122.664062 75.976562 Z M 122.664062 75.976562 "/>
<path style=" stroke:none;fill-rule:nonzero;fill:rgb(82.745098%,64.313725%,53.72549%);fill-opacity:1;" d="M 141.328125 48.242188 C 141.328125 61.304688 131.78125 72.144531 119.289062 74.15625 C 106.789062 72.144531 97.246094 61.304688 97.246094 48.242188 C 97.246094 40.195312 100.867188 32.996094 106.5625 28.179688 C 110.117188 25.171875 114.484375 23.101562 119.289062 22.324219 C 130.9375 24.203125 140.023438 33.75 141.199219 45.625 C 141.285156 46.484375 141.328125 47.359375 141.328125 48.242188 Z M 141.328125 48.242188 "/>
<path style=" stroke:none;fill-rule:nonzero;fill:rgb(80%,62.745098%,52.54902%);fill-opacity:1;" d="M 115.074219 61.171875 C 112.875 61.171875 110.679688 60.621094 108.671875 59.519531 C 108.109375 59.210938 107.898438 58.5 108.210938 57.933594 C 108.523438 57.367188 109.234375 57.164062 109.796875 57.472656 C 113.101562 59.289062 117.046875 59.289062 120.351562 57.472656 C 120.914062 57.164062 121.625 57.367188 121.933594 57.933594 C 122.246094 58.5 122.039062 59.210938 121.476562 59.519531 C 119.46875 60.621094 117.273438 61.171875 115.074219 61.171875 Z M 115.074219 61.171875 "/>
<path style=" stroke:none;fill-rule:nonzero;fill:rgb(90.196078%,56.470588%,95.294118%);fill-opacity:1;" d="M 109.484375 46.710938 C 109.484375 48.359375 108.148438 49.691406 106.503906 49.691406 C 104.859375 49.691406 103.523438 48.359375 103.523438 46.710938 C 103.523438 45.070312 104.859375 43.734375 106.503906 43.734375 C 108.148438 43.734375 109.484375 45.070312 109.484375 46.710938 Z M 109.484375 46.710938 "/>
<path style=" stroke:none;fill-rule:nonzero;fill:rgb(90.196078%,56.470588%,95.294118%);fill-opacity:1;" d="M 126.621094 46.710938 C 126.621094 48.359375 125.289062 49.691406 123.640625 49.691406 C 122 49.691406 120.664062 48.359375 120.664062 46.710938 C 120.664062 45.070312 122 43.734375 123.640625 43.734375 C 125.289062 43.734375 126.621094 45.070312 126.621094 46.710938 Z M 126.621094 46.710938 "/>
<path style=" stroke:none;fill-rule:nonzero;fill:rgb(87.058824%,85.882353%,85.882353%);fill-opacity:1;" d="M 108.875 46.1875 C 108.875 46.890625 108.304688 47.464844 107.597656 47.464844 C 106.890625 47.464844 106.320312 46.890625 106.320312 46.1875 C 106.320312 45.484375 106.890625 44.914062 107.597656 44.914062 C 108.304688 44.914062 108.875 45.484375 108.875 46.1875 Z M 108.875 46.1875 "/>
<path style=" stroke:none;fill-rule:nonzero;fill:rgb(87.058824%,85.882353%,85.882353%);fill-opacity:1;" d="M 126.160156 46.1875 C 126.160156 46.890625 125.585938 47.464844 124.882812 47.464844 C 124.179688 47.464844 123.609375 46.890625 123.609375 46.1875 C 123.609375 45.484375 124.179688 44.914062 124.882812 44.914062 C 125.585938 44.914062 126.160156 45.484375 126.160156 46.1875 Z M 126.160156 46.1875 "/>
<path style=" stroke:none;fill-rule:nonzero;fill:rgb(80%,62.745098%,52.54902%);fill-opacity:1;" d="M 118.050781 54.210938 L 112.09375 54.210938 C 111.382812 54.210938 110.8125 53.636719 110.8125 52.925781 C 110.8125 52.21875 111.382812 51.640625 112.09375 51.640625 L 118.050781 51.640625 C 118.761719 51.640625 119.335938 52.21875 119.335938 52.925781 C 119.335938 53.636719 118.761719 54.210938 118.050781 54.210938 Z M 118.050781 54.210938 "/>
<path style=" stroke:none;fill-rule:nonzero;fill:rgb(74.901961%,83.529412%,87.058824%);fill-opacity:1;" d="M 123.71875 96.015625 L 135.164062 96.015625 L 135.164062 99.515625 L 123.71875 99.515625 Z M 123.71875 96.015625 "/>
<path style=" stroke:none;fill-rule:nonzero;fill:rgb(94.509804%,68.627451%,83.529412%);fill-opacity:1;" d="M 113.539062 14.484375 C 121.492188 15.054688 127.875 21.476562 128.28125 29.566406 L 128.355469 31.085938 L 132.929688 31.085938 L 135.394531 47.46875 L 141.363281 45.625 L 140.5625 29.570312 C 140.140625 21.070312 133.109375 14.414062 124.609375 14.445312 Z M 113.539062 14.484375 "/>
<path style=" stroke:none;fill-rule:nonzero;fill:rgb(90.196078%,56.470588%,95.294118%);fill-opacity:1;" d="M 140.054688 8.148438 C 146.390625 14.484375 146.390625 24.75 140.054688 31.085938 C 133.722656 37.417969 123.453125 37.417969 117.121094 31.085938 Z M 140.054688 8.148438 "/>
<path style=" stroke:none;fill-rule:nonzero;fill:rgb(90.196078%,56.470588%,95.294118%);fill-opacity:1;" d="M 117.121094 31.085938 L 97.21875 31.085938 L 94.75 47.46875 L 88.785156 45.625 L 89.585938 29.566406 C 90.007812 21.070312 97.035156 14.414062 105.539062 14.445312 L 134.285156 14.554688 L 138.085938 21.394531 "/>
<path style=" stroke:none;fill-rule:nonzero;fill:rgb(94.509804%,68.627451%,83.529412%);fill-opacity:1;" d="M 116.609375 14.484375 C 108.65625 15.054688 102.269531 21.476562 101.867188 29.566406 L 101.789062 31.085938 L 97.21875 31.085938 L 94.75 47.46875 L 88.78125 45.625 L 89.585938 29.570312 C 90.007812 21.070312 97.035156 14.414062 105.539062 14.445312 Z M 116.609375 14.484375 "/>
<path style=" stroke:none;fill-rule:nonzero;fill:rgb(90.196078%,56.470588%,95.294118%);fill-opacity:1;" d="M 106.789062 137.328125 L 106.789062 142.953125 C 97.140625 147.472656 86.367188 150 75 150 C 63.632812 150 52.859375 147.472656 43.203125 142.945312 L 43.203125 137.328125 C 43.203125 126.226562 50.742188 116.898438 60.972656 114.160156 C 61.347656 114.058594 61.726562 113.96875 62.105469 113.882812 C 63.125 113.664062 64.164062 113.507812 65.226562 113.421875 C 65.875 113.371094 66.527344 113.34375 67.1875 113.34375 L 82.804688 113.34375 C 84.554688 113.34375 86.253906 113.53125 87.894531 113.882812 C 87.988281 113.902344 88.085938 113.921875 88.175781 113.945312 C 88.453125 114.007812 88.726562 114.078125 89 114.148438 C 89.007812 114.152344 89.011719 114.152344 89.019531 114.15625 C 91.71875 114.878906 94.234375 116.0625 96.464844 117.609375 C 102.707031 121.941406 106.789062 129.15625 106.789062 137.328125 Z M 106.789062 137.328125 "/>
<path style=" stroke:none;fill-rule:nonzero;fill:rgb(40%,72.941176%,92.941176%);fill-opacity:1;" d="M 89.078125 113.882812 L 89.019531 114.15625 L 81.371094 149.730469 C 80.976562 149.765625 80.578125 149.796875 80.179688 149.820312 C 79.617188 149.859375 79.054688 149.890625 78.492188 149.917969 C 77.332031 149.972656 76.171875 150 75 150 C 73.796875 150 72.609375 149.972656 71.425781 149.914062 C 70.890625 149.890625 70.351562 149.859375 69.816406 149.820312 C 69.414062 149.789062 69.015625 149.765625 68.617188 149.730469 L 60.972656 114.160156 L 60.914062 113.882812 Z M 89.078125 113.882812 "/>
<path style=" stroke:none;fill-rule:nonzero;fill:rgb(90.196078%,56.470588%,95.294118%);fill-opacity:1;" d="M 81.4375 122 L 75 132.324219 L 68.5625 122 "/>
<path style=" stroke:none;fill-rule:nonzero;fill:rgb(90.196078%,56.470588%,95.294118%);fill-opacity:1;" d="M 80.179688 149.820312 C 79.617188 149.859375 79.054688 149.890625 78.492188 149.917969 C 77.332031 149.972656 76.171875 150 75 150 C 73.796875 150 72.609375 149.972656 71.425781 149.914062 C 70.890625 149.890625 70.351562 149.859375 69.816406 149.820312 L 75 129.636719 Z M 80.179688 149.820312 "/>
<path style=" stroke:none;fill-rule:nonzero;fill:rgb(16.862745%,63.137255%,81.176471%);fill-opacity:1;" d="M 74.996094 123.164062 L 64.199219 129.164062 L 60.914062 113.886719 L 67.625 109.933594 "/>
<path style=" stroke:none;fill-rule:nonzero;fill:rgb(16.862745%,63.137255%,81.176471%);fill-opacity:1;" d="M 74.996094 123.164062 L 85.792969 129.164062 L 89.078125 113.886719 L 82.367188 109.933594 "/>
<path style=" stroke:none;fill-rule:nonzero;fill:rgb(94.509804%,68.627451%,83.529412%);fill-opacity:1;" d="M 89.484375 134.5 L 92.914062 134.5 L 86.929688 149.054688 C 84.164062 149.5 81.34375 149.789062 78.492188 149.917969 L 89 114.148438 L 89.078125 113.882812 L 96.464844 116.296875 Z M 89.484375 134.5 "/>
<path style=" stroke:none;fill-rule:nonzero;fill:rgb(94.509804%,68.627451%,83.529412%);fill-opacity:1;" d="M 71.425781 149.914062 C 68.5625 149.78125 65.746094 149.484375 62.976562 149.039062 L 57.003906 134.5 L 60.429688 134.5 L 53.445312 116.296875 L 60.835938 113.882812 L 60.914062 114.148438 Z M 71.425781 149.914062 "/>
<path style=" stroke:none;fill-rule:nonzero;fill:rgb(91.764706%,70.980392%,60%);fill-opacity:1;" d="M 83.554688 104.109375 L 83.554688 114.609375 C 83.554688 118.453125 81.019531 121.703125 77.527344 122.78125 C 76.726562 123.03125 75.875 123.164062 74.996094 123.164062 C 70.269531 123.164062 66.441406 119.332031 66.441406 114.609375 L 66.441406 104.109375 Z M 83.554688 104.109375 "/>
<path style=" stroke:none;fill-rule:nonzero;fill:rgb(96.470588%,79.215686%,68.235294%);fill-opacity:1;" d="M 83.554688 113.941406 L 83.554688 114.609375 C 83.554688 118.453125 81.019531 121.703125 77.527344 122.78125 C 74.375 121.8125 72.007812 119.074219 71.570312 115.71875 C 72.140625 115.757812 72.71875 115.773438 73.296875 115.773438 C 74.914062 115.773438 76.5 115.648438 78.046875 115.390625 C 79.953125 115.085938 81.792969 114.59375 83.554688 113.941406 Z M 83.554688 113.941406 "/>
<path style=" stroke:none;fill-rule:nonzero;fill:rgb(96.470588%,79.215686%,68.235294%);fill-opacity:1;" d="M 51.523438 86.898438 C 51.523438 90.859375 48.632812 94.140625 44.84375 94.75 C 44.429688 94.820312 44 94.851562 43.570312 94.851562 C 39.171875 94.851562 35.609375 91.292969 35.609375 86.898438 C 35.609375 82.5 39.171875 78.9375 43.570312 78.9375 C 44 78.9375 44.429688 78.976562 44.84375 79.042969 C 48.632812 79.652344 51.523438 82.9375 51.523438 86.898438 Z M 51.523438 86.898438 "/>
<path style=" stroke:none;fill-rule:nonzero;fill:rgb(91.764706%,70.980392%,60%);fill-opacity:1;" d="M 51.523438 86.898438 C 51.523438 90.859375 48.632812 94.140625 44.84375 94.75 C 44.15625 92.25 43.789062 89.617188 43.789062 86.898438 C 43.789062 84.179688 44.15625 81.546875 44.84375 79.042969 C 48.632812 79.652344 51.523438 82.9375 51.523438 86.898438 Z M 51.523438 86.898438 "/>
<path style=" stroke:none;fill-rule:nonzero;fill:rgb(91.764706%,70.980392%,60%);fill-opacity:1;" d="M 46.414062 86.898438 C 46.414062 88.46875 45.140625 89.742188 43.570312 89.742188 C 42 89.742188 40.726562 88.46875 40.726562 86.898438 C 40.726562 85.328125 42 84.054688 43.570312 84.054688 C 45.140625 84.054688 46.414062 85.328125 46.414062 86.898438 Z M 46.414062 86.898438 "/>
<path style=" stroke:none;fill-rule:nonzero;fill:rgb(96.470588%,79.215686%,68.235294%);fill-opacity:1;" d="M 98.46875 86.898438 C 98.46875 90.859375 101.363281 94.140625 105.152344 94.75 C 105.5625 94.820312 105.992188 94.851562 106.425781 94.851562 C 110.820312 94.851562 114.382812 91.292969 114.382812 86.898438 C 114.382812 82.5 110.820312 78.9375 106.425781 78.9375 C 105.992188 78.9375 105.5625 78.976562 105.152344 79.042969 C 101.363281 79.652344 98.46875 82.9375 98.46875 86.898438 Z M 98.46875 86.898438 "/>
<path style=" stroke:none;fill-rule:nonzero;fill:rgb(91.764706%,70.980392%,60%);fill-opacity:1;" d="M 98.46875 86.898438 C 98.46875 90.859375 101.363281 94.140625 105.152344 94.75 C 105.839844 92.25 106.207031 89.617188 106.207031 86.898438 C 106.207031 84.179688 105.839844 81.546875 105.152344 79.042969 C 101.363281 79.652344 98.46875 82.9375 98.46875 86.898438 Z M 98.46875 86.898438 "/>
<path style=" stroke:none;fill-rule:nonzero;fill:rgb(91.764706%,70.980392%,60%);fill-opacity:1;" d="M 104.601562 71.394531 L 104.601562 82.667969 C 104.601562 97.402344 93.839844 109.625 79.75 111.890625 C 79.703125 111.898438 79.648438 111.90625 79.601562 111.914062 C 78.105469 112.15625 76.566406 112.273438 74.996094 112.273438 C 58.648438 112.273438 45.390625 99.019531 45.390625 82.671875 L 45.390625 71.394531 C 45.390625 67.953125 45.980469 64.644531 47.0625 61.570312 C 51.113281 50.046875 62.09375 41.789062 74.996094 41.789062 L 75 41.789062 C 76.566406 41.789062 78.109375 41.910156 79.609375 42.148438 C 93.769531 44.359375 104.601562 56.613281 104.601562 71.394531 Z M 104.601562 71.394531 "/>
<path style=" stroke:none;fill-rule:nonzero;fill:rgb(91.764706%,70.980392%,60%);fill-opacity:1;" d="M 109.269531 86.898438 C 109.269531 88.46875 107.996094 89.742188 106.425781 89.742188 C 104.855469 89.742188 103.582031 88.46875 103.582031 86.898438 C 103.582031 85.328125 104.855469 84.054688 106.425781 84.054688 C 107.996094 84.054688 109.269531 85.328125 109.269531 86.898438 Z M 109.269531 86.898438 "/>
<path style=" stroke:none;fill-rule:nonzero;fill:rgb(96.470588%,79.215686%,68.235294%);fill-opacity:1;" d="M 104.601562 71.394531 L 104.601562 82.667969 C 104.601562 97.398438 93.839844 109.625 79.75 111.890625 C 79.699219 111.898438 79.648438 111.90625 79.601562 111.914062 C 65.445312 109.703125 54.609375 97.449219 54.609375 82.667969 L 54.609375 71.394531 C 54.609375 56.613281 65.445312 44.359375 79.609375 42.148438 C 93.769531 44.359375 104.601562 56.613281 104.601562 71.394531 Z M 104.601562 71.394531 "/>
<path style=" stroke:none;fill-rule:nonzero;fill:rgb(90.196078%,56.470588%,95.294118%);fill-opacity:1;" d="M 68.691406 80.945312 C 68.691406 82.796875 67.1875 84.304688 65.335938 84.304688 C 63.476562 84.304688 61.976562 82.796875 61.976562 80.945312 C 61.976562 79.089844 63.476562 77.585938 65.335938 77.585938 C 67.1875 77.585938 68.691406 79.089844 68.691406 80.945312 Z M 68.691406 80.945312 "/>
<path style=" stroke:none;fill-rule:nonzero;fill:rgb(90.196078%,56.470588%,95.294118%);fill-opacity:1;" d="M 88.019531 80.945312 C 88.019531 82.796875 86.515625 84.304688 84.660156 84.304688 C 82.804688 84.304688 81.304688 82.796875 81.304688 80.945312 C 81.304688 79.089844 82.804688 77.585938 84.660156 77.585938 C 86.515625 77.585938 88.019531 79.089844 88.019531 80.945312 Z M 88.019531 80.945312 "/>
<path style=" stroke:none;fill-rule:nonzero;fill:rgb(87.058824%,85.882353%,85.882353%);fill-opacity:1;" d="M 68.007812 80.351562 C 68.007812 81.148438 67.363281 81.789062 66.570312 81.789062 C 65.773438 81.789062 65.128906 81.148438 65.128906 80.351562 C 65.128906 79.554688 65.773438 78.914062 66.570312 78.914062 C 67.363281 78.914062 68.007812 79.554688 68.007812 80.351562 Z M 68.007812 80.351562 "/>
<path style=" stroke:none;fill-rule:nonzero;fill:rgb(87.058824%,85.882353%,85.882353%);fill-opacity:1;" d="M 87.5 80.351562 C 87.5 81.148438 86.855469 81.789062 86.0625 81.789062 C 85.265625 81.789062 84.621094 81.148438 84.621094 80.351562 C 84.621094 79.554688 85.265625 78.914062 86.0625 78.914062 C 86.855469 78.914062 87.5 79.554688 87.5 80.351562 Z M 87.5 80.351562 "/>
<path style=" stroke:none;fill-rule:nonzero;fill:rgb(91.764706%,70.980392%,60%);fill-opacity:1;" d="M 78.359375 88.085938 L 71.640625 88.085938 C 70.839844 88.085938 70.1875 87.4375 70.1875 86.632812 C 70.1875 85.835938 70.839844 85.1875 71.640625 85.1875 L 78.359375 85.1875 C 79.15625 85.1875 79.804688 85.835938 79.804688 86.632812 C 79.804688 87.4375 79.15625 88.085938 78.359375 88.085938 Z M 78.359375 88.085938 "/>
<path style=" stroke:none;fill-rule:nonzero;fill:rgb(91.764706%,70.980392%,60%);fill-opacity:1;" d="M 75 97.25 C 72.519531 97.25 70.039062 96.628906 67.78125 95.382812 C 67.140625 95.035156 66.90625 94.234375 67.257812 93.597656 C 67.609375 92.960938 68.414062 92.726562 69.046875 93.078125 C 72.773438 95.125 77.21875 95.125 80.945312 93.078125 C 81.585938 92.726562 82.382812 92.960938 82.734375 93.597656 C 83.085938 94.234375 82.851562 95.035156 82.214844 95.382812 C 79.953125 96.628906 77.476562 97.25 75 97.25 Z M 75 97.25 "/>
<path style=" stroke:none;fill-rule:nonzero;fill:rgb(94.509804%,68.627451%,83.529412%);fill-opacity:1;" d="M 104.601562 61.164062 L 104.601562 72.710938 L 99.09375 72.710938 L 99.09375 63.667969 L 59.320312 56.277344 L 50.902344 54.710938 L 50.902344 72.710938 L 45.390625 72.710938 L 45.390625 61.164062 C 45.390625 48 56.0625 37.328125 69.226562 37.328125 L 80.769531 37.328125 C 81.085938 37.328125 81.398438 37.332031 81.710938 37.351562 C 94.4375 37.835938 104.601562 48.3125 104.601562 61.164062 Z M 104.601562 61.164062 "/>
<path style=" stroke:none;fill-rule:nonzero;fill:rgb(90.196078%,56.470588%,95.294118%);fill-opacity:1;" d="M 104.601562 61.164062 L 104.601562 72.710938 L 99.09375 72.710938 L 99.09375 63.667969 L 59.320312 56.277344 C 61.507812 45.75 70.640625 37.773438 81.710938 37.351562 C 94.4375 37.835938 104.601562 48.3125 104.601562 61.164062 Z M 104.601562 61.164062 "/>
</g>
</svg>
